<?xml version="1.0" encoding="UTF-8"?>
<svg id="g-fred_scatter-mobile-interactions-img" xmlns="http://www.w3.org/2000/svg" baseProfile="tiny" version="1.2" viewBox="0 0 375 560">
  <!-- Generator: Adobe Illustrator 29.5.0, SVG Export Plug-In . SVG Version: 2.1.0 Build 137)  -->
  <path id="highlight1" d="M361.928,463.161H64.787v-147.266c99.047.303,198.094.606,297.141.909v146.357Z" fill="#f1e1ff"/>
  <path id="highlight2" d="M361.928,315.895H64.787C163.834,218.929,262.881,121.964,361.928,24.999v290.896Z" fill="#f1e1ff"/>
  <line x1="53.223" y1="315.895" x2="375" y2="315.895" fill="none" stroke="#ccc"/>
  <line x1="53.223" y1="169.992" x2="375" y2="169.992" fill="none" stroke="#ccc"/>
  <line x1="53.223" y1="463.161" x2="375" y2="463.161" fill="none" stroke="#ccc"/>
  <line x1="138.91" y1="499.977" x2="138.91" fill="none" stroke="#ccc"/>
  <line x1="213.321" y1="499.977" x2="213.321" fill="none" stroke="#ccc"/>
  <line x1="287.732" y1="499.977" x2="287.732" fill="none" stroke="#ccc"/>
  <line x1="53.223" y1="24.09" x2="375" y2="24.09" fill="none" stroke="#ccc"/>
  <line x1="64.499" y1="499.977" x2="64.499" fill="none" stroke="#ccc"/>
  <line x1="362.143" y1="499.977" x2="362.143" fill="none" stroke="#ccc"/>
  <circle id="powerposedot" cx="343.188" cy="272.785" r="1.5"/>
  <g id="powerposepath">
    <path d="M332.264,232.262c-.404,1.546-3.378,13.447,0,25.323.804,2.825,1.802,5.071,2.795,6.829" fill="none" stroke="#000" stroke-miterlimit="10"/>
    <path d="M338.701,269.225c-2.534-1.659-6.074-3.425-8.903-4.051l4.848-1.441,2.803-4.208c-.235,2.888.412,6.791,1.252,9.7Z"/>
  </g>
  <g id="replicationline">
    <line x1="66.798" y1="315.895" x2="361.928" y2="24.999"/>
    <g>
      <line x1="66.798" y1="315.895" x2="68.934" y2="313.789" fill="none" stroke="#000" stroke-miterlimit="10"/>
      <line x1="73.15" y1="309.634" x2="357.684" y2="29.182" fill="none" stroke="#000" stroke-dasharray="5.919 5.919" stroke-miterlimit="10"/>
      <line x1="359.791" y1="27.105" x2="361.928" y2="24.999" fill="none" stroke="#000" stroke-miterlimit="10"/>
    </g>
  </g>
  <g id="otherreplication">
    <circle cx="-636.704" cy="345.744" r="1.5"/>
    <circle cx="-636.704" cy="386.577" r="1.5"/>
    <circle cx="-630.488" cy="384.244" r="1.5"/>
    <circle cx="-643.485" cy="365.577" r="1.5"/>
    <circle cx="-636.704" cy="311.91" r="1.5"/>
    <circle cx="-593.189" cy="251.244" r="1.5"/>
    <circle cx="-627.097" cy="371.41" r="1.5"/>
    <circle cx="-576.235" cy="303.744" r="1.5"/>
    <circle cx="-650.832" cy="345.744" r="1.5"/>
    <circle cx="-578.496" cy="358.577" r="1.5"/>
    <circle cx="-494.857" cy="279.244" r="1.5"/>
    <circle cx="-623.141" cy="370.244" r="1.5"/>
    <circle cx="-586.408" cy="327.077" r="1.5"/>
    <circle cx="-611.273" cy="342.244" r="1.5"/>
    <circle cx="-630.488" cy="353.91" r="1.5"/>
    <circle cx="-658.744" cy="383.077" r="1.5"/>
    <circle cx="-577.366" cy="297.91" r="1.5"/>
    <circle cx="-663.83" cy="386.577" r="1.5"/>
    <circle cx="-553.63" cy="68.077" r="1.5"/>
    <circle cx="-662.7" cy="352.744" r="1.5"/>
    <circle cx="-347.925" cy="68.077" r="1.5"/>
    <circle cx="-566.628" cy="386.577" r="1.5"/>
    <circle cx="-616.359" cy="334.077" r="1.5"/>
    <circle cx="-712.996" cy="357.41" r="1.5"/>
    <circle cx="-516.897" cy="227.91" r="1.5"/>
    <circle cx="-645.746" cy="372.577" r="1.5"/>
    <circle cx="-611.838" cy="356.244" r="1.5"/>
    <circle cx="-691.521" cy="341.077" r="1.5"/>
    <circle cx="-627.097" cy="407.577" r="1.5"/>
    <circle cx="-669.481" cy="364.41" r="1.5"/>
    <circle cx="-642.355" cy="381.91" r="1.5"/>
    <circle cx="-704.519" cy="400.577" r="1.5"/>
    <circle cx="-704.519" cy="448.41" r="1.5"/>
    <circle cx="-704.519" cy="390.077" r="1.5"/>
    <circle cx="-704.519" cy="435.577" r="1.5"/>
    <circle cx="-683.044" cy="372.577" r="1.5"/>
    <circle cx="-687" cy="385.41" r="1.5"/>
    <circle cx="-698.868" cy="363.244" r="1.5"/>
    <circle cx="-663.83" cy="378.41" r="1.5"/>
    <circle cx="-659.874" cy="391.244" r="1.5"/>
    <circle cx="-664.96" cy="346.91" r="1.5"/>
    <circle cx="-631.053" cy="384.244" r="1.5"/>
    <circle cx="-631.053" cy="401.744" r="1.5"/>
    <circle cx="-631.053" cy="376.077" r="1.5"/>
    <circle cx="-658.179" cy="339.91" r="1.5"/>
    <circle cx="-599.971" cy="390.077" r="1.5"/>
    <circle cx="-619.75" cy="395.91" r="1.5"/>
    <circle cx="-594.885" cy="397.077" r="1.5"/>
    <circle cx="-706.779" cy="430.91" r="1.5"/>
    <circle cx="-507.855" cy="377.244" r="1.5"/>
    <circle cx="-507.855" cy="590.744" r="1.5"/>
    <circle cx="-567.759" cy="401.744" r="1.5"/>
    <circle cx="-635.009" cy="384.244" r="1.5"/>
    <circle cx="-558.717" cy="380.744" r="1.5"/>
    <circle cx="-625.401" cy="412.244" r="1.5"/>
    <circle cx="-680.219" cy="68.077" r="1.5"/>
    <circle cx="-607.317" cy="490.41" r="1.5"/>
    <circle cx="-674.567" cy="412.244" r="1.5"/>
    <circle cx="-629.922" cy="387.744" r="1.5"/>
    <circle cx="-619.185" cy="300.244" r="1.5"/>
    <circle cx="-565.498" cy="68.077" r="1.5"/>
    <circle cx="-566.628" cy="314.244" r="1.5"/>
    <circle cx="-539.502" cy="293.244" r="1.5"/>
    <circle cx="-710.17" cy="392.41" r="1.5"/>
    <circle cx="-692.086" cy="178.91" r="1.5"/>
    <circle cx="-659.309" cy="393.577" r="1.5"/>
    <circle cx="-665.525" cy="376.077" r="1.5"/>
    <circle cx="-619.185" cy="300.244" r="1.5"/>
    <circle cx="-622.011" cy="365.577" r="1.5"/>
    <circle cx="-622.576" cy="286.244" r="1.5"/>
    <circle cx="-694.347" cy="68.077" r="1.5"/>
    <circle cx="-673.437" cy="288.577" r="1.5"/>
    <circle cx="-594.319" cy="222.077" r="1.5"/>
    <circle cx="-632.183" cy="405.244" r="1.5"/>
    <circle cx="-610.708" cy="181.244" r="1.5"/>
    <circle cx="-538.372" cy="254.744" r="1.5"/>
    <circle cx="-624.271" cy="259.41" r="1.5"/>
    <circle cx="-606.752" cy="455.41" r="1.5"/>
    <circle cx="-660.439" cy="381.91" r="1.5"/>
    <circle cx="-663.265" cy="378.41" r="1.5"/>
    <circle cx="-650.267" cy="68.077" r="1.5"/>
    <circle cx="-595.45" cy="346.91" r="1.5"/>
    <circle cx="-668.351" cy="362.077" r="1.5"/>
    <circle cx="-597.71" cy="255.91" r="1.5"/>
    <circle cx="-599.971" cy="304.91" r="1.5"/>
    <circle cx="-606.187" cy="328.244" r="1.5"/>
    <circle cx="-675.132" cy="342.244" r="1.5"/>
    <circle cx="-689.826" cy="374.91" r="1.5"/>
    <circle cx="-631.618" cy="359.744" r="1.5"/>
    <circle cx="-636.704" cy="369.077" r="1.5"/>
    <circle cx="-585.277" cy="467.077" r="1.5"/>
    <circle cx="-606.187" cy="359.744" r="1.5"/>
    <circle cx="-644.051" cy="360.91" r="1.5"/>
    <circle cx="-665.525" cy="358.577" r="1.5"/>
    <circle cx="-585.277" cy="301.41" r="1.5"/>
    <circle cx="-477.904" cy="264.077" r="1.5"/>
    <circle cx="-436.084" cy="139.244" r="1.5"/>
    <circle cx="-446.822" cy="240.744" r="1.5"/>
    <circle cx="-505.595" cy="222.077" r="1.5"/>
    <circle cx="-570.019" cy="300.244" r="1.5"/>
    <circle cx="-563.803" cy="268.744" r="1.5"/>
    <circle cx="-420.826" cy="163.744" r="1.5"/>
    <circle cx="-466.601" cy="236.077" r="1.5"/>
    <circle cx="-508.986" cy="289.744" r="1.5"/>
    <circle cx="-430.433" cy="170.744" r="1.5"/>
    <circle cx="-574.54" cy="343.41" r="1.5"/>
    <circle cx="-705.649" cy="384.244" r="1.5"/>
    <circle cx="-514.072" cy="321.244" r="1.5"/>
    <circle cx="-581.887" cy="318.91" r="1.5"/>
    <circle cx="-435.519" cy="148.577" r="1.5"/>
    <circle cx="-443.431" cy="145.077" r="1.5"/>
    <circle cx="-487.511" cy="180.077" r="1.5"/>
    <circle cx="-599.971" cy="287.41" r="1.5"/>
    <circle cx="-375.616" cy="124.077" r="1.5"/>
    <circle cx="-427.042" cy="92.577" r="1.5"/>
    <circle cx="-441.736" cy="220.91" r="1.5"/>
    <circle cx="-537.242" cy="254.744" r="1.5"/>
    <circle cx="-631.053" cy="230.244" r="1.5"/>
    <circle cx="-478.469" cy="194.077" r="1.5"/>
    <circle cx="-408.393" cy="180.077" r="1.5"/>
    <circle cx="-582.452" cy="323.577" r="1.5"/>
    <circle cx="-471.122" cy="174.244" r="1.5"/>
    <circle cx="-564.933" cy="268.744" r="1.5"/>
    <circle cx="-648.006" cy="371.41" r="1.5"/>
    <circle cx="-648.006" cy="367.91" r="1.5"/>
    <circle cx="-599.406" cy="288.577" r="1.5"/>
    <circle cx="-599.406" cy="350.41" r="1.5"/>
    <circle cx="-336.057" cy="71.577" r="1.5"/>
    <circle cx="-398.786" cy="185.91" r="1.5"/>
    <circle cx="-543.458" cy="339.91" r="1.5"/>
    <circle cx="-469.427" cy="288.577" r="1.5"/>
    <circle cx="-408.393" cy="268.744" r="1.5"/>
    <circle cx="-458.124" cy="328.244" r="1.5"/>
    <circle cx="-471.687" cy="236.077" r="1.5"/>
    <circle cx="-480.729" cy="229.077" r="1.5"/>
    <circle cx="-486.381" cy="311.91" r="1.5"/>
    <circle cx="-503.899" cy="223.244" r="1.5"/>
    <circle cx="-560.412" cy="311.91" r="1.5"/>
    <circle cx="-668.916" cy="366.744" r="1.5"/>
    <circle cx="-668.916" cy="363.244" r="1.5"/>
    <circle cx="-668.916" cy="362.077" r="1.5"/>
    <circle cx="-619.75" cy="371.41" r="1.5"/>
    <circle cx="-619.75" cy="307.244" r="1.5"/>
    <circle cx="-668.916" cy="369.077" r="1.5"/>
    <circle cx="-619.75" cy="371.41" r="1.5"/>
    <circle cx="-619.75" cy="350.41" r="1.5"/>
    <circle cx="-668.916" cy="379.577" r="1.5"/>
    <circle cx="-668.916" cy="374.91" r="1.5"/>
    <circle cx="-668.916" cy="376.077" r="1.5"/>
    <circle cx="-668.916" cy="371.41" r="1.5"/>
    <circle cx="-668.916" cy="379.577" r="1.5"/>
    <circle cx="-653.658" cy="372.577" r="1.5"/>
    <circle cx="-651.962" cy="372.577" r="1.5"/>
    <circle cx="-653.658" cy="366.744" r="1.5"/>
    <circle cx="-651.962" cy="367.91" r="1.5"/>
    <circle cx="-653.658" cy="371.41" r="1.5"/>
    <circle cx="-651.962" cy="372.577" r="1.5"/>
    <circle cx="-653.658" cy="372.577" r="1.5"/>
    <circle cx="-659.309" cy="377.244" r="1.5"/>
    <circle cx="-455.864" cy="239.577" r="1.5"/>
    <circle cx="-654.788" cy="281.577" r="1.5"/>
    <circle cx="-527.635" cy="330.577" r="1.5"/>
    <circle cx="-607.317" cy="184.744" r="1.5"/>
    <circle cx="-679.088" cy="339.91" r="1.5"/>
    <circle cx="-599.406" cy="252.41" r="1.5"/>
    <circle cx="-579.061" cy="321.244" r="1.5"/>
    <circle cx="-560.412" cy="281.577" r="1.5"/>
    <circle cx="-645.746" cy="334.077" r="1.5"/>
    <circle cx="-629.357" cy="327.077" r="1.5"/>
    <circle cx="-645.181" cy="353.91" r="1.5"/>
    <circle cx="-466.601" cy="313.077" r="1.5"/>
    <circle cx="-460.385" cy="295.577" r="1.5"/>
    <circle cx="-601.666" cy="328.244" r="1.5"/>
    <circle cx="-388.614" cy="320.077" r="1.5"/>
    <circle cx="-628.792" cy="294.41" r="1.5"/>
    <circle cx="-550.805" cy="292.077" r="1.5"/>
    <circle cx="-469.427" cy="338.744" r="1.5"/>
    <circle cx="-623.141" cy="357.41" r="1.5"/>
    <circle cx="-616.925" cy="310.744" r="1.5"/>
    <circle cx="-397.656" cy="251.244" r="1.5"/>
    <circle cx="-580.756" cy="352.744" r="1.5"/>
    <circle cx="-561.542" cy="310.744" r="1.5"/>
    <circle cx="-570.584" cy="357.41" r="1.5"/>
    <circle cx="-568.324" cy="266.41" r="1.5"/>
    <circle cx="-615.229" cy="315.41" r="1.5"/>
    <circle cx="-595.45" cy="334.077" r="1.5"/>
    <circle cx="-605.622" cy="360.91" r="1.5"/>
    <circle cx="-560.977" cy="296.744" r="1.5"/>
    <circle cx="-650.267" cy="348.077" r="1.5"/>
    <circle cx="-643.485" cy="365.577" r="1.5"/>
    <circle cx="-652.527" cy="324.744" r="1.5"/>
    <circle cx="-632.748" cy="367.91" r="1.5"/>
    <circle cx="-414.045" cy="195.244" r="1.5"/>
    <circle cx="-419.131" cy="149.744" r="1.5"/>
    <circle cx="-616.359" cy="341.077" r="1.5"/>
    <circle cx="-616.359" cy="315.41" r="1.5"/>
    <circle cx="-588.668" cy="300.244" r="1.5"/>
    <circle cx="-670.611" cy="334.077" r="1.5"/>
    <circle cx="-670.611" cy="339.91" r="1.5"/>
    <circle cx="-670.611" cy="381.91" r="1.5"/>
    <circle cx="-670.611" cy="381.91" r="1.5"/>
    <circle cx="-670.611" cy="363.244" r="1.5"/>
    <circle cx="-588.668" cy="356.244" r="1.5"/>
    <circle cx="-517.462" cy="260.577" r="1.5"/>
    <circle cx="-331.536" cy="124.077" r="1.5"/>
    <circle cx="-603.927" cy="344.577" r="1.5"/>
    <circle cx="-505.595" cy="275.744" r="1.5"/>
    <circle cx="-446.257" cy="251.244" r="1.5"/>
    <circle cx="-625.967" cy="332.91" r="1.5"/>
    <circle cx="-389.744" cy="122.91" r="1.5"/>
    <circle cx="-463.21" cy="280.41" r="1.5"/>
    <circle cx="-474.513" cy="267.577" r="1.5"/>
    <circle cx="-534.981" cy="202.244" r="1.5"/>
    <circle cx="-534.416" cy="276.91" r="1.5"/>
    <circle cx="-635.009" cy="355.077" r="1.5"/>
    <circle cx="-564.933" cy="343.41" r="1.5"/>
    <circle cx="-446.257" cy="199.91" r="1.5"/>
    <circle cx="-480.729" cy="178.91" r="1.5"/>
    <circle cx="-403.307" cy="210.41" r="1.5"/>
    <circle cx="-537.807" cy="227.91" r="1.5"/>
    <circle cx="-566.628" cy="253.577" r="1.5"/>
    <circle cx="-566.628" cy="253.577" r="1.5"/>
    <circle cx="-584.712" cy="274.577" r="1.5"/>
    <circle cx="-562.107" cy="328.244" r="1.5"/>
    <circle cx="-614.664" cy="345.744" r="1.5"/>
    <circle cx="-648.006" cy="351.577" r="1.5"/>
    <circle cx="-638.399" cy="363.244" r="1.5"/>
    <circle cx="-555.891" cy="372.577" r="1.5"/>
    <circle cx="-479.599" cy="194.077" r="1.5"/>
    <circle cx="-531.591" cy="197.577" r="1.5"/>
    <circle cx="-384.093" cy="142.744" r="1.5"/>
    <circle cx="-560.412" cy="321.244" r="1.5"/>
    <circle cx="-627.097" cy="369.077" r="1.5"/>
    <circle cx="-638.964" cy="317.744" r="1.5"/>
    <circle cx="-620.315" cy="321.244" r="1.5"/>
    <circle cx="-527.635" cy="121.744" r="1.5"/>
    <circle cx="-527.635" cy="327.077" r="1.5"/>
    <circle cx="-444.561" cy="181.244" r="1.5"/>
    <circle cx="-574.54" cy="343.41" r="1.5"/>
    <circle cx="-428.173" cy="149.744" r="1.5"/>
    <circle cx="-505.595" cy="220.91" r="1.5"/>
    <circle cx="-388.049" cy="210.41" r="1.5"/>
    <circle cx="-606.752" cy="337.577" r="1.5"/>
    <circle cx="-622.576" cy="286.244" r="1.5"/>
    <circle cx="-405.003" cy="268.744" r="1.5"/>
    <circle cx="-597.71" cy="314.244" r="1.5"/>
    <circle cx="-480.164" cy="329.41" r="1.5"/>
    <circle cx="-467.731" cy="118.244" r="1.5"/>
    <circle cx="-609.578" cy="321.244" r="1.5"/>
    <circle cx="-558.717" cy="259.41" r="1.5"/>
    <circle cx="-608.448" cy="330.577" r="1.5"/>
    <circle cx="-451.343" cy="183.577" r="1.5"/>
    <circle cx="-530.46" cy="196.41" r="1.5"/>
    <circle cx="-329.841" cy="157.91" r="1.5"/>
    <circle cx="-512.376" cy="315.41" r="1.5"/>
    <circle cx="-540.067" cy="254.744" r="1.5"/>
    <circle cx="-432.694" cy="265.244" r="1.5"/>
    <circle cx="-388.049" cy="210.41" r="1.5"/>
    <circle cx="-328.711" cy="195.244" r="1.5"/>
    <circle cx="-549.675" cy="229.077" r="1.5"/>
    <circle cx="-535.546" cy="226.744" r="1.5"/>
    <circle cx="-524.244" cy="281.577" r="1.5"/>
    <circle cx="-589.798" cy="279.244" r="1.5"/>
    <circle cx="-437.78" cy="168.41" r="1.5"/>
    <circle cx="-572.28" cy="255.91" r="1.5"/>
    <circle cx="-542.893" cy="187.077" r="1.5"/>
    <circle cx="-545.719" cy="299.077" r="1.5"/>
    <circle cx="-486.946" cy="307.244" r="1.5"/>
    <circle cx="-415.74" cy="220.91" r="1.5"/>
    <circle cx="-579.061" cy="260.577" r="1.5"/>
    <circle cx="-553.63" cy="258.244" r="1.5"/>
    <circle cx="-617.49" cy="268.744" r="1.5"/>
    <circle cx="-562.672" cy="300.244" r="1.5"/>
    <circle cx="-602.231" cy="225.577" r="1.5"/>
    <circle cx="-602.231" cy="293.244" r="1.5"/>
    <circle cx="-602.231" cy="287.41" r="1.5"/>
    <circle cx="-602.231" cy="248.91" r="1.5"/>
    <circle cx="-602.231" cy="261.744" r="1.5"/>
    <circle cx="-602.231" cy="296.744" r="1.5"/>
    <circle cx="-602.231" cy="297.91" r="1.5"/>
    <circle cx="-602.231" cy="268.744" r="1.5"/>
    <circle cx="-602.231" cy="315.41" r="1.5"/>
    <circle cx="-602.231" cy="311.91" r="1.5"/>
    <circle cx="-602.231" cy="234.91" r="1.5"/>
    <circle cx="-602.231" cy="191.744" r="1.5"/>
    <circle cx="-636.704" cy="332.91" r="1.5"/>
    <circle cx="-584.712" cy="307.244" r="1.5"/>
    <circle cx="-589.798" cy="411.077" r="1.5"/>
    <circle cx="-589.798" cy="395.91" r="1.5"/>
    <circle cx="-559.847" cy="381.91" r="1.5"/>
    <circle cx="-653.093" cy="342.244" r="1.5"/>
    <circle cx="-657.614" cy="401.744" r="1.5"/>
    <circle cx="-558.717" cy="500.91" r="1.5"/>
    <circle cx="-558.717" cy="328.244" r="1.5"/>
    <circle cx="-657.614" cy="412.244" r="1.5"/>
    <circle cx="-558.717" cy="397.077" r="1.5"/>
    <circle cx="-584.712" cy="367.91" r="1.5"/>
    <circle cx="-547.414" cy="371.41" r="1.5"/>
    <circle cx="-589.798" cy="426.244" r="1.5"/>
    <circle cx="-619.75" cy="394.744" r="1.5"/>
    <circle cx="-477.904" cy="344.577" r="1.5"/>
    <circle cx="-471.122" cy="317.744" r="1.5"/>
    <circle cx="-545.154" cy="462.41" r="1.5"/>
    <circle cx="-623.706" cy="393.577" r="1.5"/>
    <circle cx="-531.025" cy="348.077" r="1.5"/>
    <circle cx="-429.868" cy="349.244" r="1.5"/>
    <circle cx="-490.902" cy="428.577" r="1.5"/>
    <circle cx="-491.467" cy="261.744" r="1.5"/>
    <circle cx="-625.401" cy="385.41" r="1.5"/>
    <circle cx="-568.889" cy="359.744" r="1.5"/>
    <circle cx="-576.235" cy="339.91" r="1.5"/>
    <circle cx="-624.836" cy="408.744" r="1.5"/>
    <circle cx="-563.803" cy="401.744" r="1.5"/>
    <circle cx="-631.618" cy="342.244" r="1.5"/>
    <circle cx="-632.748" cy="362.077" r="1.5"/>
    <circle cx="-564.368" cy="366.744" r="1.5"/>
    <circle cx="-563.803" cy="405.244" r="1.5"/>
    <circle cx="-648.006" cy="380.744" r="1.5"/>
    <circle cx="-627.097" cy="393.577" r="1.5"/>
    <circle cx="-605.622" cy="367.91" r="1.5"/>
    <circle cx="-545.154" cy="355.077" r="1.5"/>
    <circle cx="-542.893" cy="388.91" r="1.5"/>
    <circle cx="-640.66" cy="391.244" r="1.5"/>
    <circle cx="-625.967" cy="367.91" r="1.5"/>
    <circle cx="-632.183" cy="377.244" r="1.5"/>
    <circle cx="-607.883" cy="425.077" r="1.5"/>
    <circle cx="-594.885" cy="304.91" r="1.5"/>
    <circle cx="-557.021" cy="387.744" r="1.5"/>
    <circle cx="-588.103" cy="435.577" r="1.5"/>
    <circle cx="-563.803" cy="404.077" r="1.5"/>
    <circle cx="-562.672" cy="464.744" r="1.5"/>
    <circle cx="-625.967" cy="358.577" r="1.5"/>
    <circle cx="-493.727" cy="362.077" r="1.5"/>
    <circle cx="-514.637" cy="538.244" r="1.5"/>
    <circle cx="-629.357" cy="407.577" r="1.5"/>
    <circle cx="-563.238" cy="310.744" r="1.5"/>
    <circle cx="-561.542" cy="402.91" r="1.5"/>
    <circle cx="-516.332" cy="358.577" r="1.5"/>
    <circle cx="-621.446" cy="377.244" r="1.5"/>
    <circle cx="-455.864" cy="231.41" r="1.5"/>
    <circle cx="-639.53" cy="401.744" r="1.5"/>
    <circle cx="-639.53" cy="386.577" r="1.5"/>
    <circle cx="-427.042" cy="324.744" r="1.5"/>
    <circle cx="-555.326" cy="391.244" r="1.5"/>
    <circle cx="-372.225" cy="352.744" r="1.5"/>
    <circle cx="-543.458" cy="356.244" r="1.5"/>
    <circle cx="-590.929" cy="402.91" r="1.5"/>
    <circle cx="-582.452" cy="327.077" r="1.5"/>
    <circle cx="-582.452" cy="359.744" r="1.5"/>
    <circle cx="-635.009" cy="391.244" r="1.5"/>
    <circle cx="-637.834" cy="383.077" r="1.5"/>
    <circle cx="-410.089" cy="397.077" r="1.5"/>
    <circle cx="-410.089" cy="385.41" r="1.5"/>
    <circle cx="-358.097" cy="496.244" r="1.5"/>
    <circle cx="-462.645" cy="496.244" r="1.5"/>
    <circle cx="-527.635" cy="351.577" r="1.5"/>
    <circle cx="-646.876" cy="408.744" r="1.5"/>
    <circle cx="-577.931" cy="385.41" r="1.5"/>
    <circle cx="-577.931" cy="429.744" r="1.5"/>
    <circle cx="-603.927" cy="407.577" r="1.5"/>
    <circle cx="-603.927" cy="376.077" r="1.5"/>
    <circle cx="-560.977" cy="450.744" r="1.5"/>
    <circle cx="-614.664" cy="559.244" r="1.5"/>
    <circle cx="-619.75" cy="463.577" r="1.5"/>
    <circle cx="-596.58" cy="357.41" r="1.5"/>
    <circle cx="-576.235" cy="369.077" r="1.5"/>
    <circle cx="-619.75" cy="376.077" r="1.5"/>
    <circle cx="-668.916" cy="384.244" r="1.5"/>
    <circle cx="-668.916" cy="380.744" r="1.5"/>
    <circle cx="-619.75" cy="377.244" r="1.5"/>
    <circle cx="-668.916" cy="385.41" r="1.5"/>
    <circle cx="-619.75" cy="393.577" r="1.5"/>
    <circle cx="-619.75" cy="387.744" r="1.5"/>
    <circle cx="-619.75" cy="392.41" r="1.5"/>
    <circle cx="-619.75" cy="426.244" r="1.5"/>
    <circle cx="-619.75" cy="413.41" r="1.5"/>
    <circle cx="-619.75" cy="419.244" r="1.5"/>
    <circle cx="-671.177" cy="463.577" r="1.5"/>
    <circle cx="-659.309" cy="440.244" r="1.5"/>
    <circle cx="-659.309" cy="384.244" r="1.5"/>
    <circle cx="-671.177" cy="523.077" r="1.5"/>
    <circle cx="-659.309" cy="488.077" r="1.5"/>
    <circle cx="-659.309" cy="379.577" r="1.5"/>
    <circle cx="-671.177" cy="387.744" r="1.5"/>
    <circle cx="-659.309" cy="385.41" r="1.5"/>
    <circle cx="-659.309" cy="381.91" r="1.5"/>
    <circle cx="-671.177" cy="497.41" r="1.5"/>
    <circle cx="-651.962" cy="381.91" r="1.5"/>
    <circle cx="-659.309" cy="483.41" r="1.5"/>
    <circle cx="-670.611" cy="414.577" r="1.5"/>
    <circle cx="-654.788" cy="369.077" r="1.5"/>
    <circle cx="-646.876" cy="388.91" r="1.5"/>
    <circle cx="-487.511" cy="498.577" r="1.5"/>
    <circle cx="-623.141" cy="498.577" r="1.5"/>
    <circle cx="-597.145" cy="388.91" r="1.5"/>
    <circle cx="-618.62" cy="395.91" r="1.5"/>
    <circle cx="-640.66" cy="387.744" r="1.5"/>
    <circle cx="-644.051" cy="380.744" r="1.5"/>
    <circle cx="-606.752" cy="387.744" r="1.5"/>
    <circle cx="-616.925" cy="379.577" r="1.5"/>
    <circle cx="-636.139" cy="378.41" r="1.5"/>
    <circle cx="-555.326" cy="388.91" r="1.5"/>
    <circle cx="-616.925" cy="391.244" r="1.5"/>
    <circle cx="-614.664" cy="387.744" r="1.5"/>
    <circle cx="-611.838" cy="393.577" r="1.5"/>
    <circle cx="-637.269" cy="392.41" r="1.5"/>
    <circle cx="-639.53" cy="372.577" r="1.5"/>
    <circle cx="-646.311" cy="394.744" r="1.5"/>
    <circle cx="-631.618" cy="401.744" r="1.5"/>
    <circle cx="-610.708" cy="385.41" r="1.5"/>
    <circle cx="-552.5" cy="384.244" r="1.5"/>
    <circle cx="-576.235" cy="374.91" r="1.5"/>
    <circle cx="-545.719" cy="359.744" r="1.5"/>
    <circle cx="-628.227" cy="386.577" r="1.5"/>
    <circle cx="-648.006" cy="390.077" r="1.5"/>
    <circle cx="-613.534" cy="362.077" r="1.5"/>
    <circle cx="-651.962" cy="391.244" r="1.5"/>
    <circle cx="-537.807" cy="590.744" r="1.5"/>
    <circle cx="-650.267" cy="381.91" r="1.5"/>
    <circle cx="-627.097" cy="377.244" r="1.5"/>
    <circle cx="-627.097" cy="376.077" r="1.5"/>
    <circle cx="-661.569" cy="402.91" r="1.5"/>
    <circle cx="-636.704" cy="384.244" r="1.5"/>
    <circle cx="-584.712" cy="415.744" r="1.5"/>
    <circle cx="-556.456" cy="374.91" r="1.5"/>
    <circle cx="-605.057" cy="369.077" r="1.5"/>
    <circle cx="-651.397" cy="409.91" r="1.5"/>
    <circle cx="-558.717" cy="393.577" r="1.5"/>
    <circle cx="-670.611" cy="385.41" r="1.5"/>
    <circle cx="-670.611" cy="388.91" r="1.5"/>
    <circle cx="-625.401" cy="372.577" r="1.5"/>
    <circle cx="-632.748" cy="381.91" r="1.5"/>
    <circle cx="-607.317" cy="371.41" r="1.5"/>
    <circle cx="-599.406" cy="404.077" r="1.5"/>
    <circle cx="-607.317" cy="400.577" r="1.5"/>
    <circle cx="-559.847" cy="407.577" r="1.5"/>
    <circle cx="-398.786" cy="423.91" r="1.5"/>
    <circle cx="-658.744" cy="384.244" r="1.5"/>
    <circle cx="-607.883" cy="397.077" r="1.5"/>
    <circle cx="-568.324" cy="376.077" r="1.5"/>
    <circle cx="-655.353" cy="385.41" r="1.5"/>
    <circle cx="-609.013" cy="387.744" r="1.5"/>
    <circle cx="-621.446" cy="390.077" r="1.5"/>
    <circle cx="-533.851" cy="392.41" r="1.5"/>
    <circle cx="-676.828" cy="398.244" r="1.5"/>
    <circle cx="-653.658" cy="397.077" r="1.5"/>
    <circle cx="-605.622" cy="398.244" r="1.5"/>
    <circle cx="-576.235" cy="405.244" r="1.5"/>
    <circle cx="-645.746" cy="413.41" r="1.5"/>
    <circle cx="-591.494" cy="387.744" r="1.5"/>
    <circle cx="-599.406" cy="392.41" r="1.5"/>
    <circle cx="-524.244" cy="376.077" r="1.5"/>
    <circle cx="-507.29" cy="400.577" r="1.5"/>
    <circle cx="-619.75" cy="374.91" r="1.5"/>
    <circle cx="-614.664" cy="372.577" r="1.5"/>
    <circle cx="-555.326" cy="352.744" r="1.5"/>
    <circle cx="-479.034" cy="381.91" r="1.5"/>
    <circle cx="-536.677" cy="374.91" r="1.5"/>
    <circle cx="-536.677" cy="223.244" r="1.5"/>
    <circle cx="-527.635" cy="490.41" r="1.5"/>
    <circle cx="-648.006" cy="365.577" r="1.5"/>
    <circle cx="-333.797" cy="412.244" r="1.5"/>
    <circle cx="-521.983" cy="397.077" r="1.5"/>
    <circle cx="-590.364" cy="405.244" r="1.5"/>
    <circle cx="-578.496" cy="402.91" r="1.5"/>
    <circle cx="-516.897" cy="350.41" r="1.5"/>
    <circle cx="-506.16" cy="356.244" r="1.5"/>
    <circle cx="-571.714" cy="373.744" r="1.5"/>
    <circle cx="-515.202" cy="414.577" r="1.5"/>
    <circle cx="-598.84" cy="376.077" r="1.5"/>
    <circle cx="-633.878" cy="380.744" r="1.5"/>
    <circle cx="-595.45" cy="346.91" r="1.5"/>
    <circle cx="-609.578" cy="391.244" r="1.5"/>
    <circle cx="-616.925" cy="373.744" r="1.5"/>
    <circle cx="-587.538" cy="372.577" r="1.5"/>
    <circle cx="-455.864" cy="332.91" r="1.5"/>
    <circle cx="-623.706" cy="367.91" r="1.5"/>
    <circle cx="-476.208" cy="357.41" r="1.5"/>
    <circle cx="-499.944" cy="364.41" r="1.5"/>
    <circle cx="-562.672" cy="300.244" r="1.5"/>
    <circle cx="-627.662" cy="371.41" r="1.5"/>
    <circle cx="-576.801" cy="399.41" r="1.5"/>
    <circle cx="-627.097" cy="395.91" r="1.5"/>
    <circle cx="-633.878" cy="422.744" r="1.5"/>
    <circle cx="-633.878" cy="406.41" r="1.5"/>
    <circle cx="-627.097" cy="222.077" r="1.5"/>
    <circle cx="-575.67" cy="374.91" r="1.5"/>
    <circle cx="-542.328" cy="430.91" r="1.5"/>
    <circle cx="-584.712" cy="391.244" r="1.5"/>
    <circle cx="-585.277" cy="467.077" r="1.5"/>
    <circle cx="-662.135" cy="383.077" r="1.5"/>
    <circle cx="-633.313" cy="349.244" r="1.5"/>
    <circle cx="-606.752" cy="335.244" r="1.5"/>
    <circle cx="-625.967" cy="359.744" r="1.5"/>
    <circle cx="-616.925" cy="362.077" r="1.5"/>
    <circle cx="-525.374" cy="370.244" r="1.5"/>
    <circle cx="-555.891" cy="266.41" r="1.5"/>
    <circle cx="-597.145" cy="282.744" r="1.5"/>
    <circle cx="-597.145" cy="369.077" r="1.5"/>
    <circle cx="-612.404" cy="332.91" r="1.5"/>
    <circle cx="-624.836" cy="401.744" r="1.5"/>
    <circle cx="-612.969" cy="352.744" r="1.5"/>
    <circle cx="-632.183" cy="369.077" r="1.5"/>
    <circle cx="-644.051" cy="360.91" r="1.5"/>
    <circle cx="122.7" cy="273.845" r="1.5"/>
    <circle cx="122.7" cy="310.965" r="1.5"/>
    <circle cx="127.337" cy="308.844" r="1.5"/>
    <circle cx="117.641" cy="291.875" r="1.5"/>
    <circle cx="122.7" cy="243.089" r="1.5"/>
    <circle cx="155.162" cy="187.94" r="1.5"/>
    <circle cx="129.867" cy="297.177" r="1.5"/>
    <circle cx="167.809" cy="235.665" r="1.5"/>
    <circle cx="112.16" cy="273.845" r="1.5"/>
    <circle cx="166.123" cy="285.511" r="1.5"/>
    <circle cx="228.517" cy="213.393" r="1.5"/>
    <circle cx="132.818" cy="296.117" r="1.5"/>
    <circle cx="160.221" cy="256.876" r="1.5"/>
    <circle cx="141.671" cy="270.664" r="1.5"/>
    <circle cx="127.337" cy="281.269" r="1.5"/>
    <circle cx="106.258" cy="307.783" r="1.5"/>
    <circle cx="166.966" cy="230.362" r="1.5"/>
    <circle cx="102.464" cy="310.965" r="1.5"/>
    <circle cx="184.673" cy="21.433" r="1.5"/>
    <circle cx="103.307" cy="280.209" r="1.5"/>
    <circle cx="338.129" cy="21.433" r="1.5"/>
    <circle cx="174.976" cy="310.965" r="1.5"/>
    <circle cx="137.877" cy="263.24" r="1.5"/>
    <circle cx="65.786" cy="284.451" r="1.5"/>
    <circle cx="212.076" cy="166.729" r="1.5"/>
    <circle cx="115.955" cy="298.238" r="1.5"/>
    <circle cx="141.25" cy="283.39" r="1.5"/>
    <circle cx="81.806" cy="269.603" r="1.5"/>
    <circle cx="129.867" cy="330.055" r="1.5"/>
    <circle cx="98.248" cy="290.814" r="1.5"/>
    <circle cx="118.484" cy="306.722" r="1.5"/>
    <circle cx="72.11" cy="323.691" r="1.5"/>
    <circle cx="72.11" cy="367.174" r="1.5"/>
    <circle cx="72.11" cy="314.146" r="1.5"/>
    <circle cx="72.11" cy="355.508" r="1.5"/>
    <circle cx="88.13" cy="298.238" r="1.5"/>
    <circle cx="85.179" cy="309.904" r="1.5"/>
    <circle cx="76.326" cy="289.754" r="1.5"/>
    <circle cx="102.464" cy="303.541" r="1.5"/>
    <circle cx="105.415" cy="315.207" r="1.5"/>
    <circle cx="101.621" cy="274.906" r="1.5"/>
    <circle cx="126.916" cy="308.844" r="1.5"/>
    <circle cx="126.916" cy="324.752" r="1.5"/>
    <circle cx="126.916" cy="301.42" r="1.5"/>
    <circle cx="106.68" cy="268.542" r="1.5"/>
    <circle cx="150.103" cy="314.146" r="1.5"/>
    <circle cx="135.348" cy="319.449" r="1.5"/>
    <circle cx="153.897" cy="320.51" r="1.5"/>
    <circle cx="70.424" cy="351.266" r="1.5"/>
    <circle cx="218.821" cy="302.48" r="1.5"/>
    <circle cx="218.821" cy="496.562" r="1.5"/>
    <circle cx="174.133" cy="324.752" r="1.5"/>
    <circle cx="123.965" cy="308.844" r="1.5"/>
    <circle cx="180.878" cy="305.662" r="1.5"/>
    <circle cx="131.132" cy="334.297" r="1.5"/>
    <circle cx="90.238" cy="21.433" r="1.5"/>
    <circle cx="144.622" cy="405.354" r="1.5"/>
    <circle cx="94.454" cy="334.297" r="1.5"/>
    <circle cx="127.759" cy="312.025" r="1.5"/>
    <circle cx="135.769" cy="232.483" r="1.5"/>
    <circle cx="175.819" cy="21.433" r="1.5"/>
    <circle cx="174.976" cy="245.21" r="1.5"/>
    <circle cx="195.212" cy="226.12" r="1.5"/>
    <circle cx="67.894" cy="316.267" r="1.5"/>
    <circle cx="81.385" cy="122.185" r="1.5"/>
    <circle cx="105.837" cy="317.328" r="1.5"/>
    <circle cx="101.199" cy="301.42" r="1.5"/>
    <circle cx="135.769" cy="232.483" r="1.5"/>
    <circle cx="133.661" cy="291.875" r="1.5"/>
    <circle cx="133.24" cy="219.757" r="1.5"/>
    <circle cx="79.699" cy="21.433" r="1.5"/>
    <circle cx="95.297" cy="221.878" r="1.5"/>
    <circle cx="154.319" cy="161.426" r="1.5"/>
    <circle cx="126.073" cy="327.934" r="1.5"/>
    <circle cx="142.093" cy="124.307" r="1.5"/>
    <circle cx="196.055" cy="191.122" r="1.5"/>
    <circle cx="131.975" cy="195.364" r="1.5"/>
    <circle cx="145.044" cy="373.538" r="1.5"/>
    <circle cx="104.994" cy="306.722" r="1.5"/>
    <circle cx="102.886" cy="303.541" r="1.5"/>
    <circle cx="112.582" cy="21.433" r="1.5"/>
    <circle cx="153.476" cy="274.906" r="1.5"/>
    <circle cx="99.091" cy="288.693" r="1.5"/>
    <circle cx="151.789" cy="192.182" r="1.5"/>
    <circle cx="150.103" cy="236.726" r="1.5"/>
    <circle cx="145.465" cy="257.937" r="1.5"/>
    <circle cx="94.032" cy="270.664" r="1.5"/>
    <circle cx="83.071" cy="300.359" r="1.5"/>
    <circle cx="126.494" cy="286.572" r="1.5"/>
    <circle cx="122.7" cy="295.056" r="1.5"/>
    <circle cx="161.064" cy="384.143" r="1.5"/>
    <circle cx="145.465" cy="286.572" r="1.5"/>
    <circle cx="117.219" cy="287.632" r="1.5"/>
    <circle cx="101.199" cy="285.511" r="1.5"/>
    <circle cx="161.064" cy="233.544" r="1.5"/>
    <circle cx="241.165" cy="199.606" r="1.5"/>
    <circle cx="272.362" cy="86.127" r="1.5"/>
    <circle cx="264.352" cy="178.395" r="1.5"/>
    <circle cx="220.507" cy="161.426" r="1.5"/>
    <circle cx="172.447" cy="232.483" r="1.5"/>
    <circle cx="177.084" cy="203.848" r="1.5"/>
    <circle cx="283.745" cy="108.398" r="1.5"/>
    <circle cx="249.597" cy="174.153" r="1.5"/>
    <circle cx="217.978" cy="222.938" r="1.5"/>
    <circle cx="276.578" cy="114.762" r="1.5"/>
    <circle cx="169.074" cy="271.724" r="1.5"/>
    <circle cx="71.267" cy="308.844" r="1.5"/>
    <circle cx="214.184" cy="251.573" r="1.5"/>
    <circle cx="163.594" cy="249.452" r="1.5"/>
    <circle cx="272.784" cy="94.611" r="1.5"/>
    <circle cx="266.881" cy="91.429" r="1.5"/>
    <circle cx="233.998" cy="123.246" r="1.5"/>
    <circle cx="150.103" cy="220.817" r="1.5"/>
    <circle cx="317.471" cy="72.339" r="1.5"/>
    <circle cx="279.107" cy="43.704" r="1.5"/>
    <circle cx="268.146" cy="160.366" r="1.5"/>
    <circle cx="196.899" cy="191.122" r="1.5"/>
    <circle cx="126.916" cy="168.85" r="1.5"/>
    <circle cx="240.743" cy="135.973" r="1.5"/>
    <circle cx="293.02" cy="123.246" r="1.5"/>
    <circle cx="163.172" cy="253.695" r="1.5"/>
    <circle cx="246.224" cy="117.943" r="1.5"/>
    <circle cx="176.241" cy="203.848" r="1.5"/>
    <circle cx="114.268" cy="297.177" r="1.5"/>
    <circle cx="114.268" cy="293.996" r="1.5"/>
    <circle cx="150.524" cy="221.878" r="1.5"/>
    <circle cx="150.524" cy="278.087" r="1.5"/>
    <circle cx="346.982" cy="24.614" r="1.5"/>
    <circle cx="300.187" cy="128.549" r="1.5"/>
    <circle cx="192.261" cy="268.542" r="1.5"/>
    <circle cx="247.489" cy="221.878" r="1.5"/>
    <circle cx="293.02" cy="203.848" r="1.5"/>
    <circle cx="255.92" cy="257.937" r="1.5"/>
    <circle cx="245.802" cy="174.153" r="1.5"/>
    <circle cx="239.057" cy="167.789" r="1.5"/>
    <circle cx="234.841" cy="243.089" r="1.5"/>
    <circle cx="221.772" cy="162.487" r="1.5"/>
    <circle cx="179.614" cy="243.089" r="1.5"/>
    <circle cx="98.67" cy="292.935" r="1.5"/>
    <circle cx="98.67" cy="289.754" r="1.5"/>
    <circle cx="98.67" cy="288.693" r="1.5"/>
    <circle cx="135.348" cy="297.177" r="1.5"/>
    <circle cx="135.348" cy="238.847" r="1.5"/>
    <circle cx="98.67" cy="295.056" r="1.5"/>
    <circle cx="135.348" cy="297.177" r="1.5"/>
    <circle cx="135.348" cy="278.087" r="1.5"/>
    <circle cx="98.67" cy="304.601" r="1.5"/>
    <circle cx="98.67" cy="300.359" r="1.5"/>
    <circle cx="98.67" cy="301.42" r="1.5"/>
    <circle cx="98.67" cy="297.177" r="1.5"/>
    <circle cx="98.67" cy="304.601" r="1.5"/>
    <circle cx="110.053" cy="298.238" r="1.5"/>
    <circle cx="111.317" cy="298.238" r="1.5"/>
    <circle cx="110.053" cy="292.935" r="1.5"/>
    <circle cx="111.317" cy="293.996" r="1.5"/>
    <circle cx="110.053" cy="297.177" r="1.5"/>
    <circle cx="111.317" cy="298.238" r="1.5"/>
    <circle cx="110.053" cy="298.238" r="1.5"/>
    <circle cx="105.837" cy="302.48" r="1.5"/>
    <circle cx="257.607" cy="177.334" r="1.5"/>
    <circle cx="109.209" cy="215.515" r="1.5"/>
    <circle cx="204.066" cy="260.058" r="1.5"/>
    <circle cx="144.622" cy="127.488" r="1.5"/>
    <circle cx="91.081" cy="268.542" r="1.5"/>
    <circle cx="150.524" cy="189.001" r="1.5"/>
    <circle cx="165.701" cy="251.573" r="1.5"/>
    <circle cx="179.614" cy="215.515" r="1.5"/>
    <circle cx="115.955" cy="263.24" r="1.5"/>
    <circle cx="128.181" cy="256.876" r="1.5"/>
    <circle cx="116.376" cy="281.269" r="1.5"/>
    <circle cx="249.597" cy="244.15" r="1.5"/>
    <circle cx="254.234" cy="228.241" r="1.5"/>
    <circle cx="148.838" cy="257.937" r="1.5"/>
    <circle cx="307.775" cy="250.513" r="1.5"/>
    <circle cx="128.602" cy="227.181" r="1.5"/>
    <circle cx="186.781" cy="225.06" r="1.5"/>
    <circle cx="247.489" cy="267.482" r="1.5"/>
    <circle cx="132.818" cy="284.451" r="1.5"/>
    <circle cx="137.455" cy="242.028" r="1.5"/>
    <circle cx="301.03" cy="187.94" r="1.5"/>
    <circle cx="164.437" cy="280.209" r="1.5"/>
    <circle cx="178.771" cy="242.028" r="1.5"/>
    <circle cx="172.025" cy="284.451" r="1.5"/>
    <circle cx="173.712" cy="201.727" r="1.5"/>
    <circle cx="138.72" cy="246.271" r="1.5"/>
    <circle cx="153.476" cy="263.24" r="1.5"/>
    <circle cx="145.887" cy="287.632" r="1.5"/>
    <circle cx="179.192" cy="229.302" r="1.5"/>
    <circle cx="112.582" cy="275.966" r="1.5"/>
    <circle cx="117.641" cy="291.875" r="1.5"/>
    <circle cx="110.896" cy="254.755" r="1.5"/>
    <circle cx="125.651" cy="293.996" r="1.5"/>
    <circle cx="288.804" cy="137.033" r="1.5"/>
    <circle cx="285.01" cy="95.672" r="1.5"/>
    <circle cx="137.877" cy="269.603" r="1.5"/>
    <circle cx="137.877" cy="246.271" r="1.5"/>
    <circle cx="158.535" cy="232.483" r="1.5"/>
    <circle cx="97.405" cy="263.24" r="1.5"/>
    <circle cx="97.405" cy="268.542" r="1.5"/>
    <circle cx="97.405" cy="306.722" r="1.5"/>
    <circle cx="97.405" cy="306.722" r="1.5"/>
    <circle cx="97.405" cy="289.754" r="1.5"/>
    <circle cx="158.535" cy="283.39" r="1.5"/>
    <circle cx="211.654" cy="196.425" r="1.5"/>
    <circle cx="350.355" cy="72.339" r="1.5"/>
    <circle cx="147.152" cy="272.785" r="1.5"/>
    <circle cx="220.507" cy="210.212" r="1.5"/>
    <circle cx="264.774" cy="187.94" r="1.5"/>
    <circle cx="130.71" cy="262.179" r="1.5"/>
    <circle cx="306.932" cy="71.279" r="1.5"/>
    <circle cx="252.126" cy="214.454" r="1.5"/>
    <circle cx="243.694" cy="202.788" r="1.5"/>
    <circle cx="198.585" cy="143.397" r="1.5"/>
    <circle cx="199.007" cy="211.272" r="1.5"/>
    <circle cx="123.965" cy="282.33" r="1.5"/>
    <circle cx="176.241" cy="271.724" r="1.5"/>
    <circle cx="264.774" cy="141.276" r="1.5"/>
    <circle cx="239.057" cy="122.185" r="1.5"/>
    <circle cx="296.814" cy="150.821" r="1.5"/>
    <circle cx="196.477" cy="166.729" r="1.5"/>
    <circle cx="174.976" cy="190.061" r="1.5"/>
    <circle cx="174.976" cy="190.061" r="1.5"/>
    <circle cx="161.486" cy="209.151" r="1.5"/>
    <circle cx="178.349" cy="257.937" r="1.5"/>
    <circle cx="139.142" cy="273.845" r="1.5"/>
    <circle cx="114.268" cy="279.148" r="1.5"/>
    <circle cx="121.435" cy="289.754" r="1.5"/>
    <circle cx="182.986" cy="298.238" r="1.5"/>
    <circle cx="239.9" cy="135.973" r="1.5"/>
    <circle cx="201.114" cy="139.154" r="1.5"/>
    <circle cx="311.148" cy="89.308" r="1.5"/>
    <circle cx="179.614" cy="251.573" r="1.5"/>
    <circle cx="129.867" cy="295.056" r="1.5"/>
    <circle cx="121.014" cy="248.392" r="1.5"/>
    <circle cx="134.926" cy="251.573" r="1.5"/>
    <circle cx="204.066" cy="70.218" r="1.5"/>
    <circle cx="204.066" cy="256.876" r="1.5"/>
    <circle cx="266.038" cy="124.307" r="1.5"/>
    <circle cx="169.074" cy="271.724" r="1.5"/>
    <circle cx="278.264" cy="95.672" r="1.5"/>
    <circle cx="220.507" cy="160.366" r="1.5"/>
    <circle cx="308.197" cy="150.821" r="1.5"/>
    <circle cx="145.044" cy="266.421" r="1.5"/>
    <circle cx="133.24" cy="219.757" r="1.5"/>
    <circle cx="295.549" cy="203.848" r="1.5"/>
    <circle cx="151.789" cy="245.21" r="1.5"/>
    <circle cx="239.479" cy="258.997" r="1.5"/>
    <circle cx="248.753" cy="67.037" r="1.5"/>
    <circle cx="142.936" cy="251.573" r="1.5"/>
    <circle cx="180.878" cy="195.364" r="1.5"/>
    <circle cx="143.779" cy="260.058" r="1.5"/>
    <circle cx="260.979" cy="126.428" r="1.5"/>
    <circle cx="201.958" cy="138.094" r="1.5"/>
    <circle cx="351.62" cy="103.095" r="1.5"/>
    <circle cx="215.448" cy="246.271" r="1.5"/>
    <circle cx="194.791" cy="191.122" r="1.5"/>
    <circle cx="274.892" cy="200.667" r="1.5"/>
    <circle cx="308.197" cy="150.821" r="1.5"/>
    <circle cx="352.463" cy="137.033" r="1.5"/>
    <circle cx="187.624" cy="167.789" r="1.5"/>
    <circle cx="198.163" cy="165.668" r="1.5"/>
    <circle cx="206.595" cy="215.515" r="1.5"/>
    <circle cx="157.691" cy="213.393" r="1.5"/>
    <circle cx="271.097" cy="112.64" r="1.5"/>
    <circle cx="170.76" cy="192.182" r="1.5"/>
    <circle cx="192.683" cy="129.609" r="1.5"/>
    <circle cx="190.575" cy="231.423" r="1.5"/>
    <circle cx="234.42" cy="238.847" r="1.5"/>
    <circle cx="287.539" cy="160.366" r="1.5"/>
    <circle cx="165.701" cy="196.425" r="1.5"/>
    <circle cx="184.673" cy="194.303" r="1.5"/>
    <circle cx="137.034" cy="203.848" r="1.5"/>
    <circle cx="177.927" cy="232.483" r="1.5"/>
    <circle cx="148.417" cy="164.608" r="1.5"/>
    <circle cx="148.417" cy="226.12" r="1.5"/>
    <circle cx="148.417" cy="220.817" r="1.5"/>
    <circle cx="148.417" cy="185.819" r="1.5"/>
    <circle cx="148.417" cy="197.485" r="1.5"/>
    <circle cx="148.417" cy="229.302" r="1.5"/>
    <circle cx="148.417" cy="230.362" r="1.5"/>
    <circle cx="148.417" cy="203.848" r="1.5"/>
    <circle cx="148.417" cy="246.271" r="1.5"/>
    <circle cx="148.417" cy="243.089" r="1.5"/>
    <circle cx="148.417" cy="173.092" r="1.5"/>
    <circle cx="148.417" cy="133.852" r="1.5"/>
    <circle cx="122.7" cy="262.179" r="1.5"/>
    <circle cx="161.486" cy="238.847" r="1.5"/>
    <circle cx="157.691" cy="333.236" r="1.5"/>
    <circle cx="157.691" cy="319.449" r="1.5"/>
    <circle cx="180.035" cy="306.722" r="1.5"/>
    <circle cx="110.474" cy="270.664" r="1.5"/>
    <circle cx="107.101" cy="324.752" r="1.5"/>
    <circle cx="180.878" cy="414.899" r="1.5"/>
    <circle cx="180.878" cy="257.937" r="1.5"/>
    <circle cx="107.101" cy="334.297" r="1.5"/>
    <circle cx="180.878" cy="320.51" r="1.5"/>
    <circle cx="161.486" cy="293.996" r="1.5"/>
    <circle cx="189.31" cy="297.177" r="1.5"/>
    <circle cx="157.691" cy="347.024" r="1.5"/>
    <circle cx="135.348" cy="318.389" r="1.5"/>
    <circle cx="241.165" cy="272.785" r="1.5"/>
    <circle cx="246.224" cy="248.392" r="1.5"/>
    <circle cx="190.996" cy="379.901" r="1.5"/>
    <circle cx="132.396" cy="317.328" r="1.5"/>
    <circle cx="201.536" cy="275.966" r="1.5"/>
    <circle cx="276.999" cy="277.027" r="1.5"/>
    <circle cx="231.468" cy="349.145" r="1.5"/>
    <circle cx="231.047" cy="197.485" r="1.5"/>
    <circle cx="131.132" cy="309.904" r="1.5"/>
    <circle cx="173.29" cy="286.572" r="1.5"/>
    <circle cx="167.809" cy="268.542" r="1.5"/>
    <circle cx="131.553" cy="331.115" r="1.5"/>
    <circle cx="177.084" cy="324.752" r="1.5"/>
    <circle cx="126.494" cy="270.664" r="1.5"/>
    <circle cx="125.651" cy="288.693" r="1.5"/>
    <circle cx="176.663" cy="292.935" r="1.5"/>
    <circle cx="177.084" cy="327.934" r="1.5"/>
    <circle cx="114.268" cy="305.662" r="1.5"/>
    <circle cx="129.867" cy="317.328" r="1.5"/>
    <circle cx="145.887" cy="293.996" r="1.5"/>
    <circle cx="190.996" cy="282.33" r="1.5"/>
    <circle cx="192.683" cy="313.086" r="1.5"/>
    <circle cx="119.749" cy="315.207" r="1.5"/>
    <circle cx="130.71" cy="293.996" r="1.5"/>
    <circle cx="126.073" cy="302.48" r="1.5"/>
    <circle cx="144.201" cy="345.963" r="1.5"/>
    <circle cx="153.897" cy="236.726" r="1.5"/>
    <circle cx="182.143" cy="312.025" r="1.5"/>
    <circle cx="158.956" cy="355.508" r="1.5"/>
    <circle cx="177.084" cy="326.873" r="1.5"/>
    <circle cx="177.927" cy="382.022" r="1.5"/>
    <circle cx="130.71" cy="285.511" r="1.5"/>
    <circle cx="229.361" cy="288.693" r="1.5"/>
    <circle cx="213.762" cy="448.837" r="1.5"/>
    <circle cx="128.181" cy="330.055" r="1.5"/>
    <circle cx="177.506" cy="242.028" r="1.5"/>
    <circle cx="178.771" cy="325.813" r="1.5"/>
    <circle cx="212.497" cy="285.511" r="1.5"/>
    <circle cx="134.083" cy="302.48" r="1.5"/>
    <circle cx="257.607" cy="169.911" r="1.5"/>
    <circle cx="120.592" cy="324.752" r="1.5"/>
    <circle cx="120.592" cy="310.965" r="1.5"/>
    <circle cx="279.107" cy="254.755" r="1.5"/>
    <circle cx="183.408" cy="315.207" r="1.5"/>
    <circle cx="320.001" cy="280.209" r="1.5"/>
    <circle cx="192.261" cy="283.39" r="1.5"/>
    <circle cx="156.848" cy="325.813" r="1.5"/>
    <circle cx="163.172" cy="256.876" r="1.5"/>
    <circle cx="163.172" cy="286.572" r="1.5"/>
    <circle cx="123.965" cy="315.207" r="1.5"/>
    <circle cx="121.857" cy="307.783" r="1.5"/>
    <circle cx="291.755" cy="320.51" r="1.5"/>
    <circle cx="291.755" cy="309.904" r="1.5"/>
    <circle cx="330.541" cy="410.657" r="1.5"/>
    <circle cx="252.548" cy="410.657" r="1.5"/>
    <circle cx="204.066" cy="279.148" r="1.5"/>
    <circle cx="115.112" cy="331.115" r="1.5"/>
    <circle cx="166.545" cy="309.904" r="1.5"/>
    <circle cx="166.545" cy="350.205" r="1.5"/>
    <circle cx="147.152" cy="330.055" r="1.5"/>
    <circle cx="147.152" cy="301.42" r="1.5"/>
    <circle cx="179.192" cy="369.295" r="1.5"/>
    <circle cx="139.142" cy="467.927" r="1.5"/>
    <circle cx="135.348" cy="380.961" r="1.5"/>
    <circle cx="152.632" cy="284.451" r="1.5"/>
    <circle cx="167.809" cy="295.056" r="1.5"/>
    <circle cx="135.348" cy="301.42" r="1.5"/>
    <circle cx="98.67" cy="308.844" r="1.5"/>
    <circle cx="98.67" cy="305.662" r="1.5"/>
    <circle cx="135.348" cy="302.48" r="1.5"/>
    <circle cx="98.67" cy="309.904" r="1.5"/>
    <circle cx="135.348" cy="317.328" r="1.5"/>
    <circle cx="135.348" cy="312.025" r="1.5"/>
    <circle cx="135.348" cy="316.267" r="1.5"/>
    <circle cx="135.348" cy="347.024" r="1.5"/>
    <circle cx="135.348" cy="335.358" r="1.5"/>
    <circle cx="135.348" cy="340.66" r="1.5"/>
    <circle cx="96.983" cy="380.961" r="1.5"/>
    <circle cx="105.837" cy="359.75" r="1.5"/>
    <circle cx="105.837" cy="308.844" r="1.5"/>
    <circle cx="96.983" cy="435.05" r="1.5"/>
    <circle cx="105.837" cy="403.233" r="1.5"/>
    <circle cx="105.837" cy="304.601" r="1.5"/>
    <circle cx="96.983" cy="312.025" r="1.5"/>
    <circle cx="105.837" cy="309.904" r="1.5"/>
    <circle cx="105.837" cy="306.722" r="1.5"/>
    <circle cx="96.983" cy="411.718" r="1.5"/>
    <circle cx="111.317" cy="306.722" r="1.5"/>
    <circle cx="105.837" cy="398.991" r="1.5"/>
    <circle cx="97.405" cy="336.418" r="1.5"/>
    <circle cx="109.209" cy="295.056" r="1.5"/>
    <circle cx="115.112" cy="313.086" r="1.5"/>
    <circle cx="233.998" cy="412.778" r="1.5"/>
    <circle cx="132.818" cy="412.778" r="1.5"/>
    <circle cx="152.211" cy="313.086" r="1.5"/>
    <circle cx="136.191" cy="319.449" r="1.5"/>
    <circle cx="119.749" cy="312.025" r="1.5"/>
    <circle cx="117.219" cy="305.662" r="1.5"/>
    <circle cx="145.044" cy="312.025" r="1.5"/>
    <circle cx="137.455" cy="304.601" r="1.5"/>
    <circle cx="123.122" cy="303.541" r="1.5"/>
    <circle cx="183.408" cy="313.086" r="1.5"/>
    <circle cx="137.455" cy="315.207" r="1.5"/>
    <circle cx="139.142" cy="312.025" r="1.5"/>
    <circle cx="141.25" cy="317.328" r="1.5"/>
    <circle cx="122.278" cy="316.267" r="1.5"/>
    <circle cx="120.592" cy="298.238" r="1.5"/>
    <circle cx="115.533" cy="318.389" r="1.5"/>
    <circle cx="126.494" cy="324.752" r="1.5"/>
    <circle cx="142.093" cy="309.904" r="1.5"/>
    <circle cx="185.516" cy="308.844" r="1.5"/>
    <circle cx="167.809" cy="300.359" r="1.5"/>
    <circle cx="190.575" cy="286.572" r="1.5"/>
    <circle cx="129.024" cy="310.965" r="1.5"/>
    <circle cx="114.268" cy="314.146" r="1.5"/>
    <circle cx="139.985" cy="288.693" r="1.5"/>
    <circle cx="111.317" cy="315.207" r="1.5"/>
    <circle cx="196.477" cy="496.562" r="1.5"/>
    <circle cx="112.582" cy="306.722" r="1.5"/>
    <circle cx="129.867" cy="302.48" r="1.5"/>
    <circle cx="129.867" cy="301.42" r="1.5"/>
    <circle cx="104.15" cy="325.813" r="1.5"/>
    <circle cx="122.7" cy="308.844" r="1.5"/>
    <circle cx="161.486" cy="337.479" r="1.5"/>
    <circle cx="182.565" cy="300.359" r="1.5"/>
    <circle cx="146.309" cy="295.056" r="1.5"/>
    <circle cx="111.739" cy="332.176" r="1.5"/>
    <circle cx="180.878" cy="317.328" r="1.5"/>
    <circle cx="97.405" cy="309.904" r="1.5"/>
    <circle cx="97.405" cy="313.086" r="1.5"/>
    <circle cx="131.132" cy="298.238" r="1.5"/>
    <circle cx="125.651" cy="306.722" r="1.5"/>
    <circle cx="144.622" cy="297.177" r="1.5"/>
    <circle cx="150.524" cy="326.873" r="1.5"/>
    <circle cx="144.622" cy="323.691" r="1.5"/>
    <circle cx="180.035" cy="330.055" r="1.5"/>
    <circle cx="300.187" cy="344.903" r="1.5"/>
    <circle cx="106.258" cy="308.844" r="1.5"/>
    <circle cx="144.201" cy="320.51" r="1.5"/>
    <circle cx="173.712" cy="301.42" r="1.5"/>
    <circle cx="108.788" cy="309.904" r="1.5"/>
    <circle cx="143.358" cy="312.025" r="1.5"/>
    <circle cx="134.083" cy="314.146" r="1.5"/>
    <circle cx="199.428" cy="316.267" r="1.5"/>
    <circle cx="92.768" cy="321.57" r="1.5"/>
    <circle cx="110.053" cy="320.51" r="1.5"/>
    <circle cx="145.887" cy="321.57" r="1.5"/>
    <circle cx="167.809" cy="327.934" r="1.5"/>
    <circle cx="115.955" cy="335.358" r="1.5"/>
    <circle cx="156.427" cy="312.025" r="1.5"/>
    <circle cx="150.524" cy="316.267" r="1.5"/>
    <circle cx="206.595" cy="301.42" r="1.5"/>
    <circle cx="219.243" cy="323.691" r="1.5"/>
    <circle cx="135.348" cy="300.359" r="1.5"/>
    <circle cx="139.142" cy="298.238" r="1.5"/>
    <circle cx="183.408" cy="280.209" r="1.5"/>
    <circle cx="240.322" cy="306.722" r="1.5"/>
    <circle cx="197.32" cy="300.359" r="1.5"/>
    <circle cx="197.32" cy="162.487" r="1.5"/>
    <circle cx="204.066" cy="405.354" r="1.5"/>
    <circle cx="114.268" cy="291.875" r="1.5"/>
    <circle cx="348.669" cy="334.297" r="1.5"/>
    <circle cx="208.281" cy="320.51" r="1.5"/>
    <circle cx="157.27" cy="327.934" r="1.5"/>
    <circle cx="166.123" cy="325.813" r="1.5"/>
    <circle cx="212.076" cy="278.087" r="1.5"/>
    <circle cx="220.086" cy="283.39" r="1.5"/>
    <circle cx="171.182" cy="299.299" r="1.5"/>
    <circle cx="213.34" cy="336.418" r="1.5"/>
    <circle cx="150.946" cy="301.42" r="1.5"/>
    <circle cx="124.808" cy="305.662" r="1.5"/>
    <circle cx="153.476" cy="274.906" r="1.5"/>
    <circle cx="142.936" cy="315.207" r="1.5"/>
    <circle cx="137.455" cy="299.299" r="1.5"/>
    <circle cx="159.378" cy="298.238" r="1.5"/>
    <circle cx="257.607" cy="262.179" r="1.5"/>
    <circle cx="132.396" cy="293.996" r="1.5"/>
    <circle cx="242.43" cy="284.451" r="1.5"/>
    <circle cx="224.723" cy="290.814" r="1.5"/>
    <circle cx="177.927" cy="232.483" r="1.5"/>
    <circle cx="129.445" cy="297.177" r="1.5"/>
    <circle cx="167.388" cy="322.631" r="1.5"/>
    <circle cx="129.867" cy="319.449" r="1.5"/>
    <circle cx="124.808" cy="343.842" r="1.5"/>
    <circle cx="124.808" cy="328.994" r="1.5"/>
    <circle cx="129.867" cy="161.426" r="1.5"/>
    <circle cx="168.231" cy="300.359" r="1.5"/>
    <circle cx="193.104" cy="351.266" r="1.5"/>
    <circle cx="161.486" cy="315.207" r="1.5"/>
    <circle cx="161.064" cy="384.143" r="1.5"/>
    <circle cx="103.729" cy="307.783" r="1.5"/>
    <circle cx="125.23" cy="277.027" r="1.5"/>
    <circle cx="145.044" cy="264.3" r="1.5"/>
    <circle cx="130.71" cy="286.572" r="1.5"/>
    <circle cx="137.455" cy="288.693" r="1.5"/>
    <circle cx="205.752" cy="296.117" r="1.5"/>
    <circle cx="182.986" cy="201.727" r="1.5"/>
    <circle cx="152.211" cy="216.575" r="1.5"/>
    <circle cx="152.211" cy="295.056" r="1.5"/>
    <circle cx="140.828" cy="262.179" r="1.5"/>
    <circle cx="131.553" cy="324.752" r="1.5"/>
    <circle cx="140.406" cy="280.209" r="1.5"/>
    <circle cx="126.073" cy="295.056" r="1.5"/>
    <circle cx="117.219" cy="287.632" r="1.5"/>
    <circle cx="-1650.953" cy="344.744" r="2"/>
    <circle cx="-1650.953" cy="385.577" r="2"/>
    <circle cx="-1641.729" cy="383.244" r="2"/>
    <circle cx="-1661.015" cy="364.577" r="2"/>
    <circle cx="-1650.953" cy="310.91" r="2"/>
    <circle cx="-1586.387" cy="250.244" r="2"/>
    <circle cx="-1636.698" cy="370.41" r="2"/>
    <circle cx="-1561.232" cy="302.744" r="2"/>
    <circle cx="-1671.915" cy="344.744" r="2"/>
    <circle cx="-1564.586" cy="357.577" r="2"/>
    <circle cx="-1440.487" cy="278.244" r="2"/>
    <circle cx="-1630.828" cy="369.244" r="2"/>
    <circle cx="-1576.325" cy="326.077" r="2"/>
    <circle cx="-1613.22" cy="341.244" r="2"/>
    <circle cx="-1641.729" cy="352.91" r="2"/>
    <circle cx="-1683.654" cy="382.077" r="2"/>
    <circle cx="-1562.909" cy="296.91" r="2"/>
    <circle cx="-1691.201" cy="385.577" r="2"/>
    <circle cx="-1527.692" cy="67.077" r="2"/>
    <circle cx="-1689.524" cy="351.744" r="2"/>
    <circle cx="-1222.474" cy="67.077" r="2"/>
    <circle cx="-1546.977" cy="385.577" r="2"/>
    <circle cx="-1620.766" cy="333.077" r="2"/>
    <circle cx="-1764.151" cy="356.41" r="2"/>
    <circle cx="-1473.189" cy="226.91" r="2"/>
    <circle cx="-1664.369" cy="371.577" r="2"/>
    <circle cx="-1614.058" cy="355.244" r="2"/>
    <circle cx="-1732.288" cy="340.077" r="2"/>
    <circle cx="-1636.698" cy="406.577" r="2"/>
    <circle cx="-1699.586" cy="363.41" r="2"/>
    <circle cx="-1659.338" cy="380.91" r="2"/>
    <circle cx="-1751.574" cy="399.577" r="2"/>
    <circle cx="-1751.574" cy="447.41" r="2"/>
    <circle cx="-1751.574" cy="389.077" r="2"/>
    <circle cx="-1751.574" cy="434.577" r="2"/>
    <circle cx="-1719.71" cy="371.577" r="2"/>
    <circle cx="-1725.58" cy="384.41" r="2"/>
    <circle cx="-1743.189" cy="362.244" r="2"/>
    <circle cx="-1691.201" cy="377.41" r="2"/>
    <circle cx="-1685.331" cy="390.244" r="2"/>
    <circle cx="-1692.878" cy="345.91" r="2"/>
    <circle cx="-1642.567" cy="383.244" r="2"/>
    <circle cx="-1642.567" cy="400.744" r="2"/>
    <circle cx="-1642.567" cy="375.077" r="2"/>
    <circle cx="-1682.816" cy="338.91" r="2"/>
    <circle cx="-1596.449" cy="389.077" r="2"/>
    <circle cx="-1625.797" cy="394.91" r="2"/>
    <circle cx="-1588.903" cy="396.077" r="2"/>
    <circle cx="-1754.928" cy="429.91" r="2"/>
    <circle cx="-1459.772" cy="376.244" r="2"/>
    <circle cx="-1459.772" cy="589.744" r="2"/>
    <circle cx="-1548.654" cy="400.744" r="2"/>
    <circle cx="-1648.437" cy="383.244" r="2"/>
    <circle cx="-1535.238" cy="379.744" r="2"/>
    <circle cx="-1634.182" cy="411.244" r="2"/>
    <circle cx="-1715.518" cy="67.077" r="2"/>
    <circle cx="-1607.35" cy="489.41" r="2"/>
    <circle cx="-1707.133" cy="411.244" r="2"/>
    <circle cx="-1640.89" cy="386.744" r="2"/>
    <circle cx="-1624.959" cy="299.244" r="2"/>
    <circle cx="-1545.3" cy="67.077" r="2"/>
    <circle cx="-1546.977" cy="313.244" r="2"/>
    <circle cx="-1506.729" cy="292.244" r="2"/>
    <circle cx="-1759.959" cy="391.41" r="2"/>
    <circle cx="-1733.126" cy="177.91" r="2"/>
    <circle cx="-1684.493" cy="392.577" r="2"/>
    <circle cx="-1693.717" cy="375.077" r="2"/>
    <circle cx="-1624.959" cy="299.244" r="2"/>
    <circle cx="-1629.151" cy="364.577" r="2"/>
    <circle cx="-1629.99" cy="285.244" r="2"/>
    <circle cx="-1736.481" cy="67.077" r="2"/>
    <circle cx="-1705.456" cy="287.577" r="2"/>
    <circle cx="-1588.064" cy="221.077" r="2"/>
    <circle cx="-1644.244" cy="404.244" r="2"/>
    <circle cx="-1612.381" cy="180.244" r="2"/>
    <circle cx="-1505.052" cy="253.744" r="2"/>
    <circle cx="-1632.505" cy="258.41" r="2"/>
    <circle cx="-1606.512" cy="454.41" r="2"/>
    <circle cx="-1686.17" cy="380.91" r="2"/>
    <circle cx="-1690.362" cy="377.41" r="2"/>
    <circle cx="-1671.077" cy="67.077" r="2"/>
    <circle cx="-1589.741" cy="345.91" r="2"/>
    <circle cx="-1697.909" cy="361.077" r="2"/>
    <circle cx="-1593.095" cy="254.91" r="2"/>
    <circle cx="-1596.449" cy="303.91" r="2"/>
    <circle cx="-1605.673" cy="327.244" r="2"/>
    <circle cx="-1707.971" cy="341.244" r="2"/>
    <circle cx="-1729.772" cy="373.91" r="2"/>
    <circle cx="-1643.406" cy="358.744" r="2"/>
    <circle cx="-1650.953" cy="368.077" r="2"/>
    <circle cx="-1574.648" cy="466.077" r="2"/>
    <circle cx="-1605.673" cy="358.744" r="2"/>
    <circle cx="-1661.853" cy="359.91" r="2"/>
    <ellipse cx="-1693.717" cy="357.577" rx="2" ry="2.074"/>
    <ellipse cx="-1574.648" cy="300.41" rx="2" ry="2.074"/>
    <ellipse cx="-1415.331" cy="263.077" rx="2" ry="2.074"/>
    <ellipse cx="-1353.282" cy="138.244" rx="2" ry="2.074"/>
    <ellipse cx="-1369.213" cy="239.744" rx="2" ry="2.074"/>
    <ellipse cx="-1456.418" cy="221.077" rx="2" ry="2.074"/>
    <ellipse cx="-1552.008" cy="299.244" rx="2" ry="2.074"/>
    <ellipse cx="-1542.785" cy="267.744" rx="2" ry="2.074"/>
    <ellipse cx="-1330.642" cy="162.744" rx="2" ry="2.074"/>
    <ellipse cx="-1398.561" cy="235.077" rx="2" ry="2.074"/>
    <ellipse cx="-1461.449" cy="288.744" rx="2" ry="2.074"/>
    <ellipse cx="-1344.897" cy="169.744" rx="2" ry="2.074"/>
    <ellipse cx="-1558.717" cy="342.41" rx="2" ry="2.074"/>
    <ellipse cx="-1753.251" cy="383.244" rx="2" ry="2.074"/>
    <ellipse cx="-1468.996" cy="320.244" rx="2" ry="2.074"/>
    <ellipse cx="-1569.617" cy="317.91" rx="2" ry="2.074"/>
    <ellipse cx="-1352.443" cy="147.577" rx="2" ry="2.074"/>
    <ellipse cx="-1364.182" cy="144.077" rx="2" ry="2.074"/>
    <ellipse cx="-1429.586" cy="179.077" rx="2" ry="2.074"/>
    <ellipse cx="-1596.449" cy="286.41" rx="2" ry="2.074"/>
    <ellipse cx="-1263.561" cy="123.077" rx="2" ry="2.074"/>
    <ellipse cx="-1339.866" cy="91.577" rx="2" ry="2.074"/>
    <ellipse cx="-1361.667" cy="219.91" rx="2" ry="2.074"/>
    <ellipse cx="-1503.375" cy="253.744" rx="2" ry="2.074"/>
    <ellipse cx="-1642.567" cy="229.244" rx="2" ry="2.074"/>
    <ellipse cx="-1416.17" cy="193.077" rx="2" ry="2.074"/>
    <ellipse cx="-1312.195" cy="179.077" rx="2" ry="2.074"/>
    <ellipse cx="-1570.456" cy="322.577" rx="2" ry="2.074"/>
    <ellipse cx="-1405.269" cy="173.244" rx="2" ry="2.074"/>
    <ellipse cx="-1544.462" cy="267.744" rx="2" ry="2.074"/>
    <ellipse cx="-1667.723" cy="370.41" rx="2" ry="2.074"/>
    <ellipse cx="-1667.723" cy="366.91" rx="2" ry="2.074"/>
    <ellipse cx="-1595.611" cy="287.577" rx="2" ry="2.074"/>
    <ellipse cx="-1595.611" cy="349.41" rx="2" ry="2.074"/>
    <ellipse cx="-1204.866" cy="70.577" rx="2" ry="2.074"/>
    <ellipse cx="-1297.94" cy="184.91" rx="2" ry="2.074"/>
    <ellipse cx="-1512.599" cy="338.91" rx="2" ry="2.074"/>
    <ellipse cx="-1402.754" cy="287.577" rx="2" ry="2.074"/>
    <ellipse cx="-1312.195" cy="267.744" rx="2" ry="2.074"/>
    <ellipse cx="-1385.984" cy="327.244" rx="2" ry="2.074"/>
    <ellipse cx="-1406.108" cy="235.077" rx="2" ry="2.074"/>
    <ellipse cx="-1419.524" cy="228.077" rx="2" ry="2.074"/>
    <ellipse cx="-1427.909" cy="310.91" rx="2" ry="2.074"/>
    <ellipse cx="-1453.903" cy="222.244" rx="2" ry="2.074"/>
    <ellipse cx="-1537.754" cy="310.91" rx="2" ry="2.074"/>
    <ellipse cx="-1698.748" cy="365.744" rx="2" ry="2.074"/>
    <ellipse cx="-1698.748" cy="362.244" rx="2" ry="2.074"/>
    <ellipse cx="-1698.748" cy="361.077" rx="2" ry="2.074"/>
    <ellipse cx="-1625.797" cy="370.41" rx="2" ry="2.074"/>
    <ellipse cx="-1625.797" cy="306.244" rx="2" ry="2.074"/>
    <ellipse cx="-1698.748" cy="368.077" rx="2" ry="2.074"/>
    <ellipse cx="-1625.797" cy="370.41" rx="2" ry="2.074"/>
    <ellipse cx="-1625.797" cy="349.41" rx="2" ry="2.074"/>
    <ellipse cx="-1698.748" cy="378.577" rx="2" ry="2.074"/>
    <ellipse cx="-1698.748" cy="373.91" rx="2" ry="2.074"/>
    <ellipse cx="-1698.748" cy="375.077" rx="2" ry="2.074"/>
    <ellipse cx="-1698.748" cy="370.41" rx="2" ry="2.074"/>
    <ellipse cx="-1698.748" cy="378.577" rx="2" ry="2.074"/>
    <ellipse cx="-1676.108" cy="371.577" rx="2" ry="2.074"/>
    <ellipse cx="-1673.592" cy="371.577" rx="2" ry="2.074"/>
    <ellipse cx="-1676.108" cy="365.744" rx="2" ry="2.074"/>
    <ellipse cx="-1673.592" cy="366.91" rx="2" ry="2.074"/>
    <ellipse cx="-1676.108" cy="370.41" rx="2" ry="2.074"/>
    <ellipse cx="-1673.592" cy="371.577" rx="2" ry="2.074"/>
    <ellipse cx="-1676.108" cy="371.577" rx="2" ry="2.074"/>
    <ellipse cx="-1684.493" cy="376.244" rx="2" ry="2.074"/>
    <ellipse cx="-1382.63" cy="238.577" rx="2" ry="2.074"/>
    <ellipse cx="-1677.785" cy="280.577" rx="2" ry="2.074"/>
    <ellipse cx="-1489.12" cy="329.577" rx="2" ry="2.074"/>
    <ellipse cx="-1607.35" cy="183.744" rx="2" ry="2.074"/>
    <ellipse cx="-1713.841" cy="338.91" rx="2" ry="2.074"/>
    <ellipse cx="-1595.611" cy="251.41" rx="2" ry="2.074"/>
    <ellipse cx="-1565.425" cy="320.244" rx="2" ry="2.074"/>
    <ellipse cx="-1537.754" cy="280.577" rx="2" ry="2.074"/>
    <ellipse cx="-1664.369" cy="333.077" rx="2" ry="2.074"/>
    <ellipse cx="-1640.052" cy="326.077" rx="2" ry="2.074"/>
    <ellipse cx="-1663.53" cy="352.91" rx="2" ry="2.074"/>
    <ellipse cx="-1398.561" cy="312.077" rx="2" ry="2.074"/>
    <ellipse cx="-1389.338" cy="294.577" rx="2" ry="2.074"/>
    <ellipse cx="-1598.965" cy="327.244" rx="2" ry="2.074"/>
    <ellipse cx="-1282.847" cy="319.077" rx="2" ry="2.074"/>
    <ellipse cx="-1639.213" cy="293.41" rx="2" ry="2.074"/>
    <ellipse cx="-1523.499" cy="291.077" rx="2" ry="2.074"/>
    <ellipse cx="-1402.754" cy="337.744" rx="2" ry="2.074"/>
    <ellipse cx="-1630.828" cy="356.41" rx="2" ry="2.074"/>
    <ellipse cx="-1621.605" cy="309.744" rx="2" ry="2.074"/>
    <ellipse cx="-1296.263" cy="250.244" rx="2" ry="2.074"/>
    <ellipse cx="-1567.94" cy="351.744" rx="2" ry="2.074"/>
    <ellipse cx="-1539.431" cy="309.744" rx="2" ry="2.074"/>
    <ellipse cx="-1552.847" cy="356.41" rx="2" ry="2.074"/>
    <ellipse cx="-1549.493" cy="265.41" rx="2" ry="2.074"/>
    <ellipse cx="-1619.089" cy="314.41" rx="2" ry="2.074"/>
    <ellipse cx="-1589.741" cy="333.077" rx="2" ry="2.074"/>
    <ellipse cx="-1604.835" cy="359.91" rx="2" ry="2.074"/>
    <ellipse cx="-1538.592" cy="295.744" rx="2" ry="2.074"/>
    <ellipse cx="-1671.077" cy="347.077" rx="2" ry="2.074"/>
    <ellipse cx="-1661.015" cy="364.577" rx="2" ry="2.074"/>
    <ellipse cx="-1674.431" cy="323.744" rx="2" ry="2.074"/>
    <ellipse cx="-1645.083" cy="366.91" rx="2" ry="2.074"/>
    <ellipse cx="-1320.58" cy="194.244" rx="2" ry="2.074"/>
    <ellipse cx="-1328.126" cy="148.744" rx="2" ry="2.074"/>
    <ellipse cx="-1620.766" cy="340.077" rx="2" ry="2.074"/>
    <ellipse cx="-1620.766" cy="314.41" rx="2" ry="2.074"/>
    <ellipse cx="-1579.679" cy="299.244" rx="2" ry="2.074"/>
    <ellipse cx="-1701.263" cy="333.077" rx="2" ry="2.074"/>
    <ellipse cx="-1701.263" cy="338.91" rx="2" ry="2.074"/>
    <ellipse cx="-1701.263" cy="380.91" rx="2" ry="2.074"/>
    <ellipse cx="-1701.263" cy="380.91" rx="2" ry="2.074"/>
    <ellipse cx="-1701.263" cy="362.244" rx="2" ry="2.074"/>
    <ellipse cx="-1579.679" cy="355.244" rx="2" ry="2.074"/>
    <ellipse cx="-1474.027" cy="259.577" rx="2" ry="2.074"/>
    <ellipse cx="-1198.158" cy="123.077" rx="2" ry="2.074"/>
    <ellipse cx="-1602.319" cy="343.577" rx="2" ry="2.074"/>
    <ellipse cx="-1456.418" cy="274.744" rx="2" ry="2.074"/>
    <ellipse cx="-1368.375" cy="250.244" rx="2" ry="2.074"/>
    <ellipse cx="-1635.021" cy="331.91" rx="2" ry="2.074"/>
    <ellipse cx="-1284.524" cy="121.91" rx="2" ry="2.074"/>
    <ellipse cx="-1393.53" cy="279.41" rx="2" ry="2.074"/>
    <ellipse cx="-1410.3" cy="266.577" rx="2" ry="2.074"/>
    <ellipse cx="-1500.021" cy="201.244" rx="2" ry="2.074"/>
    <ellipse cx="-1499.182" cy="275.91" rx="2" ry="2.074"/>
    <ellipse cx="-1648.437" cy="354.077" rx="2" ry="2.074"/>
    <ellipse cx="-1544.462" cy="342.41" rx="2" ry="2.074"/>
    <ellipse cx="-1368.375" cy="198.91" rx="2" ry="2.074"/>
    <ellipse cx="-1419.524" cy="177.91" rx="2" ry="2.074"/>
    <ellipse cx="-1304.648" cy="209.41" rx="2" ry="2.074"/>
    <ellipse cx="-1504.213" cy="226.91" rx="2" ry="2.074"/>
    <ellipse cx="-1546.977" cy="252.577" rx="2" ry="2.074"/>
    <ellipse cx="-1546.977" cy="252.577" rx="2" ry="2.074"/>
    <ellipse cx="-1573.81" cy="273.577" rx="2" ry="2.074"/>
    <ellipse cx="-1540.269" cy="327.244" rx="2" ry="2.074"/>
    <ellipse cx="-1618.251" cy="344.744" rx="2" ry="2.074"/>
    <ellipse cx="-1667.723" cy="350.577" rx="2" ry="2.074"/>
    <ellipse cx="-1653.468" cy="362.244" rx="2" ry="2.074"/>
    <ellipse cx="-1531.046" cy="371.577" rx="2" ry="2.074"/>
    <ellipse cx="-1417.847" cy="193.077" rx="2" ry="2.074"/>
    <ellipse cx="-1494.99" cy="196.577" rx="2" ry="2.074"/>
    <ellipse cx="-1276.139" cy="141.744" rx="2" ry="2.074"/>
    <ellipse cx="-1537.754" cy="320.244" rx="2" ry="2.074"/>
    <ellipse cx="-1636.698" cy="368.077" rx="2" ry="2.074"/>
    <ellipse cx="-1654.307" cy="316.744" rx="2" ry="2.074"/>
    <ellipse cx="-1626.636" cy="320.244" rx="2" ry="2.074"/>
    <ellipse cx="-1489.12" cy="120.744" rx="2" ry="2.074"/>
    <ellipse cx="-1489.12" cy="326.077" rx="2" ry="2.074"/>
    <ellipse cx="-1365.859" cy="180.244" rx="2" ry="2.074"/>
    <ellipse cx="-1558.717" cy="342.41" rx="2" ry="2.074"/>
    <ellipse cx="-1341.543" cy="148.744" rx="2" ry="2.074"/>
    <ellipse cx="-1456.418" cy="219.91" rx="2" ry="2.074"/>
    <ellipse cx="-1282.008" cy="209.41" rx="2" ry="2.074"/>
    <ellipse cx="-1606.512" cy="336.577" rx="2" ry="2.074"/>
    <ellipse cx="-1629.99" cy="285.244" rx="2" ry="2.074"/>
    <ellipse cx="-1307.164" cy="267.744" rx="2" ry="2.074"/>
    <ellipse cx="-1593.095" cy="313.244" rx="2" ry="2.074"/>
    <ellipse cx="-1418.685" cy="328.41" rx="2" ry="2.074"/>
    <ellipse cx="-1400.238" cy="117.244" rx="2" ry="2.074"/>
    <ellipse cx="-1610.704" cy="320.244" rx="2" ry="2.074"/>
    <ellipse cx="-1535.238" cy="258.41" rx="2" ry="2.074"/>
    <ellipse cx="-1609.027" cy="329.577" rx="2" ry="2.074"/>
    <ellipse cx="-1375.921" cy="182.577" rx="2" ry="2.074"/>
    <ellipse cx="-1493.313" cy="195.41" rx="2" ry="2.074"/>
    <ellipse cx="-1195.642" cy="156.91" rx="2" ry="2.074"/>
    <ellipse cx="-1466.481" cy="314.41" rx="2" ry="2.074"/>
    <ellipse cx="-1507.567" cy="253.744" rx="2" ry="2.074"/>
    <ellipse cx="-1348.251" cy="264.244" rx="2" ry="2.074"/>
    <ellipse cx="-1282.008" cy="209.41" rx="2" ry="2.074"/>
    <ellipse cx="-1193.965" cy="194.244" rx="2" ry="2.074"/>
    <ellipse cx="-1521.822" cy="228.077" rx="2" ry="2.074"/>
    <ellipse cx="-1500.859" cy="225.744" rx="2" ry="2.074"/>
    <ellipse cx="-1484.089" cy="280.577" rx="2" ry="2.074"/>
    <ellipse cx="-1581.356" cy="278.244" rx="2" ry="2.074"/>
    <ellipse cx="-1355.797" cy="167.41" rx="2" ry="2.074"/>
    <ellipse cx="-1555.362" cy="254.91" rx="2" ry="2.074"/>
    <ellipse cx="-1511.76" cy="186.077" rx="2" ry="2.074"/>
    <ellipse cx="-1515.953" cy="298.077" rx="2" ry="2.074"/>
    <ellipse cx="-1428.748" cy="306.244" rx="2" ry="2.074"/>
    <ellipse cx="-1323.095" cy="219.91" rx="2" ry="2.074"/>
    <ellipse cx="-1565.425" cy="259.577" rx="2" ry="2.074"/>
    <ellipse cx="-1527.692" cy="257.244" rx="2" ry="2.074"/>
    <ellipse cx="-1622.443" cy="267.744" rx="2" ry="2.074"/>
    <ellipse cx="-1541.108" cy="299.244" rx="2" ry="2.074"/>
    <ellipse cx="-1599.803" cy="224.577" rx="2" ry="2.074"/>
    <ellipse cx="-1599.803" cy="292.244" rx="2" ry="2.074"/>
    <ellipse cx="-1599.803" cy="286.41" rx="2" ry="2.074"/>
    <ellipse cx="-1599.803" cy="247.91" rx="2" ry="2.074"/>
    <ellipse cx="-1599.803" cy="260.744" rx="2" ry="2.074"/>
    <ellipse cx="-1599.803" cy="295.744" rx="2" ry="2.074"/>
    <ellipse cx="-1599.803" cy="296.91" rx="2" ry="2.074"/>
    <ellipse cx="-1599.803" cy="267.744" rx="2" ry="2.074"/>
    <ellipse cx="-1599.803" cy="314.41" rx="2" ry="2.074"/>
    <ellipse cx="-1599.803" cy="310.91" rx="2" ry="2.074"/>
    <ellipse cx="-1599.803" cy="233.91" rx="2" ry="2.074"/>
    <ellipse cx="-1599.803" cy="190.744" rx="2" ry="2.074"/>
    <ellipse cx="-1650.953" cy="331.91" rx="2" ry="2.074"/>
    <ellipse cx="-1573.81" cy="306.244" rx="2" ry="2.074"/>
    <circle cx="-1581.356" cy="410.077" r="2"/>
    <circle cx="-1581.356" cy="394.91" r="2"/>
    <circle cx="-1536.915" cy="380.91" r="2"/>
    <circle cx="-1675.269" cy="341.244" r="2"/>
    <circle cx="-1681.977" cy="400.744" r="2"/>
    <circle cx="-1535.238" cy="499.91" r="2"/>
    <circle cx="-1535.238" cy="327.244" r="2"/>
    <circle cx="-1681.977" cy="411.244" r="2"/>
    <circle cx="-1535.238" cy="396.077" r="2"/>
    <circle cx="-1573.81" cy="366.91" r="2"/>
    <circle cx="-1518.468" cy="370.41" r="2"/>
    <circle cx="-1581.356" cy="425.244" r="2"/>
    <circle cx="-1625.797" cy="393.744" r="2"/>
    <circle cx="-1415.331" cy="343.577" r="2"/>
    <circle cx="-1405.269" cy="316.744" r="2"/>
    <circle cx="-1515.114" cy="461.41" r="2"/>
    <circle cx="-1631.667" cy="392.577" r="2"/>
    <circle cx="-1494.151" cy="347.077" r="2"/>
    <circle cx="-1344.058" cy="348.244" r="2"/>
    <circle cx="-1434.617" cy="427.577" r="2"/>
    <circle cx="-1435.456" cy="260.744" r="2"/>
    <circle cx="-1634.182" cy="384.41" r="2"/>
    <circle cx="-1550.331" cy="358.744" r="2"/>
    <circle cx="-1561.232" cy="338.91" r="2"/>
    <circle cx="-1633.344" cy="407.744" r="2"/>
    <circle cx="-1542.785" cy="400.744" r="2"/>
    <circle cx="-1643.406" cy="341.244" r="2"/>
    <circle cx="-1645.083" cy="361.077" r="2"/>
    <circle cx="-1543.623" cy="365.744" r="2"/>
    <circle cx="-1542.785" cy="404.244" r="2"/>
    <circle cx="-1667.723" cy="379.744" r="2"/>
    <circle cx="-1636.698" cy="392.577" r="2"/>
    <circle cx="-1604.835" cy="366.91" r="2"/>
    <circle cx="-1515.114" cy="354.077" r="2"/>
    <circle cx="-1511.76" cy="387.91" r="2"/>
    <circle cx="-1656.822" cy="390.244" r="2"/>
    <circle cx="-1635.021" cy="366.91" r="2"/>
    <circle cx="-1644.244" cy="376.244" r="2"/>
    <circle cx="-1608.189" cy="424.077" r="2"/>
    <circle cx="-1588.903" cy="303.91" r="2"/>
    <circle cx="-1532.723" cy="386.744" r="2"/>
    <circle cx="-1578.841" cy="434.577" r="2"/>
    <circle cx="-1542.785" cy="403.077" r="2"/>
    <circle cx="-1541.108" cy="463.744" r="2"/>
    <circle cx="-1635.021" cy="357.577" r="2"/>
    <circle cx="-1438.81" cy="361.077" r="2"/>
    <circle cx="-1469.835" cy="537.244" r="2"/>
    <circle cx="-1640.052" cy="406.577" r="2"/>
    <circle cx="-1541.946" cy="309.744" r="2"/>
    <circle cx="-1539.431" cy="401.91" r="2"/>
    <circle cx="-1472.35" cy="357.577" r="2"/>
    <circle cx="-1628.313" cy="376.244" r="2"/>
    <circle cx="-1382.63" cy="230.41" r="2"/>
    <circle cx="-1655.145" cy="400.744" r="2"/>
    <circle cx="-1655.145" cy="385.577" r="2"/>
    <circle cx="-1339.866" cy="323.744" r="2"/>
    <circle cx="-1530.207" cy="390.244" r="2"/>
    <circle cx="-1258.53" cy="351.744" r="2"/>
    <circle cx="-1512.599" cy="355.244" r="2"/>
    <circle cx="-1583.033" cy="401.91" r="2"/>
    <circle cx="-1570.456" cy="326.077" r="2"/>
    <circle cx="-1570.456" cy="358.744" r="2"/>
    <circle cx="-1648.437" cy="390.244" r="2"/>
    <circle cx="-1652.63" cy="382.077" r="2"/>
    <circle cx="-1314.71" cy="396.077" r="2"/>
    <circle cx="-1314.71" cy="384.41" r="2"/>
    <circle cx="-1237.567" cy="495.244" r="2"/>
    <circle cx="-1392.692" cy="495.244" r="2"/>
    <circle cx="-1489.12" cy="350.577" r="2"/>
    <circle cx="-1666.046" cy="407.744" r="2"/>
    <circle cx="-1563.748" cy="384.41" r="2"/>
    <circle cx="-1563.748" cy="428.744" r="2"/>
    <circle cx="-1602.319" cy="406.577" r="2"/>
    <circle cx="-1602.319" cy="375.077" r="2"/>
    <circle cx="-1538.592" cy="449.744" r="2"/>
    <circle cx="-1618.251" cy="558.244" r="2"/>
    <circle cx="-1625.797" cy="462.577" r="2"/>
    <circle cx="-1591.418" cy="356.41" r="2"/>
    <circle cx="-1561.232" cy="368.077" r="2"/>
    <circle cx="-1625.797" cy="375.077" r="2"/>
    <circle cx="-1698.748" cy="383.244" r="2"/>
    <circle cx="-1698.748" cy="379.744" r="2"/>
    <circle cx="-1625.797" cy="376.244" r="2"/>
    <circle cx="-1698.748" cy="384.41" r="2"/>
    <circle cx="-1625.797" cy="392.577" r="2"/>
    <circle cx="-1625.797" cy="386.744" r="2"/>
    <circle cx="-1625.797" cy="391.41" r="2"/>
    <circle cx="-1625.797" cy="425.244" r="2"/>
    <circle cx="-1625.797" cy="412.41" r="2"/>
    <circle cx="-1625.797" cy="418.244" r="2"/>
    <circle cx="-1702.102" cy="462.577" r="2"/>
    <circle cx="-1684.493" cy="439.244" r="2"/>
    <circle cx="-1684.493" cy="383.244" r="2"/>
    <circle cx="-1702.102" cy="522.077" r="2"/>
    <circle cx="-1684.493" cy="487.077" r="2"/>
    <circle cx="-1684.493" cy="378.577" r="2"/>
    <circle cx="-1702.102" cy="386.744" r="2"/>
    <circle cx="-1684.493" cy="384.41" r="2"/>
    <circle cx="-1684.493" cy="380.91" r="2"/>
    <circle cx="-1702.102" cy="496.41" r="2"/>
    <circle cx="-1673.592" cy="380.91" r="2"/>
    <circle cx="-1684.493" cy="482.41" r="2"/>
    <circle cx="-1701.263" cy="413.577" r="2"/>
    <circle cx="-1677.785" cy="368.077" r="2"/>
    <circle cx="-1666.046" cy="387.91" r="2"/>
    <circle cx="-1429.586" cy="497.577" r="2"/>
    <circle cx="-1630.828" cy="497.577" r="2"/>
    <circle cx="-1592.257" cy="387.91" r="2"/>
    <circle cx="-1624.12" cy="394.91" r="2"/>
    <circle cx="-1656.822" cy="386.744" r="2"/>
    <circle cx="-1661.853" cy="379.744" r="2"/>
    <circle cx="-1606.512" cy="386.744" r="2"/>
    <circle cx="-1621.605" cy="378.577" r="2"/>
    <circle cx="-1650.114" cy="377.41" r="2"/>
    <circle cx="-1530.207" cy="387.91" r="2"/>
    <circle cx="-1621.605" cy="390.244" r="2"/>
    <circle cx="-1618.251" cy="386.744" r="2"/>
    <circle cx="-1614.058" cy="392.577" r="2"/>
    <circle cx="-1651.791" cy="391.41" r="2"/>
    <circle cx="-1655.145" cy="371.577" r="2"/>
    <circle cx="-1665.207" cy="393.744" r="2"/>
    <circle cx="-1643.406" cy="400.744" r="2"/>
    <circle cx="-1612.381" cy="384.41" r="2"/>
    <circle cx="-1526.015" cy="383.244" r="2"/>
    <circle cx="-1561.232" cy="373.91" r="2"/>
    <circle cx="-1515.953" cy="358.744" r="2"/>
    <circle cx="-1638.375" cy="385.577" r="2"/>
    <circle cx="-1667.723" cy="389.077" r="2"/>
    <circle cx="-1616.574" cy="361.077" r="2"/>
    <circle cx="-1673.592" cy="390.244" r="2"/>
    <circle cx="-1504.213" cy="589.744" r="2"/>
    <circle cx="-1671.077" cy="380.91" r="2"/>
    <circle cx="-1636.698" cy="376.244" r="2"/>
    <circle cx="-1636.698" cy="375.077" r="2"/>
    <circle cx="-1687.847" cy="401.91" r="2"/>
    <circle cx="-1650.953" cy="383.244" r="2"/>
    <circle cx="-1573.81" cy="414.744" r="2"/>
    <circle cx="-1531.884" cy="373.91" r="2"/>
    <circle cx="-1603.996" cy="368.077" r="2"/>
    <circle cx="-1672.754" cy="408.91" r="2"/>
    <circle cx="-1535.238" cy="392.577" r="2"/>
    <circle cx="-1701.263" cy="384.41" r="2"/>
    <circle cx="-1701.263" cy="387.91" r="2"/>
    <circle cx="-1634.182" cy="371.577" r="2"/>
    <circle cx="-1645.083" cy="380.91" r="2"/>
    <circle cx="-1607.35" cy="370.41" r="2"/>
    <circle cx="-1595.611" cy="403.077" r="2"/>
    <circle cx="-1607.35" cy="399.577" r="2"/>
    <circle cx="-1536.915" cy="406.577" r="2"/>
    <circle cx="-1297.94" cy="422.91" r="2"/>
    <circle cx="-1683.654" cy="383.244" r="2"/>
    <circle cx="-1608.189" cy="396.077" r="2"/>
    <circle cx="-1549.493" cy="375.077" r="2"/>
    <circle cx="-1678.623" cy="384.41" r="2"/>
    <circle cx="-1609.866" cy="386.744" r="2"/>
    <circle cx="-1628.313" cy="389.077" r="2"/>
    <circle cx="-1498.344" cy="391.41" r="2"/>
    <circle cx="-1710.487" cy="397.244" r="2"/>
    <circle cx="-1676.108" cy="396.077" r="2"/>
    <circle cx="-1604.835" cy="397.244" r="2"/>
    <circle cx="-1561.232" cy="404.244" r="2"/>
    <circle cx="-1664.369" cy="412.41" r="2"/>
    <circle cx="-1583.872" cy="386.744" r="2"/>
    <circle cx="-1595.611" cy="391.41" r="2"/>
    <circle cx="-1484.089" cy="375.077" r="2"/>
    <circle cx="-1458.934" cy="399.577" r="2"/>
    <circle cx="-1625.797" cy="373.91" r="2"/>
    <circle cx="-1618.251" cy="371.577" r="2"/>
    <circle cx="-1530.207" cy="351.744" r="2"/>
    <circle cx="-1417.008" cy="380.91" r="2"/>
    <circle cx="-1502.536" cy="373.91" r="2"/>
    <circle cx="-1502.536" cy="222.244" r="2"/>
    <circle cx="-1489.12" cy="489.41" r="2"/>
    <circle cx="-1667.723" cy="364.577" r="2"/>
    <circle cx="-1201.512" cy="411.244" r="2"/>
    <circle cx="-1480.735" cy="396.077" r="2"/>
    <circle cx="-1582.195" cy="404.244" r="2"/>
    <circle cx="-1564.586" cy="401.91" r="2"/>
    <circle cx="-1473.189" cy="349.41" r="2"/>
    <circle cx="-1457.257" cy="355.244" r="2"/>
    <circle cx="-1554.524" cy="372.744" r="2"/>
    <circle cx="-1470.673" cy="413.577" r="2"/>
    <circle cx="-1594.772" cy="375.077" r="2"/>
    <circle cx="-1646.76" cy="379.744" r="2"/>
    <circle cx="-1589.741" cy="345.91" r="2"/>
    <circle cx="-1610.704" cy="390.244" r="2"/>
    <circle cx="-1621.605" cy="372.744" r="2"/>
    <circle cx="-1578.002" cy="371.577" r="2"/>
    <circle cx="-1382.63" cy="331.91" r="2"/>
    <circle cx="-1631.667" cy="366.91" r="2"/>
    <circle cx="-1412.816" cy="356.41" r="2"/>
    <circle cx="-1448.033" cy="363.41" r="2"/>
    <circle cx="-1541.108" cy="299.244" r="2"/>
    <circle cx="-1637.536" cy="370.41" r="2"/>
    <circle cx="-1562.071" cy="398.41" r="2"/>
    <circle cx="-1636.698" cy="394.91" r="2"/>
    <circle cx="-1646.76" cy="421.744" r="2"/>
    <circle cx="-1646.76" cy="405.41" r="2"/>
    <circle cx="-1636.698" cy="221.077" r="2"/>
    <circle cx="-1560.394" cy="373.91" r="2"/>
    <circle cx="-1510.921" cy="429.91" r="2"/>
    <circle cx="-1573.81" cy="390.244" r="2"/>
    <circle cx="-1574.648" cy="466.077" r="2"/>
    <circle cx="-1688.685" cy="382.077" r="2"/>
    <circle cx="-1645.921" cy="348.244" r="2"/>
    <circle cx="-1606.512" cy="334.244" r="2"/>
    <circle cx="-1635.021" cy="358.744" r="2"/>
    <circle cx="-1621.605" cy="361.077" r="2"/>
    <circle cx="-1485.766" cy="369.244" r="2"/>
    <circle cx="-1531.046" cy="265.41" r="2"/>
    <circle cx="-1592.257" cy="281.744" r="2"/>
    <circle cx="-1592.257" cy="368.077" r="2"/>
    <circle cx="-1614.897" cy="331.91" r="2"/>
    <circle cx="-1633.344" cy="400.744" r="2"/>
    <circle cx="-1615.735" cy="351.744" r="2"/>
    <circle cx="-1644.244" cy="368.077" r="2"/>
    <circle cx="-1661.853" cy="359.91" r="2"/>
  </g>
<style>
#g-fred_scatter-mobile-interactions-img rect, #g-fred_scatter-mobile-interactions-img circle, #g-fred_scatter-mobile-interactions-img path, #g-fred_scatter-mobile-interactions-img line, #g-fred_scatter-mobile-interactions-img polyline, #g-fred_scatter-mobile-interactions-img polygon { vector-effect: non-scaling-stroke; }
</style>
</svg>
