<?xml version="1.0" encoding="UTF-8"?>
<svg id="g-fred_scatter-full-interactions-img" xmlns="http://www.w3.org/2000/svg" baseProfile="tiny" version="1.2" viewBox="0 0 700 620">
  <!-- Generator: Adobe Illustrator 29.5.0, SVG Export Plug-In . SVG Version: 2.1.0 Build 137)  -->
  <path id="highlight1" d="M670.86,509.5H79.86v-162c197,.333,394,.667,591,1v161Z" fill="#f1e1ff"/>
  <path id="highlight2" d="M670.86,347.5H79.86C276.86,240.833,473.86,134.167,670.86,27.5v320Z" fill="#f1e1ff"/>
  <line x1="64" y1="26.5" x2="704" y2="26.5" fill="none" stroke="#ccc"/>
  <line x1="56.86" y1="347.5" x2="696.86" y2="347.5" fill="none" stroke="#ccc"/>
  <line x1="56.86" y1="187" x2="696.86" y2="187" fill="none" stroke="#ccc"/>
  <line x1="56.86" y1="509.5" x2="696.86" y2="509.5" fill="none" stroke="#ccc"/>
  <line x1="227.288" y1="550" x2="227.288" fill="none" stroke="#ccc"/>
  <line x1="375.288" y1="550" x2="375.288" fill="none" stroke="#ccc"/>
  <line x1="523.288" y1="550" x2="523.288" fill="none" stroke="#ccc"/>
  <line x1="56.86" y1="26.5" x2="696.86" y2="26.5" fill="none" stroke="#ccc"/>
  <line x1="79.288" y1="550" x2="79.288" fill="none" stroke="#ccc"/>
  <line x1="671.288" y1="550" x2="671.288" fill="none" stroke="#ccc"/>
  <circle id="powerposedot" cx="633.588" cy="300.077" r="2"/>
  <g id="powerposepath">
    <path d="M611.86,255.5c-.803,1.701-6.718,14.792,0,27.857,2.201,4.28,5.138,7.352,7.769,9.476" fill="none" stroke="#000" stroke-miterlimit="10"/>
    <path d="M624.664,296.161c-2.942-.72-6.868-1.207-9.744-.854l4.091-2.974,1.242-4.902c.741,2.801,2.65,6.266,4.411,8.73Z"/>
  </g>
  <g id="replicationline">
    <line x1="83.86" y1="347.5" x2="670.86" y2="27.5"/>
    <g>
      <line x1="83.86" y1="347.5" x2="86.494" y2="346.064" fill="none" stroke="#000" stroke-miterlimit="10"/>
      <line x1="91.735" y1="343.207" x2="665.606" y2="30.364" fill="none" stroke="#000" stroke-dasharray="5.969 5.969" stroke-miterlimit="10"/>
      <line x1="668.226" y1="28.936" x2="670.86" y2="27.5" fill="none" stroke="#000" stroke-miterlimit="10"/>
    </g>
  </g>
  <g id="otherreplication">
    <circle cx="1209.296" cy="302.244" r="1.5"/>
    <circle cx="1209.296" cy="343.077" r="1.5"/>
    <circle cx="1215.512" cy="340.744" r="1.5"/>
    <circle cx="1202.515" cy="322.077" r="1.5"/>
    <circle cx="1209.296" cy="268.41" r="1.5"/>
    <circle cx="1252.811" cy="207.744" r="1.5"/>
    <circle cx="1218.903" cy="327.91" r="1.5"/>
    <circle cx="1269.765" cy="260.244" r="1.5"/>
    <circle cx="1195.168" cy="302.244" r="1.5"/>
    <circle cx="1267.504" cy="315.077" r="1.5"/>
    <circle cx="1351.143" cy="235.744" r="1.5"/>
    <circle cx="1222.859" cy="326.744" r="1.5"/>
    <circle cx="1259.592" cy="283.577" r="1.5"/>
    <circle cx="1234.727" cy="298.744" r="1.5"/>
    <circle cx="1215.512" cy="310.41" r="1.5"/>
    <circle cx="1187.256" cy="339.577" r="1.5"/>
    <circle cx="1268.634" cy="254.41" r="1.5"/>
    <circle cx="1182.17" cy="343.077" r="1.5"/>
    <circle cx="1292.37" cy="24.577" r="1.5"/>
    <circle cx="1183.3" cy="309.244" r="1.5"/>
    <circle cx="1498.075" cy="24.577" r="1.5"/>
    <circle cx="1279.372" cy="343.077" r="1.5"/>
    <circle cx="1229.641" cy="290.577" r="1.5"/>
    <circle cx="1133.004" cy="313.91" r="1.5"/>
    <circle cx="1329.103" cy="184.41" r="1.5"/>
    <circle cx="1200.254" cy="329.077" r="1.5"/>
    <circle cx="1234.162" cy="312.744" r="1.5"/>
    <circle cx="1154.479" cy="297.577" r="1.5"/>
    <circle cx="1218.903" cy="364.077" r="1.5"/>
    <circle cx="1176.519" cy="320.91" r="1.5"/>
    <circle cx="1203.645" cy="338.41" r="1.5"/>
    <circle cx="1141.481" cy="357.077" r="1.5"/>
    <circle cx="1141.481" cy="404.91" r="1.5"/>
    <circle cx="1141.481" cy="346.577" r="1.5"/>
    <circle cx="1141.481" cy="392.077" r="1.5"/>
    <circle cx="1162.956" cy="329.077" r="1.5"/>
    <circle cx="1159" cy="341.91" r="1.5"/>
    <circle cx="1147.132" cy="319.744" r="1.5"/>
    <circle cx="1182.17" cy="334.91" r="1.5"/>
    <circle cx="1186.126" cy="347.744" r="1.5"/>
    <circle cx="1181.04" cy="303.41" r="1.5"/>
    <circle cx="1214.947" cy="340.744" r="1.5"/>
    <circle cx="1214.947" cy="358.244" r="1.5"/>
    <circle cx="1214.947" cy="332.577" r="1.5"/>
    <circle cx="1187.821" cy="296.41" r="1.5"/>
    <circle cx="1246.029" cy="346.577" r="1.5"/>
    <circle cx="1226.25" cy="352.41" r="1.5"/>
    <circle cx="1251.115" cy="353.577" r="1.5"/>
    <circle cx="1139.221" cy="387.41" r="1.5"/>
    <circle cx="1338.145" cy="333.744" r="1.5"/>
    <circle cx="1338.145" cy="547.244" r="1.5"/>
    <circle cx="1278.241" cy="358.244" r="1.5"/>
    <circle cx="1210.991" cy="340.744" r="1.5"/>
    <circle cx="1287.283" cy="337.244" r="1.5"/>
    <circle cx="1220.599" cy="368.744" r="1.5"/>
    <circle cx="1165.781" cy="24.577" r="1.5"/>
    <circle cx="1238.683" cy="446.91" r="1.5"/>
    <circle cx="1171.433" cy="368.744" r="1.5"/>
    <circle cx="1216.078" cy="344.244" r="1.5"/>
    <circle cx="1226.815" cy="256.744" r="1.5"/>
    <circle cx="1280.502" cy="24.577" r="1.5"/>
    <circle cx="1279.372" cy="270.744" r="1.5"/>
    <circle cx="1306.498" cy="249.744" r="1.5"/>
    <circle cx="1135.83" cy="348.91" r="1.5"/>
    <circle cx="1153.914" cy="135.41" r="1.5"/>
    <circle cx="1186.691" cy="350.077" r="1.5"/>
    <circle cx="1180.475" cy="332.577" r="1.5"/>
    <circle cx="1226.815" cy="256.744" r="1.5"/>
    <circle cx="1223.989" cy="322.077" r="1.5"/>
    <circle cx="1223.424" cy="242.744" r="1.5"/>
    <circle cx="1151.653" cy="24.577" r="1.5"/>
    <circle cx="1172.563" cy="245.077" r="1.5"/>
    <circle cx="1251.681" cy="178.577" r="1.5"/>
    <circle cx="1213.817" cy="361.744" r="1.5"/>
    <circle cx="1235.292" cy="137.744" r="1.5"/>
    <circle cx="1307.628" cy="211.244" r="1.5"/>
    <circle cx="1221.729" cy="215.91" r="1.5"/>
    <circle cx="1239.248" cy="411.91" r="1.5"/>
    <circle cx="1185.561" cy="338.41" r="1.5"/>
    <circle cx="1182.735" cy="334.91" r="1.5"/>
    <circle cx="1195.733" cy="24.577" r="1.5"/>
    <circle cx="1250.55" cy="303.41" r="1.5"/>
    <circle cx="1177.649" cy="318.577" r="1.5"/>
    <circle cx="1248.29" cy="212.41" r="1.5"/>
    <circle cx="1246.029" cy="261.41" r="1.5"/>
    <circle cx="1239.813" cy="284.744" r="1.5"/>
    <circle cx="1170.868" cy="298.744" r="1.5"/>
    <circle cx="1156.174" cy="331.41" r="1.5"/>
    <circle cx="1214.382" cy="316.244" r="1.5"/>
    <circle cx="1209.296" cy="325.577" r="1.5"/>
    <circle cx="1260.723" cy="423.577" r="1.5"/>
    <circle cx="1239.813" cy="316.244" r="1.5"/>
    <circle cx="1201.949" cy="317.41" r="1.5"/>
    <circle cx="1180.475" cy="315.077" r="1.5"/>
    <circle cx="1260.723" cy="257.91" r="1.5"/>
    <circle cx="1368.096" cy="220.577" r="1.5"/>
    <circle cx="1409.916" cy="95.744" r="1.5"/>
    <circle cx="1399.178" cy="197.244" r="1.5"/>
    <circle cx="1340.405" cy="178.577" r="1.5"/>
    <circle cx="1275.981" cy="256.744" r="1.5"/>
    <circle cx="1282.197" cy="225.244" r="1.5"/>
    <circle cx="1425.174" cy="120.244" r="1.5"/>
    <circle cx="1379.399" cy="192.577" r="1.5"/>
    <circle cx="1337.014" cy="246.244" r="1.5"/>
    <circle cx="1415.567" cy="127.244" r="1.5"/>
    <circle cx="1271.46" cy="299.91" r="1.5"/>
    <circle cx="1140.351" cy="340.744" r="1.5"/>
    <circle cx="1331.928" cy="277.744" r="1.5"/>
    <circle cx="1264.113" cy="275.41" r="1.5"/>
    <circle cx="1410.481" cy="105.077" r="1.5"/>
    <circle cx="1402.569" cy="101.577" r="1.5"/>
    <circle cx="1358.489" cy="136.577" r="1.5"/>
    <circle cx="1246.029" cy="243.91" r="1.5"/>
    <circle cx="1470.384" cy="80.577" r="1.5"/>
    <circle cx="1418.958" cy="49.077" r="1.5"/>
    <circle cx="1404.264" cy="177.41" r="1.5"/>
    <circle cx="1308.758" cy="211.244" r="1.5"/>
    <circle cx="1214.947" cy="186.744" r="1.5"/>
    <circle cx="1367.531" cy="150.577" r="1.5"/>
    <circle cx="1437.607" cy="136.577" r="1.5"/>
    <circle cx="1263.548" cy="280.077" r="1.5"/>
    <circle cx="1374.878" cy="130.744" r="1.5"/>
    <circle cx="1281.067" cy="225.244" r="1.5"/>
    <circle cx="1197.994" cy="327.91" r="1.5"/>
    <circle cx="1197.994" cy="324.41" r="1.5"/>
    <circle cx="1246.594" cy="245.077" r="1.5"/>
    <circle cx="1246.594" cy="306.91" r="1.5"/>
    <circle cx="1509.943" cy="28.077" r="1.5"/>
    <circle cx="1447.214" cy="142.41" r="1.5"/>
    <circle cx="1302.542" cy="296.41" r="1.5"/>
    <circle cx="1376.573" cy="245.077" r="1.5"/>
    <circle cx="1437.607" cy="225.244" r="1.5"/>
    <circle cx="1387.876" cy="284.744" r="1.5"/>
    <circle cx="1374.313" cy="192.577" r="1.5"/>
    <circle cx="1365.271" cy="185.577" r="1.5"/>
    <circle cx="1359.619" cy="268.41" r="1.5"/>
    <circle cx="1342.101" cy="179.744" r="1.5"/>
    <circle cx="1285.588" cy="268.41" r="1.5"/>
    <circle cx="1177.084" cy="323.244" r="1.5"/>
    <circle cx="1177.084" cy="319.744" r="1.5"/>
    <circle cx="1177.084" cy="318.577" r="1.5"/>
    <circle cx="1226.25" cy="327.91" r="1.5"/>
    <circle cx="1226.25" cy="263.744" r="1.5"/>
    <circle cx="1177.084" cy="325.577" r="1.5"/>
    <circle cx="1226.25" cy="327.91" r="1.5"/>
    <circle cx="1226.25" cy="306.91" r="1.5"/>
    <circle cx="1177.084" cy="336.077" r="1.5"/>
    <circle cx="1177.084" cy="331.41" r="1.5"/>
    <circle cx="1177.084" cy="332.577" r="1.5"/>
    <circle cx="1177.084" cy="327.91" r="1.5"/>
    <circle cx="1177.084" cy="336.077" r="1.5"/>
    <circle cx="1192.342" cy="329.077" r="1.5"/>
    <circle cx="1194.038" cy="329.077" r="1.5"/>
    <circle cx="1192.342" cy="323.244" r="1.5"/>
    <circle cx="1194.038" cy="324.41" r="1.5"/>
    <circle cx="1192.342" cy="327.91" r="1.5"/>
    <circle cx="1194.038" cy="329.077" r="1.5"/>
    <circle cx="1192.342" cy="329.077" r="1.5"/>
    <circle cx="1186.691" cy="333.744" r="1.5"/>
    <circle cx="1390.136" cy="196.077" r="1.5"/>
    <circle cx="1191.212" cy="238.077" r="1.5"/>
    <circle cx="1318.365" cy="287.077" r="1.5"/>
    <circle cx="1238.683" cy="141.244" r="1.5"/>
    <circle cx="1166.912" cy="296.41" r="1.5"/>
    <circle cx="1246.594" cy="208.91" r="1.5"/>
    <circle cx="1266.939" cy="277.744" r="1.5"/>
    <circle cx="1285.588" cy="238.077" r="1.5"/>
    <circle cx="1200.254" cy="290.577" r="1.5"/>
    <circle cx="1216.643" cy="283.577" r="1.5"/>
    <circle cx="1200.819" cy="310.41" r="1.5"/>
    <circle cx="1379.399" cy="269.577" r="1.5"/>
    <circle cx="1385.615" cy="252.077" r="1.5"/>
    <circle cx="1244.334" cy="284.744" r="1.5"/>
    <circle cx="1457.386" cy="276.577" r="1.5"/>
    <circle cx="1217.208" cy="250.91" r="1.5"/>
    <circle cx="1295.195" cy="248.577" r="1.5"/>
    <circle cx="1376.573" cy="295.244" r="1.5"/>
    <circle cx="1222.859" cy="313.91" r="1.5"/>
    <circle cx="1229.075" cy="267.244" r="1.5"/>
    <circle cx="1448.344" cy="207.744" r="1.5"/>
    <circle cx="1265.244" cy="309.244" r="1.5"/>
    <circle cx="1284.458" cy="267.244" r="1.5"/>
    <circle cx="1275.416" cy="313.91" r="1.5"/>
    <circle cx="1277.676" cy="222.91" r="1.5"/>
    <circle cx="1230.771" cy="271.91" r="1.5"/>
    <circle cx="1250.55" cy="290.577" r="1.5"/>
    <circle cx="1240.378" cy="317.41" r="1.5"/>
    <circle cx="1285.023" cy="253.244" r="1.5"/>
    <circle cx="1195.733" cy="304.577" r="1.5"/>
    <circle cx="1202.515" cy="322.077" r="1.5"/>
    <circle cx="1193.473" cy="281.244" r="1.5"/>
    <circle cx="1213.252" cy="324.41" r="1.5"/>
    <circle cx="1431.955" cy="151.744" r="1.5"/>
    <circle cx="1426.869" cy="106.244" r="1.5"/>
    <circle cx="1229.641" cy="297.577" r="1.5"/>
    <circle cx="1229.641" cy="271.91" r="1.5"/>
    <circle cx="1257.332" cy="256.744" r="1.5"/>
    <circle cx="1175.389" cy="290.577" r="1.5"/>
    <circle cx="1175.389" cy="296.41" r="1.5"/>
    <circle cx="1175.389" cy="338.41" r="1.5"/>
    <circle cx="1175.389" cy="338.41" r="1.5"/>
    <circle cx="1175.389" cy="319.744" r="1.5"/>
    <circle cx="1257.332" cy="312.744" r="1.5"/>
    <circle cx="1328.538" cy="217.077" r="1.5"/>
    <circle cx="1514.464" cy="80.577" r="1.5"/>
    <circle cx="1242.073" cy="301.077" r="1.5"/>
    <circle cx="1340.405" cy="232.244" r="1.5"/>
    <circle cx="1399.743" cy="207.744" r="1.5"/>
    <circle cx="1220.033" cy="289.41" r="1.5"/>
    <circle cx="1456.256" cy="79.41" r="1.5"/>
    <circle cx="1382.79" cy="236.91" r="1.5"/>
    <circle cx="1371.487" cy="224.077" r="1.5"/>
    <circle cx="1311.019" cy="158.744" r="1.5"/>
    <circle cx="1311.584" cy="233.41" r="1.5"/>
    <circle cx="1210.991" cy="311.577" r="1.5"/>
    <circle cx="1281.067" cy="299.91" r="1.5"/>
    <circle cx="1399.743" cy="156.41" r="1.5"/>
    <circle cx="1365.271" cy="135.41" r="1.5"/>
    <circle cx="1442.693" cy="166.91" r="1.5"/>
    <circle cx="1308.193" cy="184.41" r="1.5"/>
    <circle cx="1279.372" cy="210.077" r="1.5"/>
    <circle cx="1279.372" cy="210.077" r="1.5"/>
    <circle cx="1261.288" cy="231.077" r="1.5"/>
    <circle cx="1283.893" cy="284.744" r="1.5"/>
    <circle cx="1231.336" cy="302.244" r="1.5"/>
    <circle cx="1197.994" cy="308.077" r="1.5"/>
    <circle cx="1207.601" cy="319.744" r="1.5"/>
    <circle cx="1290.109" cy="329.077" r="1.5"/>
    <circle cx="1366.401" cy="150.577" r="1.5"/>
    <circle cx="1314.409" cy="154.077" r="1.5"/>
    <circle cx="1461.907" cy="99.244" r="1.5"/>
    <circle cx="1285.588" cy="277.744" r="1.5"/>
    <circle cx="1218.903" cy="325.577" r="1.5"/>
    <circle cx="1207.036" cy="274.244" r="1.5"/>
    <circle cx="1225.685" cy="277.744" r="1.5"/>
    <circle cx="1318.365" cy="78.244" r="1.5"/>
    <circle cx="1318.365" cy="283.577" r="1.5"/>
    <circle cx="1401.439" cy="137.744" r="1.5"/>
    <circle cx="1271.46" cy="299.91" r="1.5"/>
    <circle cx="1417.827" cy="106.244" r="1.5"/>
    <circle cx="1340.405" cy="177.41" r="1.5"/>
    <circle cx="1457.951" cy="166.91" r="1.5"/>
    <circle cx="1239.248" cy="294.077" r="1.5"/>
    <circle cx="1223.424" cy="242.744" r="1.5"/>
    <circle cx="1440.997" cy="225.244" r="1.5"/>
    <circle cx="1248.29" cy="270.744" r="1.5"/>
    <circle cx="1365.836" cy="285.91" r="1.5"/>
    <circle cx="1378.269" cy="74.744" r="1.5"/>
    <circle cx="1236.422" cy="277.744" r="1.5"/>
    <circle cx="1287.283" cy="215.91" r="1.5"/>
    <circle cx="1237.552" cy="287.077" r="1.5"/>
    <circle cx="1394.657" cy="140.077" r="1.5"/>
    <circle cx="1315.54" cy="152.91" r="1.5"/>
    <circle cx="1516.159" cy="114.41" r="1.5"/>
    <circle cx="1333.624" cy="271.91" r="1.5"/>
    <circle cx="1305.933" cy="211.244" r="1.5"/>
    <circle cx="1413.306" cy="221.744" r="1.5"/>
    <circle cx="1457.951" cy="166.91" r="1.5"/>
    <circle cx="1517.289" cy="151.744" r="1.5"/>
    <circle cx="1296.325" cy="185.577" r="1.5"/>
    <circle cx="1310.454" cy="183.244" r="1.5"/>
    <circle cx="1321.756" cy="238.077" r="1.5"/>
    <circle cx="1256.202" cy="235.744" r="1.5"/>
    <circle cx="1408.22" cy="124.91" r="1.5"/>
    <circle cx="1273.72" cy="212.41" r="1.5"/>
    <circle cx="1303.107" cy="143.577" r="1.5"/>
    <circle cx="1300.281" cy="255.577" r="1.5"/>
    <circle cx="1359.054" cy="263.744" r="1.5"/>
    <circle cx="1430.26" cy="177.41" r="1.5"/>
    <circle cx="1266.939" cy="217.077" r="1.5"/>
    <circle cx="1292.37" cy="214.744" r="1.5"/>
    <circle cx="1228.51" cy="225.244" r="1.5"/>
    <circle cx="1283.328" cy="256.744" r="1.5"/>
    <circle cx="1243.769" cy="182.077" r="1.5"/>
    <circle cx="1243.769" cy="249.744" r="1.5"/>
    <circle cx="1243.769" cy="243.91" r="1.5"/>
    <circle cx="1243.769" cy="205.41" r="1.5"/>
    <circle cx="1243.769" cy="218.244" r="1.5"/>
    <circle cx="1243.769" cy="253.244" r="1.5"/>
    <circle cx="1243.769" cy="254.41" r="1.5"/>
    <circle cx="1243.769" cy="225.244" r="1.5"/>
    <circle cx="1243.769" cy="271.91" r="1.5"/>
    <circle cx="1243.769" cy="268.41" r="1.5"/>
    <circle cx="1243.769" cy="191.41" r="1.5"/>
    <circle cx="1243.769" cy="148.244" r="1.5"/>
    <circle cx="1209.296" cy="289.41" r="1.5"/>
    <circle cx="1261.288" cy="263.744" r="1.5"/>
    <circle cx="1256.202" cy="367.577" r="1.5"/>
    <circle cx="1256.202" cy="352.41" r="1.5"/>
    <circle cx="1286.153" cy="338.41" r="1.5"/>
    <circle cx="1192.907" cy="298.744" r="1.5"/>
    <circle cx="1188.386" cy="358.244" r="1.5"/>
    <circle cx="1287.283" cy="457.41" r="1.5"/>
    <circle cx="1287.283" cy="284.744" r="1.5"/>
    <circle cx="1188.386" cy="368.744" r="1.5"/>
    <circle cx="1287.283" cy="353.577" r="1.5"/>
    <circle cx="1261.288" cy="324.41" r="1.5"/>
    <circle cx="1298.586" cy="327.91" r="1.5"/>
    <circle cx="1256.202" cy="382.744" r="1.5"/>
    <circle cx="1226.25" cy="351.244" r="1.5"/>
    <circle cx="1368.096" cy="301.077" r="1.5"/>
    <circle cx="1374.878" cy="274.244" r="1.5"/>
    <circle cx="1300.846" cy="418.91" r="1.5"/>
    <circle cx="1222.294" cy="350.077" r="1.5"/>
    <circle cx="1314.975" cy="304.577" r="1.5"/>
    <circle cx="1416.132" cy="305.744" r="1.5"/>
    <circle cx="1355.098" cy="385.077" r="1.5"/>
    <circle cx="1354.533" cy="218.244" r="1.5"/>
    <circle cx="1220.599" cy="341.91" r="1.5"/>
    <circle cx="1277.111" cy="316.244" r="1.5"/>
    <circle cx="1269.765" cy="296.41" r="1.5"/>
    <circle cx="1221.164" cy="365.244" r="1.5"/>
    <circle cx="1282.197" cy="358.244" r="1.5"/>
    <circle cx="1214.382" cy="298.744" r="1.5"/>
    <circle cx="1213.252" cy="318.577" r="1.5"/>
    <circle cx="1281.632" cy="323.244" r="1.5"/>
    <circle cx="1282.197" cy="361.744" r="1.5"/>
    <circle cx="1197.994" cy="337.244" r="1.5"/>
    <circle cx="1218.903" cy="350.077" r="1.5"/>
    <circle cx="1240.378" cy="324.41" r="1.5"/>
    <circle cx="1300.846" cy="311.577" r="1.5"/>
    <circle cx="1303.107" cy="345.41" r="1.5"/>
    <circle cx="1205.34" cy="347.744" r="1.5"/>
    <circle cx="1220.033" cy="324.41" r="1.5"/>
    <circle cx="1213.817" cy="333.744" r="1.5"/>
    <circle cx="1238.117" cy="381.577" r="1.5"/>
    <circle cx="1251.115" cy="261.41" r="1.5"/>
    <circle cx="1288.979" cy="344.244" r="1.5"/>
    <circle cx="1257.897" cy="392.077" r="1.5"/>
    <circle cx="1282.197" cy="360.577" r="1.5"/>
    <circle cx="1283.328" cy="421.244" r="1.5"/>
    <circle cx="1220.033" cy="315.077" r="1.5"/>
    <circle cx="1352.273" cy="318.577" r="1.5"/>
    <circle cx="1331.363" cy="494.744" r="1.5"/>
    <circle cx="1216.643" cy="364.077" r="1.5"/>
    <circle cx="1282.762" cy="267.244" r="1.5"/>
    <circle cx="1284.458" cy="359.41" r="1.5"/>
    <circle cx="1329.668" cy="315.077" r="1.5"/>
    <circle cx="1224.554" cy="333.744" r="1.5"/>
    <circle cx="1390.136" cy="187.91" r="1.5"/>
    <circle cx="1206.47" cy="358.244" r="1.5"/>
    <circle cx="1206.47" cy="343.077" r="1.5"/>
    <circle cx="1418.958" cy="281.244" r="1.5"/>
    <circle cx="1290.674" cy="347.744" r="1.5"/>
    <circle cx="1473.775" cy="309.244" r="1.5"/>
    <circle cx="1302.542" cy="312.744" r="1.5"/>
    <circle cx="1255.071" cy="359.41" r="1.5"/>
    <circle cx="1263.548" cy="283.577" r="1.5"/>
    <circle cx="1263.548" cy="316.244" r="1.5"/>
    <circle cx="1210.991" cy="347.744" r="1.5"/>
    <circle cx="1208.166" cy="339.577" r="1.5"/>
    <circle cx="1435.911" cy="353.577" r="1.5"/>
    <circle cx="1435.911" cy="341.91" r="1.5"/>
    <circle cx="1487.903" cy="452.744" r="1.5"/>
    <circle cx="1383.355" cy="452.744" r="1.5"/>
    <circle cx="1318.365" cy="308.077" r="1.5"/>
    <circle cx="1199.124" cy="365.244" r="1.5"/>
    <circle cx="1268.069" cy="341.91" r="1.5"/>
    <circle cx="1268.069" cy="386.244" r="1.5"/>
    <circle cx="1242.073" cy="364.077" r="1.5"/>
    <circle cx="1242.073" cy="332.577" r="1.5"/>
    <circle cx="1285.023" cy="407.244" r="1.5"/>
    <circle cx="1231.336" cy="515.744" r="1.5"/>
    <circle cx="1226.25" cy="420.077" r="1.5"/>
    <circle cx="1249.42" cy="313.91" r="1.5"/>
    <circle cx="1269.765" cy="325.577" r="1.5"/>
    <circle cx="1226.25" cy="332.577" r="1.5"/>
    <circle cx="1177.084" cy="340.744" r="1.5"/>
    <circle cx="1177.084" cy="337.244" r="1.5"/>
    <circle cx="1226.25" cy="333.744" r="1.5"/>
    <circle cx="1177.084" cy="341.91" r="1.5"/>
    <circle cx="1226.25" cy="350.077" r="1.5"/>
    <circle cx="1226.25" cy="344.244" r="1.5"/>
    <circle cx="1226.25" cy="348.91" r="1.5"/>
    <circle cx="1226.25" cy="382.744" r="1.5"/>
    <circle cx="1226.25" cy="369.91" r="1.5"/>
    <circle cx="1226.25" cy="375.744" r="1.5"/>
    <circle cx="1174.823" cy="420.077" r="1.5"/>
    <circle cx="1186.691" cy="396.744" r="1.5"/>
    <circle cx="1186.691" cy="340.744" r="1.5"/>
    <circle cx="1174.823" cy="479.577" r="1.5"/>
    <circle cx="1186.691" cy="444.577" r="1.5"/>
    <circle cx="1186.691" cy="336.077" r="1.5"/>
    <circle cx="1174.823" cy="344.244" r="1.5"/>
    <circle cx="1186.691" cy="341.91" r="1.5"/>
    <circle cx="1186.691" cy="338.41" r="1.5"/>
    <circle cx="1174.823" cy="453.91" r="1.5"/>
    <circle cx="1194.038" cy="338.41" r="1.5"/>
    <circle cx="1186.691" cy="439.91" r="1.5"/>
    <circle cx="1175.389" cy="371.077" r="1.5"/>
    <circle cx="1191.212" cy="325.577" r="1.5"/>
    <circle cx="1199.124" cy="345.41" r="1.5"/>
    <circle cx="1358.489" cy="455.077" r="1.5"/>
    <circle cx="1222.859" cy="455.077" r="1.5"/>
    <circle cx="1248.855" cy="345.41" r="1.5"/>
    <circle cx="1227.38" cy="352.41" r="1.5"/>
    <circle cx="1205.34" cy="344.244" r="1.5"/>
    <circle cx="1201.949" cy="337.244" r="1.5"/>
    <circle cx="1239.248" cy="344.244" r="1.5"/>
    <circle cx="1229.075" cy="336.077" r="1.5"/>
    <circle cx="1209.861" cy="334.91" r="1.5"/>
    <circle cx="1290.674" cy="345.41" r="1.5"/>
    <circle cx="1229.075" cy="347.744" r="1.5"/>
    <circle cx="1231.336" cy="344.244" r="1.5"/>
    <circle cx="1234.162" cy="350.077" r="1.5"/>
    <circle cx="1208.731" cy="348.91" r="1.5"/>
    <circle cx="1206.47" cy="329.077" r="1.5"/>
    <circle cx="1199.689" cy="351.244" r="1.5"/>
    <circle cx="1214.382" cy="358.244" r="1.5"/>
    <circle cx="1235.292" cy="341.91" r="1.5"/>
    <circle cx="1293.5" cy="340.744" r="1.5"/>
    <circle cx="1269.765" cy="331.41" r="1.5"/>
    <circle cx="1300.281" cy="316.244" r="1.5"/>
    <circle cx="1217.773" cy="343.077" r="1.5"/>
    <circle cx="1197.994" cy="346.577" r="1.5"/>
    <circle cx="1232.466" cy="318.577" r="1.5"/>
    <circle cx="1194.038" cy="347.744" r="1.5"/>
    <circle cx="1308.193" cy="547.244" r="1.5"/>
    <circle cx="1195.733" cy="338.41" r="1.5"/>
    <circle cx="1218.903" cy="333.744" r="1.5"/>
    <circle cx="1218.903" cy="332.577" r="1.5"/>
    <circle cx="1184.431" cy="359.41" r="1.5"/>
    <circle cx="1209.296" cy="340.744" r="1.5"/>
    <circle cx="1261.288" cy="372.244" r="1.5"/>
    <circle cx="1289.544" cy="331.41" r="1.5"/>
    <circle cx="1240.943" cy="325.577" r="1.5"/>
    <circle cx="1194.603" cy="366.41" r="1.5"/>
    <circle cx="1287.283" cy="350.077" r="1.5"/>
    <circle cx="1175.389" cy="341.91" r="1.5"/>
    <circle cx="1175.389" cy="345.41" r="1.5"/>
    <circle cx="1220.599" cy="329.077" r="1.5"/>
    <circle cx="1213.252" cy="338.41" r="1.5"/>
    <circle cx="1238.683" cy="327.91" r="1.5"/>
    <circle cx="1246.594" cy="360.577" r="1.5"/>
    <circle cx="1238.683" cy="357.077" r="1.5"/>
    <circle cx="1286.153" cy="364.077" r="1.5"/>
    <circle cx="1447.214" cy="380.41" r="1.5"/>
    <circle cx="1187.256" cy="340.744" r="1.5"/>
    <circle cx="1238.117" cy="353.577" r="1.5"/>
    <circle cx="1277.676" cy="332.577" r="1.5"/>
    <circle cx="1190.647" cy="341.91" r="1.5"/>
    <circle cx="1236.987" cy="344.244" r="1.5"/>
    <circle cx="1224.554" cy="346.577" r="1.5"/>
    <circle cx="1312.149" cy="348.91" r="1.5"/>
    <circle cx="1169.172" cy="354.744" r="1.5"/>
    <circle cx="1192.342" cy="353.577" r="1.5"/>
    <circle cx="1240.378" cy="354.744" r="1.5"/>
    <circle cx="1269.765" cy="361.744" r="1.5"/>
    <circle cx="1200.254" cy="369.91" r="1.5"/>
    <circle cx="1254.506" cy="344.244" r="1.5"/>
    <circle cx="1246.594" cy="348.91" r="1.5"/>
    <circle cx="1321.756" cy="332.577" r="1.5"/>
    <circle cx="1338.71" cy="357.077" r="1.5"/>
    <circle cx="1226.25" cy="331.41" r="1.5"/>
    <circle cx="1231.336" cy="329.077" r="1.5"/>
    <circle cx="1290.674" cy="309.244" r="1.5"/>
    <circle cx="1366.966" cy="338.41" r="1.5"/>
    <circle cx="1309.323" cy="331.41" r="1.5"/>
    <circle cx="1309.323" cy="179.744" r="1.5"/>
    <circle cx="1318.365" cy="446.91" r="1.5"/>
    <circle cx="1197.994" cy="322.077" r="1.5"/>
    <circle cx="1512.203" cy="368.744" r="1.5"/>
    <circle cx="1324.017" cy="353.577" r="1.5"/>
    <circle cx="1255.636" cy="361.744" r="1.5"/>
    <circle cx="1267.504" cy="359.41" r="1.5"/>
    <circle cx="1329.103" cy="306.91" r="1.5"/>
    <circle cx="1339.84" cy="312.744" r="1.5"/>
    <circle cx="1274.286" cy="330.244" r="1.5"/>
    <circle cx="1330.798" cy="371.077" r="1.5"/>
    <circle cx="1247.16" cy="332.577" r="1.5"/>
    <circle cx="1212.122" cy="337.244" r="1.5"/>
    <circle cx="1250.55" cy="303.41" r="1.5"/>
    <circle cx="1236.422" cy="347.744" r="1.5"/>
    <circle cx="1229.075" cy="330.244" r="1.5"/>
    <circle cx="1258.462" cy="329.077" r="1.5"/>
    <circle cx="1390.136" cy="289.41" r="1.5"/>
    <circle cx="1222.294" cy="324.41" r="1.5"/>
    <circle cx="1369.792" cy="313.91" r="1.5"/>
    <circle cx="1346.056" cy="320.91" r="1.5"/>
    <circle cx="1283.328" cy="256.744" r="1.5"/>
    <circle cx="1218.338" cy="327.91" r="1.5"/>
    <circle cx="1269.199" cy="355.91" r="1.5"/>
    <circle cx="1218.903" cy="352.41" r="1.5"/>
    <circle cx="1212.122" cy="379.244" r="1.5"/>
    <circle cx="1212.122" cy="362.91" r="1.5"/>
    <circle cx="1218.903" cy="178.577" r="1.5"/>
    <circle cx="1270.33" cy="331.41" r="1.5"/>
    <circle cx="1303.672" cy="387.41" r="1.5"/>
    <circle cx="1261.288" cy="347.744" r="1.5"/>
    <circle cx="1260.723" cy="423.577" r="1.5"/>
    <circle cx="1183.865" cy="339.577" r="1.5"/>
    <circle cx="1212.687" cy="305.744" r="1.5"/>
    <circle cx="1239.248" cy="291.744" r="1.5"/>
    <circle cx="1220.033" cy="316.244" r="1.5"/>
    <circle cx="1229.075" cy="318.577" r="1.5"/>
    <circle cx="1320.626" cy="326.744" r="1.5"/>
    <circle cx="1290.109" cy="222.91" r="1.5"/>
    <circle cx="1248.855" cy="239.244" r="1.5"/>
    <circle cx="1248.855" cy="325.577" r="1.5"/>
    <circle cx="1233.596" cy="289.41" r="1.5"/>
    <circle cx="1221.164" cy="358.244" r="1.5"/>
    <circle cx="1233.031" cy="309.244" r="1.5"/>
    <circle cx="1213.817" cy="325.577" r="1.5"/>
    <circle cx="1201.949" cy="317.41" r="1.5"/>
    <circle cx="1968.7" cy="230.345" r="1.5"/>
    <circle cx="1968.7" cy="267.465" r="1.5"/>
    <circle cx="1973.337" cy="265.344" r="1.5"/>
    <circle cx="1963.641" cy="248.375" r="1.5"/>
    <circle cx="1968.7" cy="199.589" r="1.5"/>
    <circle cx="2001.162" cy="144.44" r="1.5"/>
    <circle cx="1975.867" cy="253.677" r="1.5"/>
    <circle cx="2013.809" cy="192.165" r="1.5"/>
    <circle cx="1958.16" cy="230.345" r="1.5"/>
    <circle cx="2012.123" cy="242.011" r="1.5"/>
    <circle cx="2074.517" cy="169.893" r="1.5"/>
    <circle cx="1978.818" cy="252.617" r="1.5"/>
    <circle cx="2006.221" cy="213.376" r="1.5"/>
    <circle cx="1987.671" cy="227.164" r="1.5"/>
    <circle cx="1973.337" cy="237.769" r="1.5"/>
    <circle cx="1952.258" cy="264.283" r="1.5"/>
    <circle cx="2012.966" cy="186.862" r="1.5"/>
    <circle cx="1948.464" cy="267.465" r="1.5"/>
    <circle cx="2030.673" cy="-22.067" r="1.5"/>
    <circle cx="1949.307" cy="236.709" r="1.5"/>
    <circle cx="2184.129" cy="-22.067" r="1.5"/>
    <circle cx="2020.976" cy="267.465" r="1.5"/>
    <circle cx="1983.877" cy="219.74" r="1.5"/>
    <circle cx="1911.786" cy="240.951" r="1.5"/>
    <circle cx="2058.076" cy="123.229" r="1.5"/>
    <circle cx="1961.955" cy="254.738" r="1.5"/>
    <circle cx="1987.25" cy="239.89" r="1.5"/>
    <circle cx="1927.806" cy="226.103" r="1.5"/>
    <circle cx="1975.867" cy="286.555" r="1.5"/>
    <circle cx="1944.248" cy="247.314" r="1.5"/>
    <circle cx="1964.484" cy="263.222" r="1.5"/>
    <circle cx="1918.11" cy="280.191" r="1.5"/>
    <circle cx="1918.11" cy="323.674" r="1.5"/>
    <circle cx="1918.11" cy="270.646" r="1.5"/>
    <circle cx="1918.11" cy="312.008" r="1.5"/>
    <circle cx="1934.13" cy="254.738" r="1.5"/>
    <circle cx="1931.179" cy="266.404" r="1.5"/>
    <circle cx="1922.326" cy="246.254" r="1.5"/>
    <circle cx="1948.464" cy="260.041" r="1.5"/>
    <circle cx="1951.415" cy="271.707" r="1.5"/>
    <circle cx="1947.621" cy="231.406" r="1.5"/>
    <circle cx="1972.916" cy="265.344" r="1.5"/>
    <circle cx="1972.916" cy="281.252" r="1.5"/>
    <circle cx="1972.916" cy="257.92" r="1.5"/>
    <circle cx="1952.68" cy="225.042" r="1.5"/>
    <circle cx="1996.103" cy="270.646" r="1.5"/>
    <circle cx="1981.348" cy="275.949" r="1.5"/>
    <circle cx="1999.897" cy="277.01" r="1.5"/>
    <circle cx="1916.424" cy="307.766" r="1.5"/>
    <circle cx="2064.821" cy="258.98" r="1.5"/>
    <circle cx="2064.821" cy="453.062" r="1.5"/>
    <circle cx="2020.133" cy="281.252" r="1.5"/>
    <circle cx="1969.965" cy="265.344" r="1.5"/>
    <circle cx="2026.878" cy="262.162" r="1.5"/>
    <circle cx="1977.132" cy="290.797" r="1.5"/>
    <circle cx="1936.238" cy="-22.067" r="1.5"/>
    <circle cx="1990.622" cy="361.854" r="1.5"/>
    <circle cx="1940.454" cy="290.797" r="1.5"/>
    <circle cx="1973.759" cy="268.525" r="1.5"/>
    <circle cx="1981.769" cy="188.983" r="1.5"/>
    <circle cx="2021.819" cy="-22.067" r="1.5"/>
    <circle cx="2020.976" cy="201.71" r="1.5"/>
    <circle cx="2041.212" cy="182.62" r="1.5"/>
    <circle cx="1913.894" cy="272.767" r="1.5"/>
    <circle cx="1927.385" cy="78.685" r="1.5"/>
    <circle cx="1951.837" cy="273.828" r="1.5"/>
    <circle cx="1947.199" cy="257.92" r="1.5"/>
    <circle cx="1981.769" cy="188.983" r="1.5"/>
    <circle cx="1979.661" cy="248.375" r="1.5"/>
    <circle cx="1979.24" cy="176.257" r="1.5"/>
    <circle cx="1925.699" cy="-22.067" r="1.5"/>
    <circle cx="1941.297" cy="178.378" r="1.5"/>
    <circle cx="2000.319" cy="117.926" r="1.5"/>
    <circle cx="1972.073" cy="284.434" r="1.5"/>
    <circle cx="1988.093" cy="80.807" r="1.5"/>
    <circle cx="2042.055" cy="147.622" r="1.5"/>
    <circle cx="1977.975" cy="151.864" r="1.5"/>
    <circle cx="1991.044" cy="330.038" r="1.5"/>
    <circle cx="1950.994" cy="263.222" r="1.5"/>
    <circle cx="1948.886" cy="260.041" r="1.5"/>
    <circle cx="1958.582" cy="-22.067" r="1.5"/>
    <circle cx="1999.476" cy="231.406" r="1.5"/>
    <circle cx="1945.091" cy="245.193" r="1.5"/>
    <circle cx="1997.789" cy="148.682" r="1.5"/>
    <circle cx="1996.103" cy="193.226" r="1.5"/>
    <circle cx="1991.465" cy="214.437" r="1.5"/>
    <circle cx="1940.032" cy="227.164" r="1.5"/>
    <circle cx="1929.071" cy="256.859" r="1.5"/>
    <circle cx="1972.494" cy="243.072" r="1.5"/>
    <circle cx="1968.7" cy="251.556" r="1.5"/>
    <circle cx="2007.064" cy="340.643" r="1.5"/>
    <circle cx="1991.465" cy="243.072" r="1.5"/>
    <circle cx="1963.219" cy="244.132" r="1.5"/>
    <circle cx="1947.199" cy="242.011" r="1.5"/>
    <circle cx="2007.064" cy="190.044" r="1.5"/>
    <circle cx="2087.165" cy="156.106" r="1.5"/>
    <circle cx="2118.362" cy="42.627" r="1.5"/>
    <circle cx="2110.352" cy="134.895" r="1.5"/>
    <circle cx="2066.507" cy="117.926" r="1.5"/>
    <circle cx="2018.447" cy="188.983" r="1.5"/>
    <circle cx="2023.084" cy="160.348" r="1.5"/>
    <circle cx="2129.745" cy="64.898" r="1.5"/>
    <circle cx="2095.597" cy="130.653" r="1.5"/>
    <circle cx="2063.978" cy="179.438" r="1.5"/>
    <circle cx="2122.578" cy="71.262" r="1.5"/>
    <circle cx="2015.074" cy="228.224" r="1.5"/>
    <circle cx="1917.267" cy="265.344" r="1.5"/>
    <circle cx="2060.184" cy="208.073" r="1.5"/>
    <circle cx="2009.594" cy="205.952" r="1.5"/>
    <circle cx="2118.784" cy="51.111" r="1.5"/>
    <circle cx="2112.881" cy="47.929" r="1.5"/>
    <circle cx="2079.998" cy="79.746" r="1.5"/>
    <circle cx="1996.103" cy="177.317" r="1.5"/>
    <circle cx="2163.471" cy="28.839" r="1.5"/>
    <circle cx="2125.107" cy=".204" r="1.5"/>
    <circle cx="2114.146" cy="116.866" r="1.5"/>
    <circle cx="2042.899" cy="147.622" r="1.5"/>
    <circle cx="1972.916" cy="125.35" r="1.5"/>
    <circle cx="2086.743" cy="92.473" r="1.5"/>
    <circle cx="2139.02" cy="79.746" r="1.5"/>
    <circle cx="2009.172" cy="210.195" r="1.5"/>
    <circle cx="2092.224" cy="74.443" r="1.5"/>
    <circle cx="2022.241" cy="160.348" r="1.5"/>
    <circle cx="1960.268" cy="253.677" r="1.5"/>
    <circle cx="1960.268" cy="250.496" r="1.5"/>
    <circle cx="1996.524" cy="178.378" r="1.5"/>
    <circle cx="1996.524" cy="234.587" r="1.5"/>
    <circle cx="2192.982" cy="-18.886" r="1.5"/>
    <circle cx="2146.187" cy="85.049" r="1.5"/>
    <circle cx="2038.261" cy="225.042" r="1.5"/>
    <circle cx="2093.489" cy="178.378" r="1.5"/>
    <circle cx="2139.02" cy="160.348" r="1.5"/>
    <circle cx="2101.92" cy="214.437" r="1.5"/>
    <circle cx="2091.802" cy="130.653" r="1.5"/>
    <circle cx="2085.057" cy="124.289" r="1.5"/>
    <circle cx="2080.841" cy="199.589" r="1.5"/>
    <circle cx="2067.772" cy="118.987" r="1.5"/>
    <circle cx="2025.614" cy="199.589" r="1.5"/>
    <circle cx="1944.67" cy="249.435" r="1.5"/>
    <circle cx="1944.67" cy="246.254" r="1.5"/>
    <circle cx="1944.67" cy="245.193" r="1.5"/>
    <circle cx="1981.348" cy="253.677" r="1.5"/>
    <circle cx="1981.348" cy="195.347" r="1.5"/>
    <circle cx="1944.67" cy="251.556" r="1.5"/>
    <circle cx="1981.348" cy="253.677" r="1.5"/>
    <circle cx="1981.348" cy="234.587" r="1.5"/>
    <circle cx="1944.67" cy="261.101" r="1.5"/>
    <circle cx="1944.67" cy="256.859" r="1.5"/>
    <circle cx="1944.67" cy="257.92" r="1.5"/>
    <circle cx="1944.67" cy="253.677" r="1.5"/>
    <circle cx="1944.67" cy="261.101" r="1.5"/>
    <circle cx="1956.053" cy="254.738" r="1.5"/>
    <circle cx="1957.317" cy="254.738" r="1.5"/>
    <circle cx="1956.053" cy="249.435" r="1.5"/>
    <circle cx="1957.317" cy="250.496" r="1.5"/>
    <circle cx="1956.053" cy="253.677" r="1.5"/>
    <circle cx="1957.317" cy="254.738" r="1.5"/>
    <circle cx="1956.053" cy="254.738" r="1.5"/>
    <circle cx="1951.837" cy="258.98" r="1.5"/>
    <circle cx="2103.607" cy="133.834" r="1.5"/>
    <circle cx="1955.209" cy="172.015" r="1.5"/>
    <circle cx="2050.066" cy="216.558" r="1.5"/>
    <circle cx="1990.622" cy="83.988" r="1.5"/>
    <circle cx="1937.081" cy="225.042" r="1.5"/>
    <circle cx="1996.524" cy="145.501" r="1.5"/>
    <circle cx="2011.701" cy="208.073" r="1.5"/>
    <circle cx="2025.614" cy="172.015" r="1.5"/>
    <circle cx="1961.955" cy="219.74" r="1.5"/>
    <circle cx="1974.181" cy="213.376" r="1.5"/>
    <circle cx="1962.376" cy="237.769" r="1.5"/>
    <circle cx="2095.597" cy="200.65" r="1.5"/>
    <circle cx="2100.234" cy="184.741" r="1.5"/>
    <circle cx="1994.838" cy="214.437" r="1.5"/>
    <circle cx="2153.775" cy="207.013" r="1.5"/>
    <circle cx="1974.602" cy="183.681" r="1.5"/>
    <circle cx="2032.781" cy="181.56" r="1.5"/>
    <circle cx="2093.489" cy="223.982" r="1.5"/>
    <circle cx="1978.818" cy="240.951" r="1.5"/>
    <circle cx="1983.455" cy="198.528" r="1.5"/>
    <circle cx="2147.03" cy="144.44" r="1.5"/>
    <circle cx="2010.437" cy="236.709" r="1.5"/>
    <circle cx="2024.771" cy="198.528" r="1.5"/>
    <circle cx="2018.025" cy="240.951" r="1.5"/>
    <circle cx="2019.712" cy="158.227" r="1.5"/>
    <circle cx="1984.72" cy="202.771" r="1.5"/>
    <circle cx="1999.476" cy="219.74" r="1.5"/>
    <circle cx="1991.887" cy="244.132" r="1.5"/>
    <circle cx="2025.192" cy="185.802" r="1.5"/>
    <circle cx="1958.582" cy="232.466" r="1.5"/>
    <circle cx="1963.641" cy="248.375" r="1.5"/>
    <circle cx="1956.896" cy="211.255" r="1.5"/>
    <circle cx="1971.651" cy="250.496" r="1.5"/>
    <circle cx="2134.804" cy="93.533" r="1.5"/>
    <circle cx="2131.01" cy="52.172" r="1.5"/>
    <circle cx="1983.877" cy="226.103" r="1.5"/>
    <circle cx="1983.877" cy="202.771" r="1.5"/>
    <circle cx="2004.535" cy="188.983" r="1.5"/>
    <circle cx="1943.405" cy="219.74" r="1.5"/>
    <circle cx="1943.405" cy="225.042" r="1.5"/>
    <circle cx="1943.405" cy="263.222" r="1.5"/>
    <circle cx="1943.405" cy="263.222" r="1.5"/>
    <circle cx="1943.405" cy="246.254" r="1.5"/>
    <circle cx="2004.535" cy="239.89" r="1.5"/>
    <circle cx="2057.654" cy="152.925" r="1.5"/>
    <circle cx="2196.355" cy="28.839" r="1.5"/>
    <circle cx="1993.152" cy="229.285" r="1.5"/>
    <circle cx="2066.507" cy="166.712" r="1.5"/>
    <circle cx="2110.774" cy="144.44" r="1.5"/>
    <circle cx="1976.71" cy="218.679" r="1.5"/>
    <circle cx="2152.932" cy="27.779" r="1.5"/>
    <circle cx="2098.126" cy="170.954" r="1.5"/>
    <circle cx="2089.694" cy="159.288" r="1.5"/>
    <circle cx="2044.585" cy="99.897" r="1.5"/>
    <circle cx="2045.007" cy="167.772" r="1.5"/>
    <circle cx="1969.965" cy="238.83" r="1.5"/>
    <circle cx="2022.241" cy="228.224" r="1.5"/>
    <circle cx="2110.774" cy="97.776" r="1.5"/>
    <circle cx="2085.057" cy="78.685" r="1.5"/>
    <circle cx="2142.814" cy="107.321" r="1.5"/>
    <circle cx="2042.477" cy="123.229" r="1.5"/>
    <circle cx="2020.976" cy="146.561" r="1.5"/>
    <circle cx="2020.976" cy="146.561" r="1.5"/>
    <circle cx="2007.486" cy="165.651" r="1.5"/>
    <circle cx="2024.349" cy="214.437" r="1.5"/>
    <circle cx="1985.142" cy="230.345" r="1.5"/>
    <circle cx="1960.268" cy="235.648" r="1.5"/>
    <circle cx="1967.435" cy="246.254" r="1.5"/>
    <circle cx="2028.986" cy="254.738" r="1.5"/>
    <circle cx="2085.9" cy="92.473" r="1.5"/>
    <circle cx="2047.114" cy="95.654" r="1.5"/>
    <circle cx="2157.148" cy="45.808" r="1.5"/>
    <circle cx="2025.614" cy="208.073" r="1.5"/>
    <circle cx="1975.867" cy="251.556" r="1.5"/>
    <circle cx="1967.014" cy="204.892" r="1.5"/>
    <circle cx="1980.926" cy="208.073" r="1.5"/>
    <circle cx="2050.066" cy="26.718" r="1.5"/>
    <circle cx="2050.066" cy="213.376" r="1.5"/>
    <circle cx="2112.038" cy="80.807" r="1.5"/>
    <circle cx="2015.074" cy="228.224" r="1.5"/>
    <circle cx="2124.264" cy="52.172" r="1.5"/>
    <circle cx="2066.507" cy="116.866" r="1.5"/>
    <circle cx="2154.197" cy="107.321" r="1.5"/>
    <circle cx="1991.044" cy="222.921" r="1.5"/>
    <circle cx="1979.24" cy="176.257" r="1.5"/>
    <circle cx="2141.549" cy="160.348" r="1.5"/>
    <circle cx="1997.789" cy="201.71" r="1.5"/>
    <circle cx="2085.479" cy="215.497" r="1.5"/>
    <circle cx="2094.753" cy="23.537" r="1.5"/>
    <circle cx="1988.936" cy="208.073" r="1.5"/>
    <circle cx="2026.878" cy="151.864" r="1.5"/>
    <circle cx="1989.779" cy="216.558" r="1.5"/>
    <circle cx="2106.979" cy="82.928" r="1.5"/>
    <circle cx="2047.958" cy="94.594" r="1.5"/>
    <circle cx="2197.62" cy="59.595" r="1.5"/>
    <circle cx="2061.448" cy="202.771" r="1.5"/>
    <circle cx="2040.791" cy="147.622" r="1.5"/>
    <circle cx="2120.892" cy="157.167" r="1.5"/>
    <circle cx="2154.197" cy="107.321" r="1.5"/>
    <circle cx="2198.463" cy="93.533" r="1.5"/>
    <circle cx="2033.624" cy="124.289" r="1.5"/>
    <circle cx="2044.163" cy="122.168" r="1.5"/>
    <circle cx="2052.595" cy="172.015" r="1.5"/>
    <circle cx="2003.691" cy="169.893" r="1.5"/>
    <circle cx="2117.097" cy="69.14" r="1.5"/>
    <circle cx="2016.76" cy="148.682" r="1.5"/>
    <circle cx="2038.683" cy="86.109" r="1.5"/>
    <circle cx="2036.575" cy="187.923" r="1.5"/>
    <circle cx="2080.42" cy="195.347" r="1.5"/>
    <circle cx="2133.539" cy="116.866" r="1.5"/>
    <circle cx="2011.701" cy="152.925" r="1.5"/>
    <circle cx="2030.673" cy="150.803" r="1.5"/>
    <circle cx="1983.034" cy="160.348" r="1.5"/>
    <circle cx="2023.927" cy="188.983" r="1.5"/>
    <circle cx="1994.417" cy="121.108" r="1.5"/>
    <circle cx="1994.417" cy="182.62" r="1.5"/>
    <circle cx="1994.417" cy="177.317" r="1.5"/>
    <circle cx="1994.417" cy="142.319" r="1.5"/>
    <circle cx="1994.417" cy="153.985" r="1.5"/>
    <circle cx="1994.417" cy="185.802" r="1.5"/>
    <circle cx="1994.417" cy="186.862" r="1.5"/>
    <circle cx="1994.417" cy="160.348" r="1.5"/>
    <circle cx="1994.417" cy="202.771" r="1.5"/>
    <circle cx="1994.417" cy="199.589" r="1.5"/>
    <circle cx="1994.417" cy="129.592" r="1.5"/>
    <circle cx="1994.417" cy="90.352" r="1.5"/>
    <circle cx="1968.7" cy="218.679" r="1.5"/>
    <circle cx="2007.486" cy="195.347" r="1.5"/>
    <circle cx="2003.691" cy="289.736" r="1.5"/>
    <circle cx="2003.691" cy="275.949" r="1.5"/>
    <circle cx="2026.035" cy="263.222" r="1.5"/>
    <circle cx="1956.474" cy="227.164" r="1.5"/>
    <circle cx="1953.101" cy="281.252" r="1.5"/>
    <circle cx="2026.878" cy="371.399" r="1.5"/>
    <circle cx="2026.878" cy="214.437" r="1.5"/>
    <circle cx="1953.101" cy="290.797" r="1.5"/>
    <circle cx="2026.878" cy="277.01" r="1.5"/>
    <circle cx="2007.486" cy="250.496" r="1.5"/>
    <circle cx="2035.31" cy="253.677" r="1.5"/>
    <circle cx="2003.691" cy="303.524" r="1.5"/>
    <circle cx="1981.348" cy="274.889" r="1.5"/>
    <circle cx="2087.165" cy="229.285" r="1.5"/>
    <circle cx="2092.224" cy="204.892" r="1.5"/>
    <circle cx="2036.996" cy="336.401" r="1.5"/>
    <circle cx="1978.396" cy="273.828" r="1.5"/>
    <circle cx="2047.536" cy="232.466" r="1.5"/>
    <circle cx="2122.999" cy="233.527" r="1.5"/>
    <circle cx="2077.468" cy="305.645" r="1.5"/>
    <circle cx="2077.047" cy="153.985" r="1.5"/>
    <circle cx="1977.132" cy="266.404" r="1.5"/>
    <circle cx="2019.29" cy="243.072" r="1.5"/>
    <circle cx="2013.809" cy="225.042" r="1.5"/>
    <circle cx="1977.553" cy="287.615" r="1.5"/>
    <circle cx="2023.084" cy="281.252" r="1.5"/>
    <circle cx="1972.494" cy="227.164" r="1.5"/>
    <circle cx="1971.651" cy="245.193" r="1.5"/>
    <circle cx="2022.663" cy="249.435" r="1.5"/>
    <circle cx="2023.084" cy="284.434" r="1.5"/>
    <circle cx="1960.268" cy="262.162" r="1.5"/>
    <circle cx="1975.867" cy="273.828" r="1.5"/>
    <circle cx="1991.887" cy="250.496" r="1.5"/>
    <circle cx="2036.996" cy="238.83" r="1.5"/>
    <circle cx="2038.683" cy="269.586" r="1.5"/>
    <circle cx="1965.749" cy="271.707" r="1.5"/>
    <circle cx="1976.71" cy="250.496" r="1.5"/>
    <circle cx="1972.073" cy="258.98" r="1.5"/>
    <circle cx="1990.201" cy="302.463" r="1.5"/>
    <circle cx="1999.897" cy="193.226" r="1.5"/>
    <circle cx="2028.143" cy="268.525" r="1.5"/>
    <circle cx="2004.956" cy="312.008" r="1.5"/>
    <circle cx="2023.084" cy="283.373" r="1.5"/>
    <circle cx="2023.927" cy="338.522" r="1.5"/>
    <circle cx="1976.71" cy="242.011" r="1.5"/>
    <circle cx="2075.361" cy="245.193" r="1.5"/>
    <circle cx="2059.762" cy="405.337" r="1.5"/>
    <circle cx="1974.181" cy="286.555" r="1.5"/>
    <circle cx="2023.506" cy="198.528" r="1.5"/>
    <circle cx="2024.771" cy="282.313" r="1.5"/>
    <circle cx="2058.497" cy="242.011" r="1.5"/>
    <circle cx="1980.083" cy="258.98" r="1.5"/>
    <circle cx="2103.607" cy="126.411" r="1.5"/>
    <circle cx="1966.592" cy="281.252" r="1.5"/>
    <circle cx="1966.592" cy="267.465" r="1.5"/>
    <circle cx="2125.107" cy="211.255" r="1.5"/>
    <circle cx="2029.408" cy="271.707" r="1.5"/>
    <circle cx="2166.001" cy="236.709" r="1.5"/>
    <circle cx="2038.261" cy="239.89" r="1.5"/>
    <circle cx="2002.848" cy="282.313" r="1.5"/>
    <circle cx="2009.172" cy="213.376" r="1.5"/>
    <circle cx="2009.172" cy="243.072" r="1.5"/>
    <circle cx="1969.965" cy="271.707" r="1.5"/>
    <circle cx="1967.857" cy="264.283" r="1.5"/>
    <circle cx="2137.755" cy="277.01" r="1.5"/>
    <circle cx="2137.755" cy="266.404" r="1.5"/>
    <circle cx="2176.541" cy="367.157" r="1.5"/>
    <circle cx="2098.548" cy="367.157" r="1.5"/>
    <circle cx="2050.066" cy="235.648" r="1.5"/>
    <circle cx="1961.112" cy="287.615" r="1.5"/>
    <circle cx="2012.545" cy="266.404" r="1.5"/>
    <circle cx="2012.545" cy="306.705" r="1.5"/>
    <circle cx="1993.152" cy="286.555" r="1.5"/>
    <circle cx="1993.152" cy="257.92" r="1.5"/>
    <circle cx="2025.192" cy="325.795" r="1.5"/>
    <circle cx="1985.142" cy="424.427" r="1.5"/>
    <circle cx="1981.348" cy="337.461" r="1.5"/>
    <circle cx="1998.632" cy="240.951" r="1.5"/>
    <circle cx="2013.809" cy="251.556" r="1.5"/>
    <circle cx="1981.348" cy="257.92" r="1.5"/>
    <circle cx="1944.67" cy="265.344" r="1.5"/>
    <circle cx="1944.67" cy="262.162" r="1.5"/>
    <circle cx="1981.348" cy="258.98" r="1.5"/>
    <circle cx="1944.67" cy="266.404" r="1.5"/>
    <circle cx="1981.348" cy="273.828" r="1.5"/>
    <circle cx="1981.348" cy="268.525" r="1.5"/>
    <circle cx="1981.348" cy="272.767" r="1.5"/>
    <circle cx="1981.348" cy="303.524" r="1.5"/>
    <circle cx="1981.348" cy="291.858" r="1.5"/>
    <circle cx="1981.348" cy="297.16" r="1.5"/>
    <circle cx="1942.983" cy="337.461" r="1.5"/>
    <circle cx="1951.837" cy="316.25" r="1.5"/>
    <circle cx="1951.837" cy="265.344" r="1.5"/>
    <circle cx="1942.983" cy="391.55" r="1.5"/>
    <circle cx="1951.837" cy="359.733" r="1.5"/>
    <circle cx="1951.837" cy="261.101" r="1.5"/>
    <circle cx="1942.983" cy="268.525" r="1.5"/>
    <circle cx="1951.837" cy="266.404" r="1.5"/>
    <circle cx="1951.837" cy="263.222" r="1.5"/>
    <circle cx="1942.983" cy="368.218" r="1.5"/>
    <circle cx="1957.317" cy="263.222" r="1.5"/>
    <circle cx="1951.837" cy="355.491" r="1.5"/>
    <circle cx="1943.405" cy="292.918" r="1.5"/>
    <circle cx="1955.209" cy="251.556" r="1.5"/>
    <circle cx="1961.112" cy="269.586" r="1.5"/>
    <circle cx="2079.998" cy="369.278" r="1.5"/>
    <circle cx="1978.818" cy="369.278" r="1.5"/>
    <circle cx="1998.211" cy="269.586" r="1.5"/>
    <circle cx="1982.191" cy="275.949" r="1.5"/>
    <circle cx="1965.749" cy="268.525" r="1.5"/>
    <circle cx="1963.219" cy="262.162" r="1.5"/>
    <circle cx="1991.044" cy="268.525" r="1.5"/>
    <circle cx="1983.455" cy="261.101" r="1.5"/>
    <circle cx="1969.122" cy="260.041" r="1.5"/>
    <circle cx="2029.408" cy="269.586" r="1.5"/>
    <circle cx="1983.455" cy="271.707" r="1.5"/>
    <circle cx="1985.142" cy="268.525" r="1.5"/>
    <circle cx="1987.25" cy="273.828" r="1.5"/>
    <circle cx="1968.278" cy="272.767" r="1.5"/>
    <circle cx="1966.592" cy="254.738" r="1.5"/>
    <circle cx="1961.533" cy="274.889" r="1.5"/>
    <circle cx="1972.494" cy="281.252" r="1.5"/>
    <circle cx="1988.093" cy="266.404" r="1.5"/>
    <circle cx="2031.516" cy="265.344" r="1.5"/>
    <circle cx="2013.809" cy="256.859" r="1.5"/>
    <circle cx="2036.575" cy="243.072" r="1.5"/>
    <circle cx="1975.024" cy="267.465" r="1.5"/>
    <circle cx="1960.268" cy="270.646" r="1.5"/>
    <circle cx="1985.985" cy="245.193" r="1.5"/>
    <circle cx="1957.317" cy="271.707" r="1.5"/>
    <circle cx="2042.477" cy="453.062" r="1.5"/>
    <circle cx="1958.582" cy="263.222" r="1.5"/>
    <circle cx="1975.867" cy="258.98" r="1.5"/>
    <circle cx="1975.867" cy="257.92" r="1.5"/>
    <circle cx="1950.15" cy="282.313" r="1.5"/>
    <circle cx="1968.7" cy="265.344" r="1.5"/>
    <circle cx="2007.486" cy="293.979" r="1.5"/>
    <circle cx="2028.565" cy="256.859" r="1.5"/>
    <circle cx="1992.309" cy="251.556" r="1.5"/>
    <circle cx="1957.739" cy="288.676" r="1.5"/>
    <circle cx="2026.878" cy="273.828" r="1.5"/>
    <circle cx="1943.405" cy="266.404" r="1.5"/>
    <circle cx="1943.405" cy="269.586" r="1.5"/>
    <circle cx="1977.132" cy="254.738" r="1.5"/>
    <circle cx="1971.651" cy="263.222" r="1.5"/>
    <circle cx="1990.622" cy="253.677" r="1.5"/>
    <circle cx="1996.524" cy="283.373" r="1.5"/>
    <circle cx="1990.622" cy="280.191" r="1.5"/>
    <circle cx="2026.035" cy="286.555" r="1.5"/>
    <circle cx="2146.187" cy="301.403" r="1.5"/>
    <circle cx="1952.258" cy="265.344" r="1.5"/>
    <circle cx="1990.201" cy="277.01" r="1.5"/>
    <circle cx="2019.712" cy="257.92" r="1.5"/>
    <circle cx="1954.788" cy="266.404" r="1.5"/>
    <circle cx="1989.358" cy="268.525" r="1.5"/>
    <circle cx="1980.083" cy="270.646" r="1.5"/>
    <circle cx="2045.428" cy="272.767" r="1.5"/>
    <circle cx="1938.768" cy="278.07" r="1.5"/>
    <circle cx="1956.053" cy="277.01" r="1.5"/>
    <circle cx="1991.887" cy="278.07" r="1.5"/>
    <circle cx="2013.809" cy="284.434" r="1.5"/>
    <circle cx="1961.955" cy="291.858" r="1.5"/>
    <circle cx="2002.427" cy="268.525" r="1.5"/>
    <circle cx="1996.524" cy="272.767" r="1.5"/>
    <circle cx="2052.595" cy="257.92" r="1.5"/>
    <circle cx="2065.243" cy="280.191" r="1.5"/>
    <circle cx="1981.348" cy="256.859" r="1.5"/>
    <circle cx="1985.142" cy="254.738" r="1.5"/>
    <circle cx="2029.408" cy="236.709" r="1.5"/>
    <circle cx="2086.322" cy="263.222" r="1.5"/>
    <circle cx="2043.32" cy="256.859" r="1.5"/>
    <circle cx="2043.32" cy="118.987" r="1.5"/>
    <circle cx="2050.066" cy="361.854" r="1.5"/>
    <circle cx="1960.268" cy="248.375" r="1.5"/>
    <circle cx="2194.669" cy="290.797" r="1.5"/>
    <circle cx="2054.281" cy="277.01" r="1.5"/>
    <circle cx="2003.27" cy="284.434" r="1.5"/>
    <circle cx="2012.123" cy="282.313" r="1.5"/>
    <circle cx="2058.076" cy="234.587" r="1.5"/>
    <circle cx="2066.086" cy="239.89" r="1.5"/>
    <circle cx="2017.182" cy="255.799" r="1.5"/>
    <circle cx="2059.34" cy="292.918" r="1.5"/>
    <circle cx="1996.946" cy="257.92" r="1.5"/>
    <circle cx="1970.808" cy="262.162" r="1.5"/>
    <circle cx="1999.476" cy="231.406" r="1.5"/>
    <circle cx="1988.936" cy="271.707" r="1.5"/>
    <circle cx="1983.455" cy="255.799" r="1.5"/>
    <circle cx="2005.378" cy="254.738" r="1.5"/>
    <circle cx="2103.607" cy="218.679" r="1.5"/>
    <circle cx="1978.396" cy="250.496" r="1.5"/>
    <circle cx="2088.43" cy="240.951" r="1.5"/>
    <circle cx="2070.723" cy="247.314" r="1.5"/>
    <circle cx="2023.927" cy="188.983" r="1.5"/>
    <circle cx="1975.445" cy="253.677" r="1.5"/>
    <circle cx="2013.388" cy="279.131" r="1.5"/>
    <circle cx="1975.867" cy="275.949" r="1.5"/>
    <circle cx="1970.808" cy="300.342" r="1.5"/>
    <circle cx="1970.808" cy="285.494" r="1.5"/>
    <circle cx="1975.867" cy="117.926" r="1.5"/>
    <circle cx="2014.231" cy="256.859" r="1.5"/>
    <circle cx="2039.104" cy="307.766" r="1.5"/>
    <circle cx="2007.486" cy="271.707" r="1.5"/>
    <circle cx="2007.064" cy="340.643" r="1.5"/>
    <circle cx="1949.729" cy="264.283" r="1.5"/>
    <circle cx="1971.23" cy="233.527" r="1.5"/>
    <circle cx="1991.044" cy="220.8" r="1.5"/>
    <circle cx="1976.71" cy="243.072" r="1.5"/>
    <circle cx="1983.455" cy="245.193" r="1.5"/>
    <circle cx="2051.752" cy="252.617" r="1.5"/>
    <circle cx="2028.986" cy="158.227" r="1.5"/>
    <circle cx="1998.211" cy="173.075" r="1.5"/>
    <circle cx="1998.211" cy="251.556" r="1.5"/>
    <circle cx="1986.828" cy="218.679" r="1.5"/>
    <circle cx="1977.553" cy="281.252" r="1.5"/>
    <circle cx="1986.406" cy="236.709" r="1.5"/>
    <circle cx="1972.073" cy="251.556" r="1.5"/>
    <circle cx="1963.219" cy="244.132" r="1.5"/>
    <circle cx="195.047" cy="301.244" r="2"/>
    <circle cx="195.047" cy="342.077" r="2"/>
    <circle cx="204.271" cy="339.744" r="2"/>
    <circle cx="184.985" cy="321.077" r="2"/>
    <circle cx="195.047" cy="267.41" r="2"/>
    <circle cx="259.613" cy="206.744" r="2"/>
    <circle cx="209.302" cy="326.91" r="2"/>
    <circle cx="284.768" cy="259.244" r="2"/>
    <circle cx="174.085" cy="301.244" r="2"/>
    <circle cx="281.414" cy="314.077" r="2"/>
    <circle cx="405.513" cy="234.744" r="2"/>
    <circle cx="215.172" cy="325.744" r="2"/>
    <circle cx="269.675" cy="282.577" r="2"/>
    <circle cx="232.78" cy="297.744" r="2"/>
    <circle cx="204.271" cy="309.41" r="2"/>
    <circle cx="162.346" cy="338.577" r="2"/>
    <circle cx="283.091" cy="253.41" r="2"/>
    <circle cx="154.799" cy="342.077" r="2"/>
    <circle cx="318.308" cy="23.577" r="2"/>
    <circle cx="156.476" cy="308.244" r="2"/>
    <circle cx="623.526" cy="23.577" r="2"/>
    <circle cx="299.023" cy="342.077" r="2"/>
    <circle cx="225.234" cy="289.577" r="2"/>
    <circle cx="81.849" cy="312.91" r="2"/>
    <circle cx="372.811" cy="183.41" r="2"/>
    <circle cx="181.631" cy="328.077" r="2"/>
    <circle cx="231.942" cy="311.744" r="2"/>
    <circle cx="113.712" cy="296.577" r="2"/>
    <circle cx="209.302" cy="363.077" r="2"/>
    <circle cx="146.414" cy="319.91" r="2"/>
    <circle cx="186.662" cy="337.41" r="2"/>
    <circle cx="94.426" cy="356.077" r="2"/>
    <circle cx="94.426" cy="403.91" r="2"/>
    <circle cx="94.426" cy="345.577" r="2"/>
    <circle cx="94.426" cy="391.077" r="2"/>
    <circle cx="126.29" cy="328.077" r="2"/>
    <circle cx="120.42" cy="340.91" r="2"/>
    <circle cx="102.811" cy="318.744" r="2"/>
    <circle cx="154.799" cy="333.91" r="2"/>
    <circle cx="160.669" cy="346.744" r="2"/>
    <circle cx="153.122" cy="302.41" r="2"/>
    <circle cx="203.433" cy="339.744" r="2"/>
    <circle cx="203.433" cy="357.244" r="2"/>
    <circle cx="203.433" cy="331.577" r="2"/>
    <circle cx="163.184" cy="295.41" r="2"/>
    <circle cx="249.551" cy="345.577" r="2"/>
    <circle cx="220.203" cy="351.41" r="2"/>
    <circle cx="257.097" cy="352.577" r="2"/>
    <circle cx="91.072" cy="386.41" r="2"/>
    <circle cx="386.228" cy="332.744" r="2"/>
    <circle cx="386.228" cy="546.244" r="2"/>
    <circle cx="297.346" cy="357.244" r="2"/>
    <circle cx="197.563" cy="339.744" r="2"/>
    <circle cx="310.762" cy="336.244" r="2"/>
    <circle cx="211.818" cy="367.744" r="2"/>
    <circle cx="130.482" cy="23.577" r="2"/>
    <circle cx="238.65" cy="445.91" r="2"/>
    <circle cx="138.867" cy="367.744" r="2"/>
    <circle cx="205.11" cy="343.244" r="2"/>
    <circle cx="221.041" cy="255.744" r="2"/>
    <circle cx="300.7" cy="23.577" r="2"/>
    <circle cx="299.023" cy="269.744" r="2"/>
    <circle cx="339.271" cy="248.744" r="2"/>
    <circle cx="86.041" cy="347.91" r="2"/>
    <circle cx="112.874" cy="134.41" r="2"/>
    <circle cx="161.507" cy="349.077" r="2"/>
    <circle cx="152.283" cy="331.577" r="2"/>
    <circle cx="221.041" cy="255.744" r="2"/>
    <circle cx="216.849" cy="321.077" r="2"/>
    <circle cx="216.01" cy="241.744" r="2"/>
    <circle cx="109.519" cy="23.577" r="2"/>
    <circle cx="140.544" cy="244.077" r="2"/>
    <circle cx="257.936" cy="177.577" r="2"/>
    <circle cx="201.756" cy="360.744" r="2"/>
    <circle cx="233.619" cy="136.744" r="2"/>
    <circle cx="340.948" cy="210.244" r="2"/>
    <circle cx="213.495" cy="214.91" r="2"/>
    <circle cx="239.488" cy="410.91" r="2"/>
    <circle cx="159.83" cy="337.41" r="2"/>
    <circle cx="155.638" cy="333.91" r="2"/>
    <circle cx="174.923" cy="23.577" r="2"/>
    <circle cx="256.259" cy="302.41" r="2"/>
    <circle cx="148.091" cy="317.577" r="2"/>
    <circle cx="252.905" cy="211.41" r="2"/>
    <circle cx="249.551" cy="260.41" r="2"/>
    <circle cx="240.327" cy="283.744" r="2"/>
    <circle cx="138.029" cy="297.744" r="2"/>
    <circle cx="116.228" cy="330.41" r="2"/>
    <circle cx="202.594" cy="315.244" r="2"/>
    <circle cx="195.047" cy="324.577" r="2"/>
    <circle cx="271.352" cy="422.577" r="2"/>
    <circle cx="240.327" cy="315.244" r="2"/>
    <circle cx="184.147" cy="316.41" r="2"/>
    <ellipse cx="152.283" cy="314.077" rx="2" ry="2.074"/>
    <ellipse cx="271.352" cy="256.91" rx="2" ry="2.074"/>
    <ellipse cx="430.669" cy="219.577" rx="2" ry="2.074"/>
    <ellipse cx="492.718" cy="94.744" rx="2" ry="2.074"/>
    <ellipse cx="476.787" cy="196.244" rx="2" ry="2.074"/>
    <ellipse cx="389.582" cy="177.577" rx="2" ry="2.074"/>
    <ellipse cx="293.992" cy="255.744" rx="2" ry="2.074"/>
    <ellipse cx="303.215" cy="224.244" rx="2" ry="2.074"/>
    <ellipse cx="515.358" cy="119.244" rx="2" ry="2.074"/>
    <ellipse cx="447.439" cy="191.577" rx="2" ry="2.074"/>
    <ellipse cx="384.551" cy="245.244" rx="2" ry="2.074"/>
    <ellipse cx="501.103" cy="126.244" rx="2" ry="2.074"/>
    <ellipse cx="287.283" cy="298.91" rx="2" ry="2.074"/>
    <ellipse cx="92.749" cy="339.744" rx="2" ry="2.074"/>
    <ellipse cx="377.004" cy="276.744" rx="2" ry="2.074"/>
    <ellipse cx="276.383" cy="274.41" rx="2" ry="2.074"/>
    <ellipse cx="493.557" cy="104.077" rx="2" ry="2.074"/>
    <ellipse cx="481.818" cy="100.577" rx="2" ry="2.074"/>
    <ellipse cx="416.414" cy="135.577" rx="2" ry="2.074"/>
    <ellipse cx="249.551" cy="242.91" rx="2" ry="2.074"/>
    <ellipse cx="582.439" cy="79.577" rx="2" ry="2.074"/>
    <ellipse cx="506.134" cy="48.077" rx="2" ry="2.074"/>
    <ellipse cx="484.333" cy="176.41" rx="2" ry="2.074"/>
    <ellipse cx="342.625" cy="210.244" rx="2" ry="2.074"/>
    <ellipse cx="203.433" cy="185.744" rx="2" ry="2.074"/>
    <ellipse cx="429.83" cy="149.577" rx="2" ry="2.074"/>
    <ellipse cx="533.805" cy="135.577" rx="2" ry="2.074"/>
    <ellipse cx="275.544" cy="279.077" rx="2" ry="2.074"/>
    <ellipse cx="440.731" cy="129.744" rx="2" ry="2.074"/>
    <ellipse cx="301.538" cy="224.244" rx="2" ry="2.074"/>
    <ellipse cx="178.277" cy="326.91" rx="2" ry="2.074"/>
    <ellipse cx="178.277" cy="323.41" rx="2" ry="2.074"/>
    <ellipse cx="250.389" cy="244.077" rx="2" ry="2.074"/>
    <ellipse cx="250.389" cy="305.91" rx="2" ry="2.074"/>
    <ellipse cx="641.134" cy="27.077" rx="2" ry="2.074"/>
    <ellipse cx="548.06" cy="141.41" rx="2" ry="2.074"/>
    <ellipse cx="333.401" cy="295.41" rx="2" ry="2.074"/>
    <ellipse cx="443.246" cy="244.077" rx="2" ry="2.074"/>
    <ellipse cx="533.805" cy="224.244" rx="2" ry="2.074"/>
    <ellipse cx="460.016" cy="283.744" rx="2" ry="2.074"/>
    <ellipse cx="439.892" cy="191.577" rx="2" ry="2.074"/>
    <ellipse cx="426.476" cy="184.577" rx="2" ry="2.074"/>
    <ellipse cx="418.091" cy="267.41" rx="2" ry="2.074"/>
    <ellipse cx="392.097" cy="178.744" rx="2" ry="2.074"/>
    <ellipse cx="308.246" cy="267.41" rx="2" ry="2.074"/>
    <ellipse cx="147.252" cy="322.244" rx="2" ry="2.074"/>
    <ellipse cx="147.252" cy="318.744" rx="2" ry="2.074"/>
    <ellipse cx="147.252" cy="317.577" rx="2" ry="2.074"/>
    <ellipse cx="220.203" cy="326.91" rx="2" ry="2.074"/>
    <ellipse cx="220.203" cy="262.744" rx="2" ry="2.074"/>
    <ellipse cx="147.252" cy="324.577" rx="2" ry="2.074"/>
    <ellipse cx="220.203" cy="326.91" rx="2" ry="2.074"/>
    <ellipse cx="220.203" cy="305.91" rx="2" ry="2.074"/>
    <ellipse cx="147.252" cy="335.077" rx="2" ry="2.074"/>
    <ellipse cx="147.252" cy="330.41" rx="2" ry="2.074"/>
    <ellipse cx="147.252" cy="331.577" rx="2" ry="2.074"/>
    <ellipse cx="147.252" cy="326.91" rx="2" ry="2.074"/>
    <ellipse cx="147.252" cy="335.077" rx="2" ry="2.074"/>
    <ellipse cx="169.892" cy="328.077" rx="2" ry="2.074"/>
    <ellipse cx="172.408" cy="328.077" rx="2" ry="2.074"/>
    <ellipse cx="169.892" cy="322.244" rx="2" ry="2.074"/>
    <ellipse cx="172.408" cy="323.41" rx="2" ry="2.074"/>
    <ellipse cx="169.892" cy="326.91" rx="2" ry="2.074"/>
    <ellipse cx="172.408" cy="328.077" rx="2" ry="2.074"/>
    <ellipse cx="169.892" cy="328.077" rx="2" ry="2.074"/>
    <ellipse cx="161.507" cy="332.744" rx="2" ry="2.074"/>
    <ellipse cx="463.37" cy="195.077" rx="2" ry="2.074"/>
    <ellipse cx="168.215" cy="237.077" rx="2" ry="2.074"/>
    <ellipse cx="356.88" cy="286.077" rx="2" ry="2.074"/>
    <ellipse cx="238.65" cy="140.244" rx="2" ry="2.074"/>
    <ellipse cx="132.159" cy="295.41" rx="2" ry="2.074"/>
    <ellipse cx="250.389" cy="207.91" rx="2" ry="2.074"/>
    <ellipse cx="280.575" cy="276.744" rx="2" ry="2.074"/>
    <ellipse cx="308.246" cy="237.077" rx="2" ry="2.074"/>
    <ellipse cx="181.631" cy="289.577" rx="2" ry="2.074"/>
    <ellipse cx="205.948" cy="282.577" rx="2" ry="2.074"/>
    <ellipse cx="182.47" cy="309.41" rx="2" ry="2.074"/>
    <ellipse cx="447.439" cy="268.577" rx="2" ry="2.074"/>
    <ellipse cx="456.662" cy="251.077" rx="2" ry="2.074"/>
    <ellipse cx="247.035" cy="283.744" rx="2" ry="2.074"/>
    <ellipse cx="563.153" cy="275.577" rx="2" ry="2.074"/>
    <ellipse cx="206.787" cy="249.91" rx="2" ry="2.074"/>
    <ellipse cx="322.501" cy="247.577" rx="2" ry="2.074"/>
    <ellipse cx="443.246" cy="294.244" rx="2" ry="2.074"/>
    <ellipse cx="215.172" cy="312.91" rx="2" ry="2.074"/>
    <ellipse cx="224.395" cy="266.244" rx="2" ry="2.074"/>
    <ellipse cx="549.737" cy="206.744" rx="2" ry="2.074"/>
    <ellipse cx="278.06" cy="308.244" rx="2" ry="2.074"/>
    <ellipse cx="306.569" cy="266.244" rx="2" ry="2.074"/>
    <ellipse cx="293.153" cy="312.91" rx="2" ry="2.074"/>
    <ellipse cx="296.507" cy="221.91" rx="2" ry="2.074"/>
    <ellipse cx="226.911" cy="270.91" rx="2" ry="2.074"/>
    <ellipse cx="256.259" cy="289.577" rx="2" ry="2.074"/>
    <ellipse cx="241.165" cy="316.41" rx="2" ry="2.074"/>
    <ellipse cx="307.408" cy="252.244" rx="2" ry="2.074"/>
    <ellipse cx="174.923" cy="303.577" rx="2" ry="2.074"/>
    <ellipse cx="184.985" cy="321.077" rx="2" ry="2.074"/>
    <ellipse cx="171.569" cy="280.244" rx="2" ry="2.074"/>
    <ellipse cx="200.917" cy="323.41" rx="2" ry="2.074"/>
    <ellipse cx="525.42" cy="150.744" rx="2" ry="2.074"/>
    <ellipse cx="517.874" cy="105.244" rx="2" ry="2.074"/>
    <ellipse cx="225.234" cy="296.577" rx="2" ry="2.074"/>
    <ellipse cx="225.234" cy="270.91" rx="2" ry="2.074"/>
    <ellipse cx="266.321" cy="255.744" rx="2" ry="2.074"/>
    <ellipse cx="144.737" cy="289.577" rx="2" ry="2.074"/>
    <ellipse cx="144.737" cy="295.41" rx="2" ry="2.074"/>
    <ellipse cx="144.737" cy="337.41" rx="2" ry="2.074"/>
    <ellipse cx="144.737" cy="337.41" rx="2" ry="2.074"/>
    <ellipse cx="144.737" cy="318.744" rx="2" ry="2.074"/>
    <ellipse cx="266.321" cy="311.744" rx="2" ry="2.074"/>
    <ellipse cx="371.973" cy="216.077" rx="2" ry="2.074"/>
    <ellipse cx="647.842" cy="79.577" rx="2" ry="2.074"/>
    <ellipse cx="243.681" cy="300.077" rx="2" ry="2.074"/>
    <ellipse cx="389.582" cy="231.244" rx="2" ry="2.074"/>
    <ellipse cx="477.625" cy="206.744" rx="2" ry="2.074"/>
    <ellipse cx="210.979" cy="288.41" rx="2" ry="2.074"/>
    <ellipse cx="561.476" cy="78.41" rx="2" ry="2.074"/>
    <ellipse cx="452.47" cy="235.91" rx="2" ry="2.074"/>
    <ellipse cx="435.7" cy="223.077" rx="2" ry="2.074"/>
    <ellipse cx="345.979" cy="157.744" rx="2" ry="2.074"/>
    <ellipse cx="346.818" cy="232.41" rx="2" ry="2.074"/>
    <ellipse cx="197.563" cy="310.577" rx="2" ry="2.074"/>
    <ellipse cx="301.538" cy="298.91" rx="2" ry="2.074"/>
    <ellipse cx="477.625" cy="155.41" rx="2" ry="2.074"/>
    <ellipse cx="426.476" cy="134.41" rx="2" ry="2.074"/>
    <ellipse cx="541.352" cy="165.91" rx="2" ry="2.074"/>
    <ellipse cx="341.787" cy="183.41" rx="2" ry="2.074"/>
    <ellipse cx="299.023" cy="209.077" rx="2" ry="2.074"/>
    <ellipse cx="299.023" cy="209.077" rx="2" ry="2.074"/>
    <ellipse cx="272.19" cy="230.077" rx="2" ry="2.074"/>
    <ellipse cx="305.731" cy="283.744" rx="2" ry="2.074"/>
    <ellipse cx="227.749" cy="301.244" rx="2" ry="2.074"/>
    <ellipse cx="178.277" cy="307.077" rx="2" ry="2.074"/>
    <ellipse cx="192.532" cy="318.744" rx="2" ry="2.074"/>
    <ellipse cx="314.954" cy="328.077" rx="2" ry="2.074"/>
    <ellipse cx="428.153" cy="149.577" rx="2" ry="2.074"/>
    <ellipse cx="351.01" cy="153.077" rx="2" ry="2.074"/>
    <ellipse cx="569.861" cy="98.244" rx="2" ry="2.074"/>
    <ellipse cx="308.246" cy="276.744" rx="2" ry="2.074"/>
    <ellipse cx="209.302" cy="324.577" rx="2" ry="2.074"/>
    <ellipse cx="191.693" cy="273.244" rx="2" ry="2.074"/>
    <ellipse cx="219.364" cy="276.744" rx="2" ry="2.074"/>
    <ellipse cx="356.88" cy="77.244" rx="2" ry="2.074"/>
    <ellipse cx="356.88" cy="282.577" rx="2" ry="2.074"/>
    <ellipse cx="480.141" cy="136.744" rx="2" ry="2.074"/>
    <ellipse cx="287.283" cy="298.91" rx="2" ry="2.074"/>
    <ellipse cx="504.457" cy="105.244" rx="2" ry="2.074"/>
    <ellipse cx="389.582" cy="176.41" rx="2" ry="2.074"/>
    <ellipse cx="563.992" cy="165.91" rx="2" ry="2.074"/>
    <ellipse cx="239.488" cy="293.077" rx="2" ry="2.074"/>
    <ellipse cx="216.01" cy="241.744" rx="2" ry="2.074"/>
    <ellipse cx="538.836" cy="224.244" rx="2" ry="2.074"/>
    <ellipse cx="252.905" cy="269.744" rx="2" ry="2.074"/>
    <ellipse cx="427.315" cy="284.91" rx="2" ry="2.074"/>
    <ellipse cx="445.762" cy="73.744" rx="2" ry="2.074"/>
    <ellipse cx="235.296" cy="276.744" rx="2" ry="2.074"/>
    <ellipse cx="310.762" cy="214.91" rx="2" ry="2.074"/>
    <ellipse cx="236.973" cy="286.077" rx="2" ry="2.074"/>
    <ellipse cx="470.079" cy="139.077" rx="2" ry="2.074"/>
    <ellipse cx="352.687" cy="151.91" rx="2" ry="2.074"/>
    <ellipse cx="650.358" cy="113.41" rx="2" ry="2.074"/>
    <ellipse cx="379.519" cy="270.91" rx="2" ry="2.074"/>
    <ellipse cx="338.433" cy="210.244" rx="2" ry="2.074"/>
    <ellipse cx="497.749" cy="220.744" rx="2" ry="2.074"/>
    <ellipse cx="563.992" cy="165.91" rx="2" ry="2.074"/>
    <ellipse cx="652.035" cy="150.744" rx="2" ry="2.074"/>
    <ellipse cx="324.178" cy="184.577" rx="2" ry="2.074"/>
    <ellipse cx="345.141" cy="182.244" rx="2" ry="2.074"/>
    <ellipse cx="361.911" cy="237.077" rx="2" ry="2.074"/>
    <ellipse cx="264.644" cy="234.744" rx="2" ry="2.074"/>
    <ellipse cx="490.203" cy="123.91" rx="2" ry="2.074"/>
    <ellipse cx="290.638" cy="211.41" rx="2" ry="2.074"/>
    <ellipse cx="334.24" cy="142.577" rx="2" ry="2.074"/>
    <ellipse cx="330.047" cy="254.577" rx="2" ry="2.074"/>
    <ellipse cx="417.252" cy="262.744" rx="2" ry="2.074"/>
    <ellipse cx="522.905" cy="176.41" rx="2" ry="2.074"/>
    <ellipse cx="280.575" cy="216.077" rx="2" ry="2.074"/>
    <ellipse cx="318.308" cy="213.744" rx="2" ry="2.074"/>
    <ellipse cx="223.557" cy="224.244" rx="2" ry="2.074"/>
    <ellipse cx="304.892" cy="255.744" rx="2" ry="2.074"/>
    <ellipse cx="246.197" cy="181.077" rx="2" ry="2.074"/>
    <ellipse cx="246.197" cy="248.744" rx="2" ry="2.074"/>
    <ellipse cx="246.197" cy="242.91" rx="2" ry="2.074"/>
    <ellipse cx="246.197" cy="204.41" rx="2" ry="2.074"/>
    <ellipse cx="246.197" cy="217.244" rx="2" ry="2.074"/>
    <ellipse cx="246.197" cy="252.244" rx="2" ry="2.074"/>
    <ellipse cx="246.197" cy="253.41" rx="2" ry="2.074"/>
    <ellipse cx="246.197" cy="224.244" rx="2" ry="2.074"/>
    <ellipse cx="246.197" cy="270.91" rx="2" ry="2.074"/>
    <ellipse cx="246.197" cy="267.41" rx="2" ry="2.074"/>
    <ellipse cx="246.197" cy="190.41" rx="2" ry="2.074"/>
    <ellipse cx="246.197" cy="147.244" rx="2" ry="2.074"/>
    <ellipse cx="195.047" cy="288.41" rx="2" ry="2.074"/>
    <ellipse cx="272.19" cy="262.744" rx="2" ry="2.074"/>
    <circle cx="264.644" cy="366.577" r="2"/>
    <circle cx="264.644" cy="351.41" r="2"/>
    <circle cx="309.085" cy="337.41" r="2"/>
    <circle cx="170.731" cy="297.744" r="2"/>
    <circle cx="164.023" cy="357.244" r="2"/>
    <circle cx="310.762" cy="456.41" r="2"/>
    <circle cx="310.762" cy="283.744" r="2"/>
    <circle cx="164.023" cy="367.744" r="2"/>
    <circle cx="310.762" cy="352.577" r="2"/>
    <circle cx="272.19" cy="323.41" r="2"/>
    <circle cx="327.532" cy="326.91" r="2"/>
    <circle cx="264.644" cy="381.744" r="2"/>
    <circle cx="220.203" cy="350.244" r="2"/>
    <circle cx="430.669" cy="300.077" r="2"/>
    <circle cx="440.731" cy="273.244" r="2"/>
    <circle cx="330.886" cy="417.91" r="2"/>
    <circle cx="214.333" cy="349.077" r="2"/>
    <circle cx="351.849" cy="303.577" r="2"/>
    <circle cx="501.942" cy="304.744" r="2"/>
    <circle cx="411.383" cy="384.077" r="2"/>
    <circle cx="410.544" cy="217.244" r="2"/>
    <circle cx="211.818" cy="340.91" r="2"/>
    <circle cx="295.669" cy="315.244" r="2"/>
    <circle cx="284.768" cy="295.41" r="2"/>
    <circle cx="212.656" cy="364.244" r="2"/>
    <circle cx="303.215" cy="357.244" r="2"/>
    <circle cx="202.594" cy="297.744" r="2"/>
    <circle cx="200.917" cy="317.577" r="2"/>
    <circle cx="302.377" cy="322.244" r="2"/>
    <circle cx="303.215" cy="360.744" r="2"/>
    <circle cx="178.277" cy="336.244" r="2"/>
    <circle cx="209.302" cy="349.077" r="2"/>
    <circle cx="241.165" cy="323.41" r="2"/>
    <circle cx="330.886" cy="310.577" r="2"/>
    <circle cx="334.24" cy="344.41" r="2"/>
    <circle cx="189.178" cy="346.744" r="2"/>
    <circle cx="210.979" cy="323.41" r="2"/>
    <circle cx="201.756" cy="332.744" r="2"/>
    <circle cx="237.811" cy="380.577" r="2"/>
    <circle cx="257.097" cy="260.41" r="2"/>
    <circle cx="313.277" cy="343.244" r="2"/>
    <circle cx="267.159" cy="391.077" r="2"/>
    <circle cx="303.215" cy="359.577" r="2"/>
    <circle cx="304.892" cy="420.244" r="2"/>
    <circle cx="210.979" cy="314.077" r="2"/>
    <circle cx="407.19" cy="317.577" r="2"/>
    <circle cx="376.165" cy="493.744" r="2"/>
    <circle cx="205.948" cy="363.077" r="2"/>
    <circle cx="304.054" cy="266.244" r="2"/>
    <circle cx="306.569" cy="358.41" r="2"/>
    <circle cx="373.65" cy="314.077" r="2"/>
    <circle cx="217.687" cy="332.744" r="2"/>
    <circle cx="463.37" cy="186.91" r="2"/>
    <circle cx="190.855" cy="357.244" r="2"/>
    <circle cx="190.855" cy="342.077" r="2"/>
    <circle cx="506.134" cy="280.244" r="2"/>
    <circle cx="315.793" cy="346.744" r="2"/>
    <circle cx="587.47" cy="308.244" r="2"/>
    <circle cx="333.401" cy="311.744" r="2"/>
    <circle cx="262.967" cy="358.41" r="2"/>
    <circle cx="275.544" cy="282.577" r="2"/>
    <circle cx="275.544" cy="315.244" r="2"/>
    <circle cx="197.563" cy="346.744" r="2"/>
    <circle cx="193.37" cy="338.577" r="2"/>
    <circle cx="531.29" cy="352.577" r="2"/>
    <circle cx="531.29" cy="340.91" r="2"/>
    <circle cx="608.433" cy="451.744" r="2"/>
    <circle cx="453.308" cy="451.744" r="2"/>
    <circle cx="356.88" cy="307.077" r="2"/>
    <circle cx="179.954" cy="364.244" r="2"/>
    <circle cx="282.252" cy="340.91" r="2"/>
    <circle cx="282.252" cy="385.244" r="2"/>
    <circle cx="243.681" cy="363.077" r="2"/>
    <circle cx="243.681" cy="331.577" r="2"/>
    <circle cx="307.408" cy="406.244" r="2"/>
    <circle cx="227.749" cy="514.744" r="2"/>
    <circle cx="220.203" cy="419.077" r="2"/>
    <circle cx="254.582" cy="312.91" r="2"/>
    <circle cx="284.768" cy="324.577" r="2"/>
    <circle cx="220.203" cy="331.577" r="2"/>
    <circle cx="147.252" cy="339.744" r="2"/>
    <circle cx="147.252" cy="336.244" r="2"/>
    <circle cx="220.203" cy="332.744" r="2"/>
    <circle cx="147.252" cy="340.91" r="2"/>
    <circle cx="220.203" cy="349.077" r="2"/>
    <circle cx="220.203" cy="343.244" r="2"/>
    <circle cx="220.203" cy="347.91" r="2"/>
    <circle cx="220.203" cy="381.744" r="2"/>
    <circle cx="220.203" cy="368.91" r="2"/>
    <circle cx="220.203" cy="374.744" r="2"/>
    <circle cx="143.898" cy="419.077" r="2"/>
    <circle cx="161.507" cy="395.744" r="2"/>
    <circle cx="161.507" cy="339.744" r="2"/>
    <circle cx="143.898" cy="478.577" r="2"/>
    <circle cx="161.507" cy="443.577" r="2"/>
    <circle cx="161.507" cy="335.077" r="2"/>
    <circle cx="143.898" cy="343.244" r="2"/>
    <circle cx="161.507" cy="340.91" r="2"/>
    <circle cx="161.507" cy="337.41" r="2"/>
    <circle cx="143.898" cy="452.91" r="2"/>
    <circle cx="172.408" cy="337.41" r="2"/>
    <circle cx="161.507" cy="438.91" r="2"/>
    <circle cx="144.737" cy="370.077" r="2"/>
    <circle cx="168.215" cy="324.577" r="2"/>
    <circle cx="179.954" cy="344.41" r="2"/>
    <circle cx="416.414" cy="454.077" r="2"/>
    <circle cx="215.172" cy="454.077" r="2"/>
    <circle cx="253.743" cy="344.41" r="2"/>
    <circle cx="221.88" cy="351.41" r="2"/>
    <circle cx="189.178" cy="343.244" r="2"/>
    <circle cx="184.147" cy="336.244" r="2"/>
    <circle cx="239.488" cy="343.244" r="2"/>
    <circle cx="224.395" cy="335.077" r="2"/>
    <circle cx="195.886" cy="333.91" r="2"/>
    <circle cx="315.793" cy="344.41" r="2"/>
    <circle cx="224.395" cy="346.744" r="2"/>
    <circle cx="227.749" cy="343.244" r="2"/>
    <circle cx="231.942" cy="349.077" r="2"/>
    <circle cx="194.209" cy="347.91" r="2"/>
    <circle cx="190.855" cy="328.077" r="2"/>
    <circle cx="180.793" cy="350.244" r="2"/>
    <circle cx="202.594" cy="357.244" r="2"/>
    <circle cx="233.619" cy="340.91" r="2"/>
    <circle cx="319.985" cy="339.744" r="2"/>
    <circle cx="284.768" cy="330.41" r="2"/>
    <circle cx="330.047" cy="315.244" r="2"/>
    <circle cx="207.625" cy="342.077" r="2"/>
    <circle cx="178.277" cy="345.577" r="2"/>
    <circle cx="229.426" cy="317.577" r="2"/>
    <circle cx="172.408" cy="346.744" r="2"/>
    <circle cx="341.787" cy="546.244" r="2"/>
    <circle cx="174.923" cy="337.41" r="2"/>
    <circle cx="209.302" cy="332.744" r="2"/>
    <circle cx="209.302" cy="331.577" r="2"/>
    <circle cx="158.153" cy="358.41" r="2"/>
    <circle cx="195.047" cy="339.744" r="2"/>
    <circle cx="272.19" cy="371.244" r="2"/>
    <circle cx="314.116" cy="330.41" r="2"/>
    <circle cx="242.004" cy="324.577" r="2"/>
    <circle cx="173.246" cy="365.41" r="2"/>
    <circle cx="310.762" cy="349.077" r="2"/>
    <circle cx="144.737" cy="340.91" r="2"/>
    <circle cx="144.737" cy="344.41" r="2"/>
    <circle cx="211.818" cy="328.077" r="2"/>
    <circle cx="200.917" cy="337.41" r="2"/>
    <circle cx="238.65" cy="326.91" r="2"/>
    <circle cx="250.389" cy="359.577" r="2"/>
    <circle cx="238.65" cy="356.077" r="2"/>
    <circle cx="309.085" cy="363.077" r="2"/>
    <circle cx="548.06" cy="379.41" r="2"/>
    <circle cx="162.346" cy="339.744" r="2"/>
    <circle cx="237.811" cy="352.577" r="2"/>
    <circle cx="296.507" cy="331.577" r="2"/>
    <circle cx="167.377" cy="340.91" r="2"/>
    <circle cx="236.134" cy="343.244" r="2"/>
    <circle cx="217.687" cy="345.577" r="2"/>
    <circle cx="347.656" cy="347.91" r="2"/>
    <circle cx="135.513" cy="353.744" r="2"/>
    <circle cx="169.892" cy="352.577" r="2"/>
    <circle cx="241.165" cy="353.744" r="2"/>
    <circle cx="284.768" cy="360.744" r="2"/>
    <circle cx="181.631" cy="368.91" r="2"/>
    <circle cx="262.128" cy="343.244" r="2"/>
    <circle cx="250.389" cy="347.91" r="2"/>
    <circle cx="361.911" cy="331.577" r="2"/>
    <circle cx="387.066" cy="356.077" r="2"/>
    <circle cx="220.203" cy="330.41" r="2"/>
    <circle cx="227.749" cy="328.077" r="2"/>
    <circle cx="315.793" cy="308.244" r="2"/>
    <circle cx="428.992" cy="337.41" r="2"/>
    <circle cx="343.464" cy="330.41" r="2"/>
    <circle cx="343.464" cy="178.744" r="2"/>
    <circle cx="356.88" cy="445.91" r="2"/>
    <circle cx="178.277" cy="321.077" r="2"/>
    <circle cx="644.488" cy="367.744" r="2"/>
    <circle cx="365.265" cy="352.577" r="2"/>
    <circle cx="263.805" cy="360.744" r="2"/>
    <circle cx="281.414" cy="358.41" r="2"/>
    <circle cx="372.811" cy="305.91" r="2"/>
    <circle cx="388.743" cy="311.744" r="2"/>
    <circle cx="291.476" cy="329.244" r="2"/>
    <circle cx="375.327" cy="370.077" r="2"/>
    <circle cx="251.228" cy="331.577" r="2"/>
    <circle cx="199.24" cy="336.244" r="2"/>
    <circle cx="256.259" cy="302.41" r="2"/>
    <circle cx="235.296" cy="346.744" r="2"/>
    <circle cx="224.395" cy="329.244" r="2"/>
    <circle cx="267.998" cy="328.077" r="2"/>
    <circle cx="463.37" cy="288.41" r="2"/>
    <circle cx="214.333" cy="323.41" r="2"/>
    <circle cx="433.184" cy="312.91" r="2"/>
    <circle cx="397.967" cy="319.91" r="2"/>
    <circle cx="304.892" cy="255.744" r="2"/>
    <circle cx="208.464" cy="326.91" r="2"/>
    <circle cx="283.929" cy="354.91" r="2"/>
    <circle cx="209.302" cy="351.41" r="2"/>
    <circle cx="199.24" cy="378.244" r="2"/>
    <circle cx="199.24" cy="361.91" r="2"/>
    <circle cx="209.302" cy="177.577" r="2"/>
    <circle cx="285.606" cy="330.41" r="2"/>
    <circle cx="335.079" cy="386.41" r="2"/>
    <circle cx="272.19" cy="346.744" r="2"/>
    <circle cx="271.352" cy="422.577" r="2"/>
    <circle cx="157.315" cy="338.577" r="2"/>
    <circle cx="200.079" cy="304.744" r="2"/>
    <circle cx="239.488" cy="290.744" r="2"/>
    <circle cx="210.979" cy="315.244" r="2"/>
    <circle cx="224.395" cy="317.577" r="2"/>
    <circle cx="360.234" cy="325.744" r="2"/>
    <circle cx="314.954" cy="221.91" r="2"/>
    <circle cx="253.743" cy="238.244" r="2"/>
    <circle cx="253.743" cy="324.577" r="2"/>
    <circle cx="231.103" cy="288.41" r="2"/>
    <circle cx="212.656" cy="357.244" r="2"/>
    <circle cx="230.265" cy="308.244" r="2"/>
    <circle cx="201.756" cy="324.577" r="2"/>
    <circle cx="184.147" cy="316.41" r="2"/>
  </g>
<style>
#g-fred_scatter-full-interactions-img rect, #g-fred_scatter-full-interactions-img circle, #g-fred_scatter-full-interactions-img path, #g-fred_scatter-full-interactions-img line, #g-fred_scatter-full-interactions-img polyline, #g-fred_scatter-full-interactions-img polygon { vector-effect: non-scaling-stroke; }
</style>
</svg>
