<?xml version="1.0" encoding="UTF-8"?>
<svg id="g-fred_scatter-medium-interactions-img" xmlns="http://www.w3.org/2000/svg" baseProfile="tiny" version="1.2" viewBox="0 0 490 616">
  <!-- Generator: Adobe Illustrator 29.5.0, SVG Export Plug-In . SVG Version: 2.1.0 Build 137)  -->
  <path id="highlight2" d="M472.477,347.5H74.164C206.935,240.833,339.706,134.167,472.477,27.5v320Z" fill="#f1e1ff"/>
  <path id="highlight1" d="M472.477,509.5H74.164v-162c132.771.333,265.542.667,398.313,1v161Z" fill="#f1e1ff"/>
  <line x1="58.663" y1="347.5" x2="490" y2="347.5" fill="none" stroke="#ccc"/>
  <line x1="58.663" y1="187" x2="490" y2="187" fill="none" stroke="#ccc"/>
  <line x1="58.663" y1="509.5" x2="490" y2="509.5" fill="none" stroke="#ccc"/>
  <line x1="173.525" y1="550" x2="173.525" fill="none" stroke="#ccc"/>
  <line x1="273.272" y1="550" x2="273.272" fill="none" stroke="#ccc"/>
  <line x1="373.019" y1="550" x2="373.019" fill="none" stroke="#ccc"/>
  <line x1="58.663" y1="26.5" x2="490" y2="26.5" fill="none" stroke="#ccc"/>
  <line x1="73.779" y1="550" x2="73.779" fill="none" stroke="#ccc"/>
  <line x1="472.765" y1="550" x2="472.765" fill="none" stroke="#ccc"/>
  <circle id="powerposedot" cx="447.357" cy="300.077" r="1.5"/>
  <g id="replicationline">
    <line x1="76.86" y1="347.5" x2="472.477" y2="27.5"/>
    <g>
      <line x1="76.86" y1="347.5" x2="79.193" y2="345.613" fill="none" stroke="#000" stroke-miterlimit="10"/>
      <line x1="83.903" y1="341.803" x2="467.789" y2="31.292" fill="none" stroke="#000" stroke-dasharray="6.058 6.058" stroke-miterlimit="10"/>
      <line x1="470.144" y1="29.387" x2="472.477" y2="27.5" fill="none" stroke="#000" stroke-miterlimit="10"/>
    </g>
  </g>
  <g id="powerposepath">
    <path d="M432.713,255.5c-.541,1.701-4.528,14.792,0,27.857,1.263,3.645,2.886,6.414,4.435,8.467" fill="none" stroke="#000" stroke-miterlimit="10"/>
    <path d="M441.343,296.161c-2.713-1.347-6.437-2.682-9.32-2.968l4.643-2.005,2.285-4.511c.109,2.896,1.213,6.694,2.392,9.484Z"/>
  </g>
  <g id="otherreplication">
    <circle cx="151.796" cy="301.244" r="1.5"/>
    <circle cx="151.796" cy="342.077" r="1.5"/>
    <circle cx="158.012" cy="339.744" r="1.5"/>
    <circle cx="145.015" cy="321.077" r="1.5"/>
    <circle cx="151.796" cy="267.41" r="1.5"/>
    <circle cx="195.311" cy="206.744" r="1.5"/>
    <circle cx="161.403" cy="326.91" r="1.5"/>
    <circle cx="212.265" cy="259.244" r="1.5"/>
    <circle cx="137.668" cy="301.244" r="1.5"/>
    <circle cx="210.004" cy="314.077" r="1.5"/>
    <circle cx="293.643" cy="234.744" r="1.5"/>
    <circle cx="165.359" cy="325.744" r="1.5"/>
    <circle cx="202.092" cy="282.577" r="1.5"/>
    <circle cx="177.227" cy="297.744" r="1.5"/>
    <circle cx="158.012" cy="309.41" r="1.5"/>
    <circle cx="129.756" cy="338.577" r="1.5"/>
    <circle cx="211.134" cy="253.41" r="1.5"/>
    <circle cx="124.67" cy="342.077" r="1.5"/>
    <circle cx="234.87" cy="23.577" r="1.5"/>
    <circle cx="125.8" cy="308.244" r="1.5"/>
    <circle cx="440.575" cy="23.577" r="1.5"/>
    <circle cx="221.872" cy="342.077" r="1.5"/>
    <circle cx="172.141" cy="289.577" r="1.5"/>
    <circle cx="75.504" cy="312.91" r="1.5"/>
    <circle cx="271.603" cy="183.41" r="1.5"/>
    <circle cx="142.754" cy="328.077" r="1.5"/>
    <circle cx="176.662" cy="311.744" r="1.5"/>
    <circle cx="96.979" cy="296.577" r="1.5"/>
    <circle cx="161.403" cy="363.077" r="1.5"/>
    <circle cx="119.019" cy="319.91" r="1.5"/>
    <circle cx="146.145" cy="337.41" r="1.5"/>
    <circle cx="83.981" cy="356.077" r="1.5"/>
    <circle cx="83.981" cy="403.91" r="1.5"/>
    <circle cx="83.981" cy="345.577" r="1.5"/>
    <circle cx="83.981" cy="391.077" r="1.5"/>
    <circle cx="105.456" cy="328.077" r="1.5"/>
    <circle cx="101.5" cy="340.91" r="1.5"/>
    <circle cx="89.632" cy="318.744" r="1.5"/>
    <circle cx="124.67" cy="333.91" r="1.5"/>
    <circle cx="128.626" cy="346.744" r="1.5"/>
    <circle cx="123.54" cy="302.41" r="1.5"/>
    <circle cx="157.447" cy="339.744" r="1.5"/>
    <circle cx="157.447" cy="357.244" r="1.5"/>
    <circle cx="157.447" cy="331.577" r="1.5"/>
    <circle cx="130.321" cy="295.41" r="1.5"/>
    <circle cx="188.529" cy="345.577" r="1.5"/>
    <circle cx="168.75" cy="351.41" r="1.5"/>
    <circle cx="193.615" cy="352.577" r="1.5"/>
    <circle cx="81.721" cy="386.41" r="1.5"/>
    <circle cx="280.645" cy="332.744" r="1.5"/>
    <circle cx="280.645" cy="546.244" r="1.5"/>
    <circle cx="220.741" cy="357.244" r="1.5"/>
    <circle cx="153.491" cy="339.744" r="1.5"/>
    <circle cx="229.783" cy="336.244" r="1.5"/>
    <circle cx="163.099" cy="367.744" r="1.5"/>
    <circle cx="108.281" cy="23.577" r="1.5"/>
    <circle cx="181.183" cy="445.91" r="1.5"/>
    <circle cx="113.933" cy="367.744" r="1.5"/>
    <circle cx="158.578" cy="343.244" r="1.5"/>
    <circle cx="169.315" cy="255.744" r="1.5"/>
    <circle cx="223.002" cy="23.577" r="1.5"/>
    <circle cx="221.872" cy="269.744" r="1.5"/>
    <circle cx="248.998" cy="248.744" r="1.5"/>
    <circle cx="78.33" cy="347.91" r="1.5"/>
    <circle cx="96.414" cy="134.41" r="1.5"/>
    <circle cx="129.191" cy="349.077" r="1.5"/>
    <circle cx="122.975" cy="331.577" r="1.5"/>
    <circle cx="169.315" cy="255.744" r="1.5"/>
    <circle cx="166.489" cy="321.077" r="1.5"/>
    <circle cx="165.924" cy="241.744" r="1.5"/>
    <circle cx="94.153" cy="23.577" r="1.5"/>
    <circle cx="115.063" cy="244.077" r="1.5"/>
    <circle cx="194.181" cy="177.577" r="1.5"/>
    <circle cx="156.317" cy="360.744" r="1.5"/>
    <circle cx="177.792" cy="136.744" r="1.5"/>
    <circle cx="250.128" cy="210.244" r="1.5"/>
    <circle cx="164.229" cy="214.91" r="1.5"/>
    <circle cx="181.748" cy="410.91" r="1.5"/>
    <circle cx="128.061" cy="337.41" r="1.5"/>
    <circle cx="125.235" cy="333.91" r="1.5"/>
    <circle cx="138.233" cy="23.577" r="1.5"/>
    <circle cx="193.05" cy="302.41" r="1.5"/>
    <circle cx="120.149" cy="317.577" r="1.5"/>
    <circle cx="190.79" cy="211.41" r="1.5"/>
    <circle cx="188.529" cy="260.41" r="1.5"/>
    <circle cx="182.313" cy="283.744" r="1.5"/>
    <circle cx="113.368" cy="297.744" r="1.5"/>
    <circle cx="98.674" cy="330.41" r="1.5"/>
    <circle cx="156.882" cy="315.244" r="1.5"/>
    <circle cx="151.796" cy="324.577" r="1.5"/>
    <circle cx="203.223" cy="422.577" r="1.5"/>
    <circle cx="182.313" cy="315.244" r="1.5"/>
    <circle cx="144.449" cy="316.41" r="1.5"/>
    <circle cx="122.975" cy="314.077" r="1.5"/>
    <circle cx="203.223" cy="256.91" r="1.5"/>
    <circle cx="310.596" cy="219.577" r="1.5"/>
    <circle cx="352.416" cy="94.744" r="1.5"/>
    <circle cx="341.678" cy="196.244" r="1.5"/>
    <circle cx="282.905" cy="177.577" r="1.5"/>
    <circle cx="218.481" cy="255.744" r="1.5"/>
    <circle cx="224.697" cy="224.244" r="1.5"/>
    <circle cx="367.674" cy="119.244" r="1.5"/>
    <circle cx="321.899" cy="191.577" r="1.5"/>
    <circle cx="279.514" cy="245.244" r="1.5"/>
    <circle cx="358.067" cy="126.244" r="1.5"/>
    <circle cx="213.96" cy="298.91" r="1.5"/>
    <circle cx="82.851" cy="339.744" r="1.5"/>
    <circle cx="274.428" cy="276.744" r="1.5"/>
    <circle cx="206.613" cy="274.41" r="1.5"/>
    <circle cx="352.981" cy="104.077" r="1.5"/>
    <circle cx="345.069" cy="100.577" r="1.5"/>
    <circle cx="300.989" cy="135.577" r="1.5"/>
    <circle cx="188.529" cy="242.91" r="1.5"/>
    <circle cx="412.884" cy="79.577" r="1.5"/>
    <circle cx="361.458" cy="48.077" r="1.5"/>
    <circle cx="346.764" cy="176.41" r="1.5"/>
    <circle cx="251.258" cy="210.244" r="1.5"/>
    <circle cx="157.447" cy="185.744" r="1.5"/>
    <circle cx="310.031" cy="149.577" r="1.5"/>
    <circle cx="380.107" cy="135.577" r="1.5"/>
    <circle cx="206.048" cy="279.077" r="1.5"/>
    <circle cx="317.378" cy="129.744" r="1.5"/>
    <circle cx="223.567" cy="224.244" r="1.5"/>
    <circle cx="140.494" cy="326.91" r="1.5"/>
    <circle cx="140.494" cy="323.41" r="1.5"/>
    <circle cx="189.094" cy="244.077" r="1.5"/>
    <circle cx="189.094" cy="305.91" r="1.5"/>
    <circle cx="452.443" cy="27.077" r="1.5"/>
    <circle cx="389.714" cy="141.41" r="1.5"/>
    <circle cx="245.042" cy="295.41" r="1.5"/>
    <circle cx="319.073" cy="244.077" r="1.5"/>
    <circle cx="380.107" cy="224.244" r="1.5"/>
    <circle cx="330.376" cy="283.744" r="1.5"/>
    <circle cx="316.813" cy="191.577" r="1.5"/>
    <circle cx="307.771" cy="184.577" r="1.5"/>
    <circle cx="302.119" cy="267.41" r="1.5"/>
    <circle cx="284.601" cy="178.744" r="1.5"/>
    <circle cx="228.088" cy="267.41" r="1.5"/>
    <circle cx="119.584" cy="322.244" r="1.5"/>
    <circle cx="119.584" cy="318.744" r="1.5"/>
    <circle cx="119.584" cy="317.577" r="1.5"/>
    <circle cx="168.75" cy="326.91" r="1.5"/>
    <circle cx="168.75" cy="262.744" r="1.5"/>
    <circle cx="119.584" cy="324.577" r="1.5"/>
    <circle cx="168.75" cy="326.91" r="1.5"/>
    <circle cx="168.75" cy="305.91" r="1.5"/>
    <circle cx="119.584" cy="335.077" r="1.5"/>
    <circle cx="119.584" cy="330.41" r="1.5"/>
    <circle cx="119.584" cy="331.577" r="1.5"/>
    <circle cx="119.584" cy="326.91" r="1.5"/>
    <circle cx="119.584" cy="335.077" r="1.5"/>
    <circle cx="134.842" cy="328.077" r="1.5"/>
    <circle cx="136.538" cy="328.077" r="1.5"/>
    <circle cx="134.842" cy="322.244" r="1.5"/>
    <circle cx="136.538" cy="323.41" r="1.5"/>
    <circle cx="134.842" cy="326.91" r="1.5"/>
    <circle cx="136.538" cy="328.077" r="1.5"/>
    <circle cx="134.842" cy="328.077" r="1.5"/>
    <circle cx="129.191" cy="332.744" r="1.5"/>
    <circle cx="332.636" cy="195.077" r="1.5"/>
    <circle cx="133.712" cy="237.077" r="1.5"/>
    <circle cx="260.865" cy="286.077" r="1.5"/>
    <circle cx="181.183" cy="140.244" r="1.5"/>
    <circle cx="109.412" cy="295.41" r="1.5"/>
    <circle cx="189.094" cy="207.91" r="1.5"/>
    <circle cx="209.439" cy="276.744" r="1.5"/>
    <circle cx="228.088" cy="237.077" r="1.5"/>
    <circle cx="142.754" cy="289.577" r="1.5"/>
    <circle cx="159.143" cy="282.577" r="1.5"/>
    <circle cx="143.319" cy="309.41" r="1.5"/>
    <circle cx="321.899" cy="268.577" r="1.5"/>
    <circle cx="328.115" cy="251.077" r="1.5"/>
    <circle cx="186.834" cy="283.744" r="1.5"/>
    <circle cx="399.886" cy="275.577" r="1.5"/>
    <circle cx="159.708" cy="249.91" r="1.5"/>
    <circle cx="237.695" cy="247.577" r="1.5"/>
    <circle cx="319.073" cy="294.244" r="1.5"/>
    <circle cx="165.359" cy="312.91" r="1.5"/>
    <circle cx="171.575" cy="266.244" r="1.5"/>
    <circle cx="390.844" cy="206.744" r="1.5"/>
    <circle cx="207.744" cy="308.244" r="1.5"/>
    <circle cx="226.958" cy="266.244" r="1.5"/>
    <circle cx="217.916" cy="312.91" r="1.5"/>
    <circle cx="220.176" cy="221.91" r="1.5"/>
    <circle cx="173.271" cy="270.91" r="1.5"/>
    <circle cx="193.05" cy="289.577" r="1.5"/>
    <circle cx="182.878" cy="316.41" r="1.5"/>
    <circle cx="227.523" cy="252.244" r="1.5"/>
    <circle cx="138.233" cy="303.577" r="1.5"/>
    <circle cx="145.015" cy="321.077" r="1.5"/>
    <circle cx="135.973" cy="280.244" r="1.5"/>
    <circle cx="155.752" cy="323.41" r="1.5"/>
    <circle cx="374.455" cy="150.744" r="1.5"/>
    <circle cx="369.369" cy="105.244" r="1.5"/>
    <circle cx="172.141" cy="296.577" r="1.5"/>
    <circle cx="172.141" cy="270.91" r="1.5"/>
    <circle cx="199.832" cy="255.744" r="1.5"/>
    <circle cx="117.889" cy="289.577" r="1.5"/>
    <circle cx="117.889" cy="295.41" r="1.5"/>
    <circle cx="117.889" cy="337.41" r="1.5"/>
    <circle cx="117.889" cy="337.41" r="1.5"/>
    <circle cx="117.889" cy="318.744" r="1.5"/>
    <circle cx="199.832" cy="311.744" r="1.5"/>
    <circle cx="271.038" cy="216.077" r="1.5"/>
    <circle cx="456.964" cy="79.577" r="1.5"/>
    <circle cx="184.573" cy="300.077" r="1.5"/>
    <circle cx="282.905" cy="231.244" r="1.5"/>
    <circle cx="342.243" cy="206.744" r="1.5"/>
    <circle cx="162.533" cy="288.41" r="1.5"/>
    <circle cx="398.756" cy="78.41" r="1.5"/>
    <circle cx="325.29" cy="235.91" r="1.5"/>
    <circle cx="313.987" cy="223.077" r="1.5"/>
    <circle cx="253.519" cy="157.744" r="1.5"/>
    <circle cx="254.084" cy="232.41" r="1.5"/>
    <circle cx="153.491" cy="310.577" r="1.5"/>
    <circle cx="223.567" cy="298.91" r="1.5"/>
    <circle cx="342.243" cy="155.41" r="1.5"/>
    <circle cx="307.771" cy="134.41" r="1.5"/>
    <circle cx="385.193" cy="165.91" r="1.5"/>
    <circle cx="250.693" cy="183.41" r="1.5"/>
    <circle cx="221.872" cy="209.077" r="1.5"/>
    <circle cx="221.872" cy="209.077" r="1.5"/>
    <circle cx="203.788" cy="230.077" r="1.5"/>
    <circle cx="226.393" cy="283.744" r="1.5"/>
    <circle cx="173.836" cy="301.244" r="1.5"/>
    <circle cx="140.494" cy="307.077" r="1.5"/>
    <circle cx="150.101" cy="318.744" r="1.5"/>
    <circle cx="232.609" cy="328.077" r="1.5"/>
    <circle cx="308.901" cy="149.577" r="1.5"/>
    <circle cx="256.909" cy="153.077" r="1.5"/>
    <circle cx="404.407" cy="98.244" r="1.5"/>
    <circle cx="228.088" cy="276.744" r="1.5"/>
    <circle cx="161.403" cy="324.577" r="1.5"/>
    <circle cx="149.536" cy="273.244" r="1.5"/>
    <circle cx="168.185" cy="276.744" r="1.5"/>
    <circle cx="260.865" cy="77.244" r="1.5"/>
    <circle cx="260.865" cy="282.577" r="1.5"/>
    <circle cx="343.939" cy="136.744" r="1.5"/>
    <circle cx="213.96" cy="298.91" r="1.5"/>
    <circle cx="360.327" cy="105.244" r="1.5"/>
    <circle cx="282.905" cy="176.41" r="1.5"/>
    <circle cx="400.451" cy="165.91" r="1.5"/>
    <circle cx="181.748" cy="293.077" r="1.5"/>
    <circle cx="165.924" cy="241.744" r="1.5"/>
    <circle cx="383.497" cy="224.244" r="1.5"/>
    <circle cx="190.79" cy="269.744" r="1.5"/>
    <circle cx="308.336" cy="284.91" r="1.5"/>
    <circle cx="320.769" cy="73.744" r="1.5"/>
    <circle cx="178.922" cy="276.744" r="1.5"/>
    <circle cx="229.783" cy="214.91" r="1.5"/>
    <circle cx="180.052" cy="286.077" r="1.5"/>
    <circle cx="337.157" cy="139.077" r="1.5"/>
    <circle cx="258.04" cy="151.91" r="1.5"/>
    <circle cx="458.659" cy="113.41" r="1.5"/>
    <circle cx="276.124" cy="270.91" r="1.5"/>
    <circle cx="248.433" cy="210.244" r="1.5"/>
    <circle cx="355.806" cy="220.744" r="1.5"/>
    <circle cx="400.451" cy="165.91" r="1.5"/>
    <circle cx="459.789" cy="150.744" r="1.5"/>
    <circle cx="238.825" cy="184.577" r="1.5"/>
    <circle cx="252.954" cy="182.244" r="1.5"/>
    <circle cx="264.256" cy="237.077" r="1.5"/>
    <circle cx="198.702" cy="234.744" r="1.5"/>
    <circle cx="350.72" cy="123.91" r="1.5"/>
    <circle cx="216.22" cy="211.41" r="1.5"/>
    <circle cx="245.607" cy="142.577" r="1.5"/>
    <circle cx="242.781" cy="254.577" r="1.5"/>
    <circle cx="301.554" cy="262.744" r="1.5"/>
    <circle cx="372.76" cy="176.41" r="1.5"/>
    <circle cx="209.439" cy="216.077" r="1.5"/>
    <circle cx="234.87" cy="213.744" r="1.5"/>
    <circle cx="171.01" cy="224.244" r="1.5"/>
    <circle cx="225.828" cy="255.744" r="1.5"/>
    <circle cx="186.269" cy="181.077" r="1.5"/>
    <circle cx="186.269" cy="248.744" r="1.5"/>
    <circle cx="186.269" cy="242.91" r="1.5"/>
    <circle cx="186.269" cy="204.41" r="1.5"/>
    <circle cx="186.269" cy="217.244" r="1.5"/>
    <circle cx="186.269" cy="252.244" r="1.5"/>
    <circle cx="186.269" cy="253.41" r="1.5"/>
    <circle cx="186.269" cy="224.244" r="1.5"/>
    <circle cx="186.269" cy="270.91" r="1.5"/>
    <circle cx="186.269" cy="267.41" r="1.5"/>
    <circle cx="186.269" cy="190.41" r="1.5"/>
    <circle cx="186.269" cy="147.244" r="1.5"/>
    <circle cx="151.796" cy="288.41" r="1.5"/>
    <circle cx="203.788" cy="262.744" r="1.5"/>
    <circle cx="198.702" cy="366.577" r="1.5"/>
    <circle cx="198.702" cy="351.41" r="1.5"/>
    <circle cx="228.653" cy="337.41" r="1.5"/>
    <circle cx="135.407" cy="297.744" r="1.5"/>
    <circle cx="130.886" cy="357.244" r="1.5"/>
    <circle cx="229.783" cy="456.41" r="1.5"/>
    <circle cx="229.783" cy="283.744" r="1.5"/>
    <circle cx="130.886" cy="367.744" r="1.5"/>
    <circle cx="229.783" cy="352.577" r="1.5"/>
    <circle cx="203.788" cy="323.41" r="1.5"/>
    <circle cx="241.086" cy="326.91" r="1.5"/>
    <circle cx="198.702" cy="381.744" r="1.5"/>
    <circle cx="168.75" cy="350.244" r="1.5"/>
    <circle cx="310.596" cy="300.077" r="1.5"/>
    <circle cx="317.378" cy="273.244" r="1.5"/>
    <circle cx="243.346" cy="417.91" r="1.5"/>
    <circle cx="164.794" cy="349.077" r="1.5"/>
    <circle cx="257.475" cy="303.577" r="1.5"/>
    <circle cx="358.632" cy="304.744" r="1.5"/>
    <circle cx="297.598" cy="384.077" r="1.5"/>
    <circle cx="297.033" cy="217.244" r="1.5"/>
    <circle cx="163.099" cy="340.91" r="1.5"/>
    <circle cx="219.611" cy="315.244" r="1.5"/>
    <circle cx="212.265" cy="295.41" r="1.5"/>
    <circle cx="163.664" cy="364.244" r="1.5"/>
    <circle cx="224.697" cy="357.244" r="1.5"/>
    <circle cx="156.882" cy="297.744" r="1.5"/>
    <circle cx="155.752" cy="317.577" r="1.5"/>
    <circle cx="224.132" cy="322.244" r="1.5"/>
    <circle cx="224.697" cy="360.744" r="1.5"/>
    <circle cx="140.494" cy="336.244" r="1.5"/>
    <circle cx="161.403" cy="349.077" r="1.5"/>
    <circle cx="182.878" cy="323.41" r="1.5"/>
    <circle cx="243.346" cy="310.577" r="1.5"/>
    <circle cx="245.607" cy="344.41" r="1.5"/>
    <circle cx="147.84" cy="346.744" r="1.5"/>
    <circle cx="162.533" cy="323.41" r="1.5"/>
    <circle cx="156.317" cy="332.744" r="1.5"/>
    <circle cx="180.617" cy="380.577" r="1.5"/>
    <circle cx="193.615" cy="260.41" r="1.5"/>
    <circle cx="231.479" cy="343.244" r="1.5"/>
    <circle cx="200.397" cy="391.077" r="1.5"/>
    <circle cx="224.697" cy="359.577" r="1.5"/>
    <circle cx="225.828" cy="420.244" r="1.5"/>
    <circle cx="162.533" cy="314.077" r="1.5"/>
    <circle cx="294.773" cy="317.577" r="1.5"/>
    <circle cx="273.863" cy="493.744" r="1.5"/>
    <circle cx="159.143" cy="363.077" r="1.5"/>
    <circle cx="225.262" cy="266.244" r="1.5"/>
    <circle cx="226.958" cy="358.41" r="1.5"/>
    <circle cx="272.168" cy="314.077" r="1.5"/>
    <circle cx="167.054" cy="332.744" r="1.5"/>
    <circle cx="332.636" cy="186.91" r="1.5"/>
    <circle cx="148.97" cy="357.244" r="1.5"/>
    <circle cx="148.97" cy="342.077" r="1.5"/>
    <circle cx="361.458" cy="280.244" r="1.5"/>
    <circle cx="233.174" cy="346.744" r="1.5"/>
    <circle cx="416.275" cy="308.244" r="1.5"/>
    <circle cx="245.042" cy="311.744" r="1.5"/>
    <circle cx="197.571" cy="358.41" r="1.5"/>
    <circle cx="206.048" cy="282.577" r="1.5"/>
    <circle cx="206.048" cy="315.244" r="1.5"/>
    <circle cx="153.491" cy="346.744" r="1.5"/>
    <circle cx="150.666" cy="338.577" r="1.5"/>
    <circle cx="378.411" cy="352.577" r="1.5"/>
    <circle cx="378.411" cy="340.91" r="1.5"/>
    <circle cx="430.403" cy="451.744" r="1.5"/>
    <circle cx="325.855" cy="451.744" r="1.5"/>
    <circle cx="260.865" cy="307.077" r="1.5"/>
    <circle cx="141.624" cy="364.244" r="1.5"/>
    <circle cx="210.569" cy="340.91" r="1.5"/>
    <circle cx="210.569" cy="385.244" r="1.5"/>
    <circle cx="184.573" cy="363.077" r="1.5"/>
    <circle cx="184.573" cy="331.577" r="1.5"/>
    <circle cx="227.523" cy="406.244" r="1.5"/>
    <circle cx="173.836" cy="514.744" r="1.5"/>
    <circle cx="168.75" cy="419.077" r="1.5"/>
    <circle cx="191.92" cy="312.91" r="1.5"/>
    <circle cx="212.265" cy="324.577" r="1.5"/>
    <circle cx="168.75" cy="331.577" r="1.5"/>
    <circle cx="119.584" cy="339.744" r="1.5"/>
    <circle cx="119.584" cy="336.244" r="1.5"/>
    <circle cx="168.75" cy="332.744" r="1.5"/>
    <circle cx="119.584" cy="340.91" r="1.5"/>
    <circle cx="168.75" cy="349.077" r="1.5"/>
    <circle cx="168.75" cy="343.244" r="1.5"/>
    <circle cx="168.75" cy="347.91" r="1.5"/>
    <circle cx="168.75" cy="381.744" r="1.5"/>
    <circle cx="168.75" cy="368.91" r="1.5"/>
    <circle cx="168.75" cy="374.744" r="1.5"/>
    <circle cx="117.323" cy="419.077" r="1.5"/>
    <circle cx="129.191" cy="395.744" r="1.5"/>
    <circle cx="129.191" cy="339.744" r="1.5"/>
    <circle cx="117.323" cy="478.577" r="1.5"/>
    <circle cx="129.191" cy="443.577" r="1.5"/>
    <circle cx="129.191" cy="335.077" r="1.5"/>
    <circle cx="117.323" cy="343.244" r="1.5"/>
    <circle cx="129.191" cy="340.91" r="1.5"/>
    <circle cx="129.191" cy="337.41" r="1.5"/>
    <circle cx="117.323" cy="452.91" r="1.5"/>
    <circle cx="136.538" cy="337.41" r="1.5"/>
    <circle cx="129.191" cy="438.91" r="1.5"/>
    <circle cx="117.889" cy="370.077" r="1.5"/>
    <circle cx="133.712" cy="324.577" r="1.5"/>
    <circle cx="141.624" cy="344.41" r="1.5"/>
    <circle cx="300.989" cy="454.077" r="1.5"/>
    <circle cx="165.359" cy="454.077" r="1.5"/>
    <circle cx="191.355" cy="344.41" r="1.5"/>
    <circle cx="169.88" cy="351.41" r="1.5"/>
    <circle cx="147.84" cy="343.244" r="1.5"/>
    <circle cx="144.449" cy="336.244" r="1.5"/>
    <circle cx="181.748" cy="343.244" r="1.5"/>
    <circle cx="171.575" cy="335.077" r="1.5"/>
    <circle cx="152.361" cy="333.91" r="1.5"/>
    <circle cx="233.174" cy="344.41" r="1.5"/>
    <circle cx="171.575" cy="346.744" r="1.5"/>
    <circle cx="173.836" cy="343.244" r="1.5"/>
    <circle cx="176.662" cy="349.077" r="1.5"/>
    <circle cx="151.231" cy="347.91" r="1.5"/>
    <circle cx="148.97" cy="328.077" r="1.5"/>
    <circle cx="142.189" cy="350.244" r="1.5"/>
    <circle cx="156.882" cy="357.244" r="1.5"/>
    <circle cx="177.792" cy="340.91" r="1.5"/>
    <circle cx="236" cy="339.744" r="1.5"/>
    <circle cx="212.265" cy="330.41" r="1.5"/>
    <circle cx="242.781" cy="315.244" r="1.5"/>
    <circle cx="160.273" cy="342.077" r="1.5"/>
    <circle cx="140.494" cy="345.577" r="1.5"/>
    <circle cx="174.966" cy="317.577" r="1.5"/>
    <circle cx="136.538" cy="346.744" r="1.5"/>
    <circle cx="250.693" cy="546.244" r="1.5"/>
    <circle cx="138.233" cy="337.41" r="1.5"/>
    <circle cx="161.403" cy="332.744" r="1.5"/>
    <circle cx="161.403" cy="331.577" r="1.5"/>
    <circle cx="126.931" cy="358.41" r="1.5"/>
    <circle cx="151.796" cy="339.744" r="1.5"/>
    <circle cx="203.788" cy="371.244" r="1.5"/>
    <circle cx="232.044" cy="330.41" r="1.5"/>
    <circle cx="183.443" cy="324.577" r="1.5"/>
    <circle cx="137.103" cy="365.41" r="1.5"/>
    <circle cx="229.783" cy="349.077" r="1.5"/>
    <circle cx="117.889" cy="340.91" r="1.5"/>
    <circle cx="117.889" cy="344.41" r="1.5"/>
    <circle cx="163.099" cy="328.077" r="1.5"/>
    <circle cx="155.752" cy="337.41" r="1.5"/>
    <circle cx="181.183" cy="326.91" r="1.5"/>
    <circle cx="189.094" cy="359.577" r="1.5"/>
    <circle cx="181.183" cy="356.077" r="1.5"/>
    <circle cx="228.653" cy="363.077" r="1.5"/>
    <circle cx="389.714" cy="379.41" r="1.5"/>
    <circle cx="129.756" cy="339.744" r="1.5"/>
    <circle cx="180.617" cy="352.577" r="1.5"/>
    <circle cx="220.176" cy="331.577" r="1.5"/>
    <circle cx="133.147" cy="340.91" r="1.5"/>
    <circle cx="179.487" cy="343.244" r="1.5"/>
    <circle cx="167.054" cy="345.577" r="1.5"/>
    <circle cx="254.649" cy="347.91" r="1.5"/>
    <circle cx="111.672" cy="353.744" r="1.5"/>
    <circle cx="134.842" cy="352.577" r="1.5"/>
    <circle cx="182.878" cy="353.744" r="1.5"/>
    <circle cx="212.265" cy="360.744" r="1.5"/>
    <circle cx="142.754" cy="368.91" r="1.5"/>
    <circle cx="197.006" cy="343.244" r="1.5"/>
    <circle cx="189.094" cy="347.91" r="1.5"/>
    <circle cx="264.256" cy="331.577" r="1.5"/>
    <circle cx="281.21" cy="356.077" r="1.5"/>
    <circle cx="168.75" cy="330.41" r="1.5"/>
    <circle cx="173.836" cy="328.077" r="1.5"/>
    <circle cx="233.174" cy="308.244" r="1.5"/>
    <circle cx="309.466" cy="337.41" r="1.5"/>
    <circle cx="251.823" cy="330.41" r="1.5"/>
    <circle cx="251.823" cy="178.744" r="1.5"/>
    <circle cx="260.865" cy="445.91" r="1.5"/>
    <circle cx="140.494" cy="321.077" r="1.5"/>
    <circle cx="454.703" cy="367.744" r="1.5"/>
    <circle cx="266.517" cy="352.577" r="1.5"/>
    <circle cx="198.136" cy="360.744" r="1.5"/>
    <circle cx="210.004" cy="358.41" r="1.5"/>
    <circle cx="271.603" cy="305.91" r="1.5"/>
    <circle cx="282.34" cy="311.744" r="1.5"/>
    <circle cx="216.786" cy="329.244" r="1.5"/>
    <circle cx="273.298" cy="370.077" r="1.5"/>
    <circle cx="189.66" cy="331.577" r="1.5"/>
    <circle cx="154.622" cy="336.244" r="1.5"/>
    <circle cx="193.05" cy="302.41" r="1.5"/>
    <circle cx="178.922" cy="346.744" r="1.5"/>
    <circle cx="171.575" cy="329.244" r="1.5"/>
    <circle cx="200.962" cy="328.077" r="1.5"/>
    <circle cx="332.636" cy="288.41" r="1.5"/>
    <circle cx="164.794" cy="323.41" r="1.5"/>
    <circle cx="312.292" cy="312.91" r="1.5"/>
    <circle cx="288.556" cy="319.91" r="1.5"/>
    <circle cx="225.828" cy="255.744" r="1.5"/>
    <circle cx="160.838" cy="326.91" r="1.5"/>
    <circle cx="211.699" cy="354.91" r="1.5"/>
    <circle cx="161.403" cy="351.41" r="1.5"/>
    <circle cx="154.622" cy="378.244" r="1.5"/>
    <circle cx="154.622" cy="361.91" r="1.5"/>
    <circle cx="161.403" cy="177.577" r="1.5"/>
    <circle cx="212.83" cy="330.41" r="1.5"/>
    <circle cx="246.172" cy="386.41" r="1.5"/>
    <circle cx="203.788" cy="346.744" r="1.5"/>
    <circle cx="203.223" cy="422.577" r="1.5"/>
    <circle cx="126.365" cy="338.577" r="1.5"/>
    <circle cx="155.187" cy="304.744" r="1.5"/>
    <circle cx="181.748" cy="290.744" r="1.5"/>
    <circle cx="162.533" cy="315.244" r="1.5"/>
    <circle cx="171.575" cy="317.577" r="1.5"/>
    <circle cx="263.126" cy="325.744" r="1.5"/>
    <circle cx="232.609" cy="221.91" r="1.5"/>
    <circle cx="191.355" cy="238.244" r="1.5"/>
    <circle cx="191.355" cy="324.577" r="1.5"/>
    <circle cx="176.096" cy="288.41" r="1.5"/>
    <circle cx="163.664" cy="357.244" r="1.5"/>
    <circle cx="175.531" cy="308.244" r="1.5"/>
    <circle cx="156.317" cy="324.577" r="1.5"/>
    <circle cx="144.449" cy="316.41" r="1.5"/>
    <circle cx="911.2" cy="229.345" r="1.5"/>
    <circle cx="911.2" cy="266.465" r="1.5"/>
    <circle cx="915.837" cy="264.344" r="1.5"/>
    <circle cx="906.141" cy="247.375" r="1.5"/>
    <circle cx="911.2" cy="198.589" r="1.5"/>
    <circle cx="943.662" cy="143.44" r="1.5"/>
    <circle cx="918.367" cy="252.677" r="1.5"/>
    <circle cx="956.309" cy="191.165" r="1.5"/>
    <circle cx="900.66" cy="229.345" r="1.5"/>
    <circle cx="954.623" cy="241.011" r="1.5"/>
    <circle cx="1017.017" cy="168.893" r="1.5"/>
    <circle cx="921.318" cy="251.617" r="1.5"/>
    <circle cx="948.721" cy="212.376" r="1.5"/>
    <circle cx="930.171" cy="226.164" r="1.5"/>
    <circle cx="915.837" cy="236.769" r="1.5"/>
    <circle cx="894.758" cy="263.283" r="1.5"/>
    <circle cx="955.466" cy="185.862" r="1.5"/>
    <circle cx="890.964" cy="266.465" r="1.5"/>
    <circle cx="973.173" cy="-23.067" r="1.5"/>
    <circle cx="891.807" cy="235.709" r="1.5"/>
    <circle cx="1126.629" cy="-23.067" r="1.5"/>
    <circle cx="963.476" cy="266.465" r="1.5"/>
    <circle cx="926.377" cy="218.74" r="1.5"/>
    <circle cx="854.286" cy="239.951" r="1.5"/>
    <circle cx="1000.576" cy="122.229" r="1.5"/>
    <circle cx="904.455" cy="253.738" r="1.5"/>
    <circle cx="929.75" cy="238.89" r="1.5"/>
    <circle cx="870.306" cy="225.103" r="1.5"/>
    <circle cx="918.367" cy="285.555" r="1.5"/>
    <circle cx="886.748" cy="246.314" r="1.5"/>
    <circle cx="906.984" cy="262.222" r="1.5"/>
    <circle cx="860.61" cy="279.191" r="1.5"/>
    <circle cx="860.61" cy="322.674" r="1.5"/>
    <circle cx="860.61" cy="269.646" r="1.5"/>
    <circle cx="860.61" cy="311.008" r="1.5"/>
    <circle cx="876.63" cy="253.738" r="1.5"/>
    <circle cx="873.679" cy="265.404" r="1.5"/>
    <circle cx="864.826" cy="245.254" r="1.5"/>
    <circle cx="890.964" cy="259.041" r="1.5"/>
    <circle cx="893.915" cy="270.707" r="1.5"/>
    <circle cx="890.121" cy="230.406" r="1.5"/>
    <circle cx="915.416" cy="264.344" r="1.5"/>
    <circle cx="915.416" cy="280.252" r="1.5"/>
    <circle cx="915.416" cy="256.92" r="1.5"/>
    <circle cx="895.18" cy="224.042" r="1.5"/>
    <circle cx="938.603" cy="269.646" r="1.5"/>
    <circle cx="923.848" cy="274.949" r="1.5"/>
    <circle cx="942.397" cy="276.01" r="1.5"/>
    <circle cx="858.924" cy="306.766" r="1.5"/>
    <circle cx="1007.321" cy="257.98" r="1.5"/>
    <circle cx="1007.321" cy="452.062" r="1.5"/>
    <circle cx="962.633" cy="280.252" r="1.5"/>
    <circle cx="912.465" cy="264.344" r="1.5"/>
    <circle cx="969.378" cy="261.162" r="1.5"/>
    <circle cx="919.632" cy="289.797" r="1.5"/>
    <circle cx="878.738" cy="-23.067" r="1.5"/>
    <circle cx="933.122" cy="360.854" r="1.5"/>
    <circle cx="882.954" cy="289.797" r="1.5"/>
    <circle cx="916.259" cy="267.525" r="1.5"/>
    <circle cx="924.269" cy="187.983" r="1.5"/>
    <circle cx="964.319" cy="-23.067" r="1.5"/>
    <circle cx="963.476" cy="200.71" r="1.5"/>
    <circle cx="983.712" cy="181.62" r="1.5"/>
    <circle cx="856.394" cy="271.767" r="1.5"/>
    <circle cx="869.885" cy="77.685" r="1.5"/>
    <circle cx="894.337" cy="272.828" r="1.5"/>
    <circle cx="889.699" cy="256.92" r="1.5"/>
    <circle cx="924.269" cy="187.983" r="1.5"/>
    <circle cx="922.161" cy="247.375" r="1.5"/>
    <circle cx="921.74" cy="175.257" r="1.5"/>
    <circle cx="868.199" cy="-23.067" r="1.5"/>
    <circle cx="883.797" cy="177.378" r="1.5"/>
    <circle cx="942.819" cy="116.926" r="1.5"/>
    <circle cx="914.573" cy="283.434" r="1.5"/>
    <circle cx="930.593" cy="79.807" r="1.5"/>
    <circle cx="984.555" cy="146.622" r="1.5"/>
    <circle cx="920.475" cy="150.864" r="1.5"/>
    <circle cx="933.544" cy="329.038" r="1.5"/>
    <circle cx="893.494" cy="262.222" r="1.5"/>
    <circle cx="891.386" cy="259.041" r="1.5"/>
    <circle cx="901.082" cy="-23.067" r="1.5"/>
    <circle cx="941.976" cy="230.406" r="1.5"/>
    <circle cx="887.591" cy="244.193" r="1.5"/>
    <circle cx="940.289" cy="147.682" r="1.5"/>
    <circle cx="938.603" cy="192.226" r="1.5"/>
    <circle cx="933.965" cy="213.437" r="1.5"/>
    <circle cx="882.532" cy="226.164" r="1.5"/>
    <circle cx="871.571" cy="255.859" r="1.5"/>
    <circle cx="914.994" cy="242.072" r="1.5"/>
    <circle cx="911.2" cy="250.556" r="1.5"/>
    <circle cx="949.564" cy="339.643" r="1.5"/>
    <circle cx="933.965" cy="242.072" r="1.5"/>
    <circle cx="905.719" cy="243.132" r="1.5"/>
    <circle cx="889.699" cy="241.011" r="1.5"/>
    <circle cx="949.564" cy="189.044" r="1.5"/>
    <circle cx="1029.665" cy="155.106" r="1.5"/>
    <circle cx="1060.862" cy="41.627" r="1.5"/>
    <circle cx="1052.852" cy="133.895" r="1.5"/>
    <circle cx="1009.007" cy="116.926" r="1.5"/>
    <circle cx="960.947" cy="187.983" r="1.5"/>
    <circle cx="965.584" cy="159.348" r="1.5"/>
    <circle cx="1072.245" cy="63.898" r="1.5"/>
    <circle cx="1038.097" cy="129.653" r="1.5"/>
    <circle cx="1006.478" cy="178.438" r="1.5"/>
    <circle cx="1065.078" cy="70.262" r="1.5"/>
    <circle cx="957.574" cy="227.224" r="1.5"/>
    <circle cx="859.767" cy="264.344" r="1.5"/>
    <circle cx="1002.684" cy="207.073" r="1.5"/>
    <circle cx="952.094" cy="204.952" r="1.5"/>
    <circle cx="1061.284" cy="50.111" r="1.5"/>
    <circle cx="1055.381" cy="46.929" r="1.5"/>
    <circle cx="1022.498" cy="78.746" r="1.5"/>
    <circle cx="938.603" cy="176.317" r="1.5"/>
    <circle cx="1105.971" cy="27.839" r="1.5"/>
    <circle cx="1067.607" cy="-.796" r="1.5"/>
    <circle cx="1056.646" cy="115.866" r="1.5"/>
    <circle cx="985.399" cy="146.622" r="1.5"/>
    <circle cx="915.416" cy="124.35" r="1.5"/>
    <circle cx="1029.243" cy="91.473" r="1.5"/>
    <circle cx="1081.52" cy="78.746" r="1.5"/>
    <circle cx="951.672" cy="209.195" r="1.5"/>
    <circle cx="1034.724" cy="73.443" r="1.5"/>
    <circle cx="964.741" cy="159.348" r="1.5"/>
    <circle cx="902.768" cy="252.677" r="1.5"/>
    <circle cx="902.768" cy="249.496" r="1.5"/>
    <circle cx="939.024" cy="177.378" r="1.5"/>
    <circle cx="939.024" cy="233.587" r="1.5"/>
    <circle cx="1135.482" cy="-19.886" r="1.5"/>
    <circle cx="1088.687" cy="84.049" r="1.5"/>
    <circle cx="980.761" cy="224.042" r="1.5"/>
    <circle cx="1035.989" cy="177.378" r="1.5"/>
    <circle cx="1081.52" cy="159.348" r="1.5"/>
    <circle cx="1044.42" cy="213.437" r="1.5"/>
    <circle cx="1034.302" cy="129.653" r="1.5"/>
    <circle cx="1027.557" cy="123.289" r="1.5"/>
    <circle cx="1023.341" cy="198.589" r="1.5"/>
    <circle cx="1010.272" cy="117.987" r="1.5"/>
    <circle cx="968.114" cy="198.589" r="1.5"/>
    <circle cx="887.17" cy="248.435" r="1.5"/>
    <circle cx="887.17" cy="245.254" r="1.5"/>
    <circle cx="887.17" cy="244.193" r="1.5"/>
    <circle cx="923.848" cy="252.677" r="1.5"/>
    <circle cx="923.848" cy="194.347" r="1.5"/>
    <circle cx="887.17" cy="250.556" r="1.5"/>
    <circle cx="923.848" cy="252.677" r="1.5"/>
    <circle cx="923.848" cy="233.587" r="1.5"/>
    <circle cx="887.17" cy="260.101" r="1.5"/>
    <circle cx="887.17" cy="255.859" r="1.5"/>
    <circle cx="887.17" cy="256.92" r="1.5"/>
    <circle cx="887.17" cy="252.677" r="1.5"/>
    <circle cx="887.17" cy="260.101" r="1.5"/>
    <circle cx="898.553" cy="253.738" r="1.5"/>
    <circle cx="899.817" cy="253.738" r="1.5"/>
    <circle cx="898.553" cy="248.435" r="1.5"/>
    <circle cx="899.817" cy="249.496" r="1.5"/>
    <circle cx="898.553" cy="252.677" r="1.5"/>
    <circle cx="899.817" cy="253.738" r="1.5"/>
    <circle cx="898.553" cy="253.738" r="1.5"/>
    <circle cx="894.337" cy="257.98" r="1.5"/>
    <circle cx="1046.107" cy="132.834" r="1.5"/>
    <circle cx="897.709" cy="171.015" r="1.5"/>
    <circle cx="992.566" cy="215.558" r="1.5"/>
    <circle cx="933.122" cy="82.988" r="1.5"/>
    <circle cx="879.581" cy="224.042" r="1.5"/>
    <circle cx="939.024" cy="144.501" r="1.5"/>
    <circle cx="954.201" cy="207.073" r="1.5"/>
    <circle cx="968.114" cy="171.015" r="1.5"/>
    <circle cx="904.455" cy="218.74" r="1.5"/>
    <circle cx="916.681" cy="212.376" r="1.5"/>
    <circle cx="904.876" cy="236.769" r="1.5"/>
    <circle cx="1038.097" cy="199.65" r="1.5"/>
    <circle cx="1042.734" cy="183.741" r="1.5"/>
    <circle cx="937.338" cy="213.437" r="1.5"/>
    <circle cx="1096.275" cy="206.013" r="1.5"/>
    <circle cx="917.102" cy="182.681" r="1.5"/>
    <circle cx="975.281" cy="180.56" r="1.5"/>
    <circle cx="1035.989" cy="222.982" r="1.5"/>
    <circle cx="921.318" cy="239.951" r="1.5"/>
    <circle cx="925.955" cy="197.528" r="1.5"/>
    <circle cx="1089.53" cy="143.44" r="1.5"/>
    <circle cx="952.937" cy="235.709" r="1.5"/>
    <circle cx="967.271" cy="197.528" r="1.5"/>
    <circle cx="960.525" cy="239.951" r="1.5"/>
    <circle cx="962.212" cy="157.227" r="1.5"/>
    <circle cx="927.22" cy="201.771" r="1.5"/>
    <circle cx="941.976" cy="218.74" r="1.5"/>
    <circle cx="934.387" cy="243.132" r="1.5"/>
    <circle cx="967.692" cy="184.802" r="1.5"/>
    <circle cx="901.082" cy="231.466" r="1.5"/>
    <circle cx="906.141" cy="247.375" r="1.5"/>
    <circle cx="899.396" cy="210.255" r="1.5"/>
    <circle cx="914.151" cy="249.496" r="1.5"/>
    <circle cx="1077.304" cy="92.533" r="1.5"/>
    <circle cx="1073.51" cy="51.172" r="1.5"/>
    <circle cx="926.377" cy="225.103" r="1.5"/>
    <circle cx="926.377" cy="201.771" r="1.5"/>
    <circle cx="947.035" cy="187.983" r="1.5"/>
    <circle cx="885.905" cy="218.74" r="1.5"/>
    <circle cx="885.905" cy="224.042" r="1.5"/>
    <circle cx="885.905" cy="262.222" r="1.5"/>
    <circle cx="885.905" cy="262.222" r="1.5"/>
    <circle cx="885.905" cy="245.254" r="1.5"/>
    <circle cx="947.035" cy="238.89" r="1.5"/>
    <circle cx="1000.154" cy="151.925" r="1.5"/>
    <circle cx="1138.855" cy="27.839" r="1.5"/>
    <circle cx="935.652" cy="228.285" r="1.5"/>
    <circle cx="1009.007" cy="165.712" r="1.5"/>
    <circle cx="1053.274" cy="143.44" r="1.5"/>
    <circle cx="919.21" cy="217.679" r="1.5"/>
    <circle cx="1095.432" cy="26.779" r="1.5"/>
    <circle cx="1040.626" cy="169.954" r="1.5"/>
    <circle cx="1032.194" cy="158.288" r="1.5"/>
    <circle cx="987.085" cy="98.897" r="1.5"/>
    <circle cx="987.507" cy="166.772" r="1.5"/>
    <circle cx="912.465" cy="237.83" r="1.5"/>
    <circle cx="964.741" cy="227.224" r="1.5"/>
    <circle cx="1053.274" cy="96.776" r="1.5"/>
    <circle cx="1027.557" cy="77.685" r="1.5"/>
    <circle cx="1085.314" cy="106.321" r="1.5"/>
    <circle cx="984.977" cy="122.229" r="1.5"/>
    <circle cx="963.476" cy="145.561" r="1.5"/>
    <circle cx="963.476" cy="145.561" r="1.5"/>
    <circle cx="949.986" cy="164.651" r="1.5"/>
    <circle cx="966.849" cy="213.437" r="1.5"/>
    <circle cx="927.642" cy="229.345" r="1.5"/>
    <circle cx="902.768" cy="234.648" r="1.5"/>
    <circle cx="909.935" cy="245.254" r="1.5"/>
    <circle cx="971.486" cy="253.738" r="1.5"/>
    <circle cx="1028.4" cy="91.473" r="1.5"/>
    <circle cx="989.614" cy="94.654" r="1.5"/>
    <circle cx="1099.648" cy="44.808" r="1.5"/>
    <circle cx="968.114" cy="207.073" r="1.5"/>
    <circle cx="918.367" cy="250.556" r="1.5"/>
    <circle cx="909.514" cy="203.892" r="1.5"/>
    <circle cx="923.426" cy="207.073" r="1.5"/>
    <circle cx="992.566" cy="25.718" r="1.5"/>
    <circle cx="992.566" cy="212.376" r="1.5"/>
    <circle cx="1054.538" cy="79.807" r="1.5"/>
    <circle cx="957.574" cy="227.224" r="1.5"/>
    <circle cx="1066.764" cy="51.172" r="1.5"/>
    <circle cx="1009.007" cy="115.866" r="1.5"/>
    <circle cx="1096.697" cy="106.321" r="1.5"/>
    <circle cx="933.544" cy="221.921" r="1.5"/>
    <circle cx="921.74" cy="175.257" r="1.5"/>
    <circle cx="1084.049" cy="159.348" r="1.5"/>
    <circle cx="940.289" cy="200.71" r="1.5"/>
    <circle cx="1027.979" cy="214.497" r="1.5"/>
    <circle cx="1037.253" cy="22.537" r="1.5"/>
    <circle cx="931.436" cy="207.073" r="1.5"/>
    <circle cx="969.378" cy="150.864" r="1.5"/>
    <circle cx="932.279" cy="215.558" r="1.5"/>
    <circle cx="1049.479" cy="81.928" r="1.5"/>
    <circle cx="990.458" cy="93.594" r="1.5"/>
    <circle cx="1140.12" cy="58.595" r="1.5"/>
    <circle cx="1003.948" cy="201.771" r="1.5"/>
    <circle cx="983.291" cy="146.622" r="1.5"/>
    <circle cx="1063.392" cy="156.167" r="1.5"/>
    <circle cx="1096.697" cy="106.321" r="1.5"/>
    <circle cx="1140.963" cy="92.533" r="1.5"/>
    <circle cx="976.124" cy="123.289" r="1.5"/>
    <circle cx="986.663" cy="121.168" r="1.5"/>
    <circle cx="995.095" cy="171.015" r="1.5"/>
    <circle cx="946.191" cy="168.893" r="1.5"/>
    <circle cx="1059.597" cy="68.14" r="1.5"/>
    <circle cx="959.26" cy="147.682" r="1.5"/>
    <circle cx="981.183" cy="85.109" r="1.5"/>
    <circle cx="979.075" cy="186.923" r="1.5"/>
    <circle cx="1022.92" cy="194.347" r="1.5"/>
    <circle cx="1076.039" cy="115.866" r="1.5"/>
    <circle cx="954.201" cy="151.925" r="1.5"/>
    <circle cx="973.173" cy="149.803" r="1.5"/>
    <circle cx="925.534" cy="159.348" r="1.5"/>
    <circle cx="966.427" cy="187.983" r="1.5"/>
    <circle cx="936.917" cy="120.108" r="1.5"/>
    <circle cx="936.917" cy="181.62" r="1.5"/>
    <circle cx="936.917" cy="176.317" r="1.5"/>
    <circle cx="936.917" cy="141.319" r="1.5"/>
    <circle cx="936.917" cy="152.985" r="1.5"/>
    <circle cx="936.917" cy="184.802" r="1.5"/>
    <circle cx="936.917" cy="185.862" r="1.5"/>
    <circle cx="936.917" cy="159.348" r="1.5"/>
    <circle cx="936.917" cy="201.771" r="1.5"/>
    <circle cx="936.917" cy="198.589" r="1.5"/>
    <circle cx="936.917" cy="128.592" r="1.5"/>
    <circle cx="936.917" cy="89.352" r="1.5"/>
    <circle cx="911.2" cy="217.679" r="1.5"/>
    <circle cx="949.986" cy="194.347" r="1.5"/>
    <circle cx="946.191" cy="288.736" r="1.5"/>
    <circle cx="946.191" cy="274.949" r="1.5"/>
    <circle cx="968.535" cy="262.222" r="1.5"/>
    <circle cx="898.974" cy="226.164" r="1.5"/>
    <circle cx="895.601" cy="280.252" r="1.5"/>
    <circle cx="969.378" cy="370.399" r="1.5"/>
    <circle cx="969.378" cy="213.437" r="1.5"/>
    <circle cx="895.601" cy="289.797" r="1.5"/>
    <circle cx="969.378" cy="276.01" r="1.5"/>
    <circle cx="949.986" cy="249.496" r="1.5"/>
    <circle cx="977.81" cy="252.677" r="1.5"/>
    <circle cx="946.191" cy="302.524" r="1.5"/>
    <circle cx="923.848" cy="273.889" r="1.5"/>
    <circle cx="1029.665" cy="228.285" r="1.5"/>
    <circle cx="1034.724" cy="203.892" r="1.5"/>
    <circle cx="979.496" cy="335.401" r="1.5"/>
    <circle cx="920.896" cy="272.828" r="1.5"/>
    <circle cx="990.036" cy="231.466" r="1.5"/>
    <circle cx="1065.499" cy="232.527" r="1.5"/>
    <circle cx="1019.968" cy="304.645" r="1.5"/>
    <circle cx="1019.547" cy="152.985" r="1.5"/>
    <circle cx="919.632" cy="265.404" r="1.5"/>
    <circle cx="961.79" cy="242.072" r="1.5"/>
    <circle cx="956.309" cy="224.042" r="1.5"/>
    <circle cx="920.053" cy="286.615" r="1.5"/>
    <circle cx="965.584" cy="280.252" r="1.5"/>
    <circle cx="914.994" cy="226.164" r="1.5"/>
    <circle cx="914.151" cy="244.193" r="1.5"/>
    <circle cx="965.163" cy="248.435" r="1.5"/>
    <circle cx="965.584" cy="283.434" r="1.5"/>
    <circle cx="902.768" cy="261.162" r="1.5"/>
    <circle cx="918.367" cy="272.828" r="1.5"/>
    <circle cx="934.387" cy="249.496" r="1.5"/>
    <circle cx="979.496" cy="237.83" r="1.5"/>
    <circle cx="981.183" cy="268.586" r="1.5"/>
    <circle cx="908.249" cy="270.707" r="1.5"/>
    <circle cx="919.21" cy="249.496" r="1.5"/>
    <circle cx="914.573" cy="257.98" r="1.5"/>
    <circle cx="932.701" cy="301.463" r="1.5"/>
    <circle cx="942.397" cy="192.226" r="1.5"/>
    <circle cx="970.643" cy="267.525" r="1.5"/>
    <circle cx="947.456" cy="311.008" r="1.5"/>
    <circle cx="965.584" cy="282.373" r="1.5"/>
    <circle cx="966.427" cy="337.522" r="1.5"/>
    <circle cx="919.21" cy="241.011" r="1.5"/>
    <circle cx="1017.861" cy="244.193" r="1.5"/>
    <circle cx="1002.262" cy="404.337" r="1.5"/>
    <circle cx="916.681" cy="285.555" r="1.5"/>
    <circle cx="966.006" cy="197.528" r="1.5"/>
    <circle cx="967.271" cy="281.313" r="1.5"/>
    <circle cx="1000.997" cy="241.011" r="1.5"/>
    <circle cx="922.583" cy="257.98" r="1.5"/>
    <circle cx="1046.107" cy="125.411" r="1.5"/>
    <circle cx="909.092" cy="280.252" r="1.5"/>
    <circle cx="909.092" cy="266.465" r="1.5"/>
    <circle cx="1067.607" cy="210.255" r="1.5"/>
    <circle cx="971.908" cy="270.707" r="1.5"/>
    <circle cx="1108.501" cy="235.709" r="1.5"/>
    <circle cx="980.761" cy="238.89" r="1.5"/>
    <circle cx="945.348" cy="281.313" r="1.5"/>
    <circle cx="951.672" cy="212.376" r="1.5"/>
    <circle cx="951.672" cy="242.072" r="1.5"/>
    <circle cx="912.465" cy="270.707" r="1.5"/>
    <circle cx="910.357" cy="263.283" r="1.5"/>
    <circle cx="1080.255" cy="276.01" r="1.5"/>
    <circle cx="1080.255" cy="265.404" r="1.5"/>
    <circle cx="1119.041" cy="366.157" r="1.5"/>
    <circle cx="1041.048" cy="366.157" r="1.5"/>
    <circle cx="992.566" cy="234.648" r="1.5"/>
    <circle cx="903.612" cy="286.615" r="1.5"/>
    <circle cx="955.045" cy="265.404" r="1.5"/>
    <circle cx="955.045" cy="305.705" r="1.5"/>
    <circle cx="935.652" cy="285.555" r="1.5"/>
    <circle cx="935.652" cy="256.92" r="1.5"/>
    <circle cx="967.692" cy="324.795" r="1.5"/>
    <circle cx="927.642" cy="423.427" r="1.5"/>
    <circle cx="923.848" cy="336.461" r="1.5"/>
    <circle cx="941.132" cy="239.951" r="1.5"/>
    <circle cx="956.309" cy="250.556" r="1.5"/>
    <circle cx="923.848" cy="256.92" r="1.5"/>
    <circle cx="887.17" cy="264.344" r="1.5"/>
    <circle cx="887.17" cy="261.162" r="1.5"/>
    <circle cx="923.848" cy="257.98" r="1.5"/>
    <circle cx="887.17" cy="265.404" r="1.5"/>
    <circle cx="923.848" cy="272.828" r="1.5"/>
    <circle cx="923.848" cy="267.525" r="1.5"/>
    <circle cx="923.848" cy="271.767" r="1.5"/>
    <circle cx="923.848" cy="302.524" r="1.5"/>
    <circle cx="923.848" cy="290.858" r="1.5"/>
    <circle cx="923.848" cy="296.16" r="1.5"/>
    <circle cx="885.483" cy="336.461" r="1.5"/>
    <circle cx="894.337" cy="315.25" r="1.5"/>
    <circle cx="894.337" cy="264.344" r="1.5"/>
    <circle cx="885.483" cy="390.55" r="1.5"/>
    <circle cx="894.337" cy="358.733" r="1.5"/>
    <circle cx="894.337" cy="260.101" r="1.5"/>
    <circle cx="885.483" cy="267.525" r="1.5"/>
    <circle cx="894.337" cy="265.404" r="1.5"/>
    <circle cx="894.337" cy="262.222" r="1.5"/>
    <circle cx="885.483" cy="367.218" r="1.5"/>
    <circle cx="899.817" cy="262.222" r="1.5"/>
    <circle cx="894.337" cy="354.491" r="1.5"/>
    <circle cx="885.905" cy="291.918" r="1.5"/>
    <circle cx="897.709" cy="250.556" r="1.5"/>
    <circle cx="903.612" cy="268.586" r="1.5"/>
    <circle cx="1022.498" cy="368.278" r="1.5"/>
    <circle cx="921.318" cy="368.278" r="1.5"/>
    <circle cx="940.711" cy="268.586" r="1.5"/>
    <circle cx="924.691" cy="274.949" r="1.5"/>
    <circle cx="908.249" cy="267.525" r="1.5"/>
    <circle cx="905.719" cy="261.162" r="1.5"/>
    <circle cx="933.544" cy="267.525" r="1.5"/>
    <circle cx="925.955" cy="260.101" r="1.5"/>
    <circle cx="911.622" cy="259.041" r="1.5"/>
    <circle cx="971.908" cy="268.586" r="1.5"/>
    <circle cx="925.955" cy="270.707" r="1.5"/>
    <circle cx="927.642" cy="267.525" r="1.5"/>
    <circle cx="929.75" cy="272.828" r="1.5"/>
    <circle cx="910.778" cy="271.767" r="1.5"/>
    <circle cx="909.092" cy="253.738" r="1.5"/>
    <circle cx="904.033" cy="273.889" r="1.5"/>
    <circle cx="914.994" cy="280.252" r="1.5"/>
    <circle cx="930.593" cy="265.404" r="1.5"/>
    <circle cx="974.016" cy="264.344" r="1.5"/>
    <circle cx="956.309" cy="255.859" r="1.5"/>
    <circle cx="979.075" cy="242.072" r="1.5"/>
    <circle cx="917.524" cy="266.465" r="1.5"/>
    <circle cx="902.768" cy="269.646" r="1.5"/>
    <circle cx="928.485" cy="244.193" r="1.5"/>
    <circle cx="899.817" cy="270.707" r="1.5"/>
    <circle cx="984.977" cy="452.062" r="1.5"/>
    <circle cx="901.082" cy="262.222" r="1.5"/>
    <circle cx="918.367" cy="257.98" r="1.5"/>
    <circle cx="918.367" cy="256.92" r="1.5"/>
    <circle cx="892.65" cy="281.313" r="1.5"/>
    <circle cx="911.2" cy="264.344" r="1.5"/>
    <circle cx="949.986" cy="292.979" r="1.5"/>
    <circle cx="971.065" cy="255.859" r="1.5"/>
    <circle cx="934.809" cy="250.556" r="1.5"/>
    <circle cx="900.239" cy="287.676" r="1.5"/>
    <circle cx="969.378" cy="272.828" r="1.5"/>
    <circle cx="885.905" cy="265.404" r="1.5"/>
    <circle cx="885.905" cy="268.586" r="1.5"/>
    <circle cx="919.632" cy="253.738" r="1.5"/>
    <circle cx="914.151" cy="262.222" r="1.5"/>
    <circle cx="933.122" cy="252.677" r="1.5"/>
    <circle cx="939.024" cy="282.373" r="1.5"/>
    <circle cx="933.122" cy="279.191" r="1.5"/>
    <circle cx="968.535" cy="285.555" r="1.5"/>
    <circle cx="1088.687" cy="300.403" r="1.5"/>
    <circle cx="894.758" cy="264.344" r="1.5"/>
    <circle cx="932.701" cy="276.01" r="1.5"/>
    <circle cx="962.212" cy="256.92" r="1.5"/>
    <circle cx="897.288" cy="265.404" r="1.5"/>
    <circle cx="931.858" cy="267.525" r="1.5"/>
    <circle cx="922.583" cy="269.646" r="1.5"/>
    <circle cx="987.928" cy="271.767" r="1.5"/>
    <circle cx="881.268" cy="277.07" r="1.5"/>
    <circle cx="898.553" cy="276.01" r="1.5"/>
    <circle cx="934.387" cy="277.07" r="1.5"/>
    <circle cx="956.309" cy="283.434" r="1.5"/>
    <circle cx="904.455" cy="290.858" r="1.5"/>
    <circle cx="944.927" cy="267.525" r="1.5"/>
    <circle cx="939.024" cy="271.767" r="1.5"/>
    <circle cx="995.095" cy="256.92" r="1.5"/>
    <circle cx="1007.743" cy="279.191" r="1.5"/>
    <circle cx="923.848" cy="255.859" r="1.5"/>
    <circle cx="927.642" cy="253.738" r="1.5"/>
    <circle cx="971.908" cy="235.709" r="1.5"/>
    <circle cx="1028.822" cy="262.222" r="1.5"/>
    <circle cx="985.82" cy="255.859" r="1.5"/>
    <circle cx="985.82" cy="117.987" r="1.5"/>
    <circle cx="992.566" cy="360.854" r="1.5"/>
    <circle cx="902.768" cy="247.375" r="1.5"/>
    <circle cx="1137.169" cy="289.797" r="1.5"/>
    <circle cx="996.781" cy="276.01" r="1.5"/>
    <circle cx="945.77" cy="283.434" r="1.5"/>
    <circle cx="954.623" cy="281.313" r="1.5"/>
    <circle cx="1000.576" cy="233.587" r="1.5"/>
    <circle cx="1008.586" cy="238.89" r="1.5"/>
    <circle cx="959.682" cy="254.799" r="1.5"/>
    <circle cx="1001.84" cy="291.918" r="1.5"/>
    <circle cx="939.446" cy="256.92" r="1.5"/>
    <circle cx="913.308" cy="261.162" r="1.5"/>
    <circle cx="941.976" cy="230.406" r="1.5"/>
    <circle cx="931.436" cy="270.707" r="1.5"/>
    <circle cx="925.955" cy="254.799" r="1.5"/>
    <circle cx="947.878" cy="253.738" r="1.5"/>
    <circle cx="1046.107" cy="217.679" r="1.5"/>
    <circle cx="920.896" cy="249.496" r="1.5"/>
    <circle cx="1030.93" cy="239.951" r="1.5"/>
    <circle cx="1013.223" cy="246.314" r="1.5"/>
    <circle cx="966.427" cy="187.983" r="1.5"/>
    <circle cx="917.945" cy="252.677" r="1.5"/>
    <circle cx="955.888" cy="278.131" r="1.5"/>
    <circle cx="918.367" cy="274.949" r="1.5"/>
    <circle cx="913.308" cy="299.342" r="1.5"/>
    <circle cx="913.308" cy="284.494" r="1.5"/>
    <circle cx="918.367" cy="116.926" r="1.5"/>
    <circle cx="956.731" cy="255.859" r="1.5"/>
    <circle cx="981.604" cy="306.766" r="1.5"/>
    <circle cx="949.986" cy="270.707" r="1.5"/>
    <circle cx="949.564" cy="339.643" r="1.5"/>
    <circle cx="892.229" cy="263.283" r="1.5"/>
    <circle cx="913.73" cy="232.527" r="1.5"/>
    <circle cx="933.544" cy="219.8" r="1.5"/>
    <circle cx="919.21" cy="242.072" r="1.5"/>
    <circle cx="925.955" cy="244.193" r="1.5"/>
    <circle cx="994.252" cy="251.617" r="1.5"/>
    <circle cx="971.486" cy="157.227" r="1.5"/>
    <circle cx="940.711" cy="172.075" r="1.5"/>
    <circle cx="940.711" cy="250.556" r="1.5"/>
    <circle cx="929.328" cy="217.679" r="1.5"/>
    <circle cx="920.053" cy="280.252" r="1.5"/>
    <circle cx="928.906" cy="235.709" r="1.5"/>
    <circle cx="914.573" cy="250.556" r="1.5"/>
    <circle cx="905.719" cy="243.132" r="1.5"/>
    <circle cx="-862.453" cy="300.244" r="2"/>
    <circle cx="-862.453" cy="341.077" r="2"/>
    <circle cx="-853.229" cy="338.744" r="2"/>
    <circle cx="-872.515" cy="320.077" r="2"/>
    <circle cx="-862.453" cy="266.41" r="2"/>
    <circle cx="-797.887" cy="205.744" r="2"/>
    <circle cx="-848.198" cy="325.91" r="2"/>
    <circle cx="-772.732" cy="258.244" r="2"/>
    <circle cx="-883.415" cy="300.244" r="2"/>
    <circle cx="-776.086" cy="313.077" r="2"/>
    <circle cx="-651.987" cy="233.744" r="2"/>
    <circle cx="-842.328" cy="324.744" r="2"/>
    <circle cx="-787.825" cy="281.577" r="2"/>
    <circle cx="-824.72" cy="296.744" r="2"/>
    <circle cx="-853.229" cy="308.41" r="2"/>
    <circle cx="-895.154" cy="337.577" r="2"/>
    <circle cx="-774.409" cy="252.41" r="2"/>
    <circle cx="-902.701" cy="341.077" r="2"/>
    <circle cx="-739.192" cy="22.577" r="2"/>
    <circle cx="-901.024" cy="307.244" r="2"/>
    <circle cx="-433.974" cy="22.577" r="2"/>
    <circle cx="-758.477" cy="341.077" r="2"/>
    <circle cx="-832.266" cy="288.577" r="2"/>
    <circle cx="-975.651" cy="311.91" r="2"/>
    <circle cx="-684.689" cy="182.41" r="2"/>
    <circle cx="-875.869" cy="327.077" r="2"/>
    <circle cx="-825.558" cy="310.744" r="2"/>
    <circle cx="-943.788" cy="295.577" r="2"/>
    <circle cx="-848.198" cy="362.077" r="2"/>
    <circle cx="-911.086" cy="318.91" r="2"/>
    <circle cx="-870.838" cy="336.41" r="2"/>
    <circle cx="-963.074" cy="355.077" r="2"/>
    <circle cx="-963.074" cy="402.91" r="2"/>
    <circle cx="-963.074" cy="344.577" r="2"/>
    <circle cx="-963.074" cy="390.077" r="2"/>
    <circle cx="-931.21" cy="327.077" r="2"/>
    <circle cx="-937.08" cy="339.91" r="2"/>
    <circle cx="-954.689" cy="317.744" r="2"/>
    <circle cx="-902.701" cy="332.91" r="2"/>
    <circle cx="-896.831" cy="345.744" r="2"/>
    <circle cx="-904.378" cy="301.41" r="2"/>
    <circle cx="-854.067" cy="338.744" r="2"/>
    <circle cx="-854.067" cy="356.244" r="2"/>
    <circle cx="-854.067" cy="330.577" r="2"/>
    <circle cx="-894.316" cy="294.41" r="2"/>
    <circle cx="-807.949" cy="344.577" r="2"/>
    <circle cx="-837.297" cy="350.41" r="2"/>
    <circle cx="-800.403" cy="351.577" r="2"/>
    <circle cx="-966.428" cy="385.41" r="2"/>
    <circle cx="-671.272" cy="331.744" r="2"/>
    <circle cx="-671.272" cy="545.244" r="2"/>
    <circle cx="-760.154" cy="356.244" r="2"/>
    <circle cx="-859.937" cy="338.744" r="2"/>
    <circle cx="-746.738" cy="335.244" r="2"/>
    <circle cx="-845.682" cy="366.744" r="2"/>
    <circle cx="-927.018" cy="22.577" r="2"/>
    <circle cx="-818.85" cy="444.91" r="2"/>
    <circle cx="-918.633" cy="366.744" r="2"/>
    <circle cx="-852.39" cy="342.244" r="2"/>
    <circle cx="-836.459" cy="254.744" r="2"/>
    <circle cx="-756.8" cy="22.577" r="2"/>
    <circle cx="-758.477" cy="268.744" r="2"/>
    <circle cx="-718.229" cy="247.744" r="2"/>
    <circle cx="-971.459" cy="346.91" r="2"/>
    <circle cx="-944.626" cy="133.41" r="2"/>
    <circle cx="-895.993" cy="348.077" r="2"/>
    <circle cx="-905.217" cy="330.577" r="2"/>
    <circle cx="-836.459" cy="254.744" r="2"/>
    <circle cx="-840.651" cy="320.077" r="2"/>
    <circle cx="-841.49" cy="240.744" r="2"/>
    <circle cx="-947.981" cy="22.577" r="2"/>
    <circle cx="-916.956" cy="243.077" r="2"/>
    <circle cx="-799.564" cy="176.577" r="2"/>
    <circle cx="-855.744" cy="359.744" r="2"/>
    <circle cx="-823.881" cy="135.744" r="2"/>
    <circle cx="-716.552" cy="209.244" r="2"/>
    <circle cx="-844.005" cy="213.91" r="2"/>
    <circle cx="-818.012" cy="409.91" r="2"/>
    <circle cx="-897.67" cy="336.41" r="2"/>
    <circle cx="-901.862" cy="332.91" r="2"/>
    <circle cx="-882.577" cy="22.577" r="2"/>
    <circle cx="-801.241" cy="301.41" r="2"/>
    <circle cx="-909.409" cy="316.577" r="2"/>
    <circle cx="-804.595" cy="210.41" r="2"/>
    <circle cx="-807.949" cy="259.41" r="2"/>
    <circle cx="-817.173" cy="282.744" r="2"/>
    <circle cx="-919.471" cy="296.744" r="2"/>
    <circle cx="-941.272" cy="329.41" r="2"/>
    <circle cx="-854.906" cy="314.244" r="2"/>
    <circle cx="-862.453" cy="323.577" r="2"/>
    <circle cx="-786.148" cy="421.577" r="2"/>
    <circle cx="-817.173" cy="314.244" r="2"/>
    <circle cx="-873.353" cy="315.41" r="2"/>
    <ellipse cx="-905.217" cy="313.077" rx="2" ry="2.074"/>
    <ellipse cx="-786.148" cy="255.91" rx="2" ry="2.074"/>
    <ellipse cx="-626.831" cy="218.577" rx="2" ry="2.074"/>
    <ellipse cx="-564.782" cy="93.744" rx="2" ry="2.074"/>
    <ellipse cx="-580.713" cy="195.244" rx="2" ry="2.074"/>
    <ellipse cx="-667.918" cy="176.577" rx="2" ry="2.074"/>
    <ellipse cx="-763.508" cy="254.744" rx="2" ry="2.074"/>
    <ellipse cx="-754.285" cy="223.244" rx="2" ry="2.074"/>
    <ellipse cx="-542.142" cy="118.244" rx="2" ry="2.074"/>
    <ellipse cx="-610.061" cy="190.577" rx="2" ry="2.074"/>
    <ellipse cx="-672.949" cy="244.244" rx="2" ry="2.074"/>
    <ellipse cx="-556.397" cy="125.244" rx="2" ry="2.074"/>
    <ellipse cx="-770.217" cy="297.91" rx="2" ry="2.074"/>
    <ellipse cx="-964.751" cy="338.744" rx="2" ry="2.074"/>
    <ellipse cx="-680.496" cy="275.744" rx="2" ry="2.074"/>
    <ellipse cx="-781.117" cy="273.41" rx="2" ry="2.074"/>
    <ellipse cx="-563.943" cy="103.077" rx="2" ry="2.074"/>
    <ellipse cx="-575.682" cy="99.577" rx="2" ry="2.074"/>
    <ellipse cx="-641.086" cy="134.577" rx="2" ry="2.074"/>
    <ellipse cx="-807.949" cy="241.91" rx="2" ry="2.074"/>
    <ellipse cx="-475.061" cy="78.577" rx="2" ry="2.074"/>
    <ellipse cx="-551.366" cy="47.077" rx="2" ry="2.074"/>
    <ellipse cx="-573.167" cy="175.41" rx="2" ry="2.074"/>
    <ellipse cx="-714.875" cy="209.244" rx="2" ry="2.074"/>
    <ellipse cx="-854.067" cy="184.744" rx="2" ry="2.074"/>
    <ellipse cx="-627.67" cy="148.577" rx="2" ry="2.074"/>
    <ellipse cx="-523.695" cy="134.577" rx="2" ry="2.074"/>
    <ellipse cx="-781.956" cy="278.077" rx="2" ry="2.074"/>
    <ellipse cx="-616.769" cy="128.744" rx="2" ry="2.074"/>
    <ellipse cx="-755.962" cy="223.244" rx="2" ry="2.074"/>
    <ellipse cx="-879.223" cy="325.91" rx="2" ry="2.074"/>
    <ellipse cx="-879.223" cy="322.41" rx="2" ry="2.074"/>
    <ellipse cx="-807.111" cy="243.077" rx="2" ry="2.074"/>
    <ellipse cx="-807.111" cy="304.91" rx="2" ry="2.074"/>
    <ellipse cx="-416.366" cy="26.077" rx="2" ry="2.074"/>
    <ellipse cx="-509.44" cy="140.41" rx="2" ry="2.074"/>
    <ellipse cx="-724.099" cy="294.41" rx="2" ry="2.074"/>
    <ellipse cx="-614.254" cy="243.077" rx="2" ry="2.074"/>
    <ellipse cx="-523.695" cy="223.244" rx="2" ry="2.074"/>
    <ellipse cx="-597.484" cy="282.744" rx="2" ry="2.074"/>
    <ellipse cx="-617.608" cy="190.577" rx="2" ry="2.074"/>
    <ellipse cx="-631.024" cy="183.577" rx="2" ry="2.074"/>
    <ellipse cx="-639.409" cy="266.41" rx="2" ry="2.074"/>
    <ellipse cx="-665.403" cy="177.744" rx="2" ry="2.074"/>
    <ellipse cx="-749.254" cy="266.41" rx="2" ry="2.074"/>
    <ellipse cx="-910.248" cy="321.244" rx="2" ry="2.074"/>
    <ellipse cx="-910.248" cy="317.744" rx="2" ry="2.074"/>
    <ellipse cx="-910.248" cy="316.577" rx="2" ry="2.074"/>
    <ellipse cx="-837.297" cy="325.91" rx="2" ry="2.074"/>
    <ellipse cx="-837.297" cy="261.744" rx="2" ry="2.074"/>
    <ellipse cx="-910.248" cy="323.577" rx="2" ry="2.074"/>
    <ellipse cx="-837.297" cy="325.91" rx="2" ry="2.074"/>
    <ellipse cx="-837.297" cy="304.91" rx="2" ry="2.074"/>
    <ellipse cx="-910.248" cy="334.077" rx="2" ry="2.074"/>
    <ellipse cx="-910.248" cy="329.41" rx="2" ry="2.074"/>
    <ellipse cx="-910.248" cy="330.577" rx="2" ry="2.074"/>
    <ellipse cx="-910.248" cy="325.91" rx="2" ry="2.074"/>
    <ellipse cx="-910.248" cy="334.077" rx="2" ry="2.074"/>
    <ellipse cx="-887.608" cy="327.077" rx="2" ry="2.074"/>
    <ellipse cx="-885.092" cy="327.077" rx="2" ry="2.074"/>
    <ellipse cx="-887.608" cy="321.244" rx="2" ry="2.074"/>
    <ellipse cx="-885.092" cy="322.41" rx="2" ry="2.074"/>
    <ellipse cx="-887.608" cy="325.91" rx="2" ry="2.074"/>
    <ellipse cx="-885.092" cy="327.077" rx="2" ry="2.074"/>
    <ellipse cx="-887.608" cy="327.077" rx="2" ry="2.074"/>
    <ellipse cx="-895.993" cy="331.744" rx="2" ry="2.074"/>
    <ellipse cx="-594.13" cy="194.077" rx="2" ry="2.074"/>
    <ellipse cx="-889.285" cy="236.077" rx="2" ry="2.074"/>
    <ellipse cx="-700.62" cy="285.077" rx="2" ry="2.074"/>
    <ellipse cx="-818.85" cy="139.244" rx="2" ry="2.074"/>
    <ellipse cx="-925.341" cy="294.41" rx="2" ry="2.074"/>
    <ellipse cx="-807.111" cy="206.91" rx="2" ry="2.074"/>
    <ellipse cx="-776.925" cy="275.744" rx="2" ry="2.074"/>
    <ellipse cx="-749.254" cy="236.077" rx="2" ry="2.074"/>
    <ellipse cx="-875.869" cy="288.577" rx="2" ry="2.074"/>
    <ellipse cx="-851.552" cy="281.577" rx="2" ry="2.074"/>
    <ellipse cx="-875.03" cy="308.41" rx="2" ry="2.074"/>
    <ellipse cx="-610.061" cy="267.577" rx="2" ry="2.074"/>
    <ellipse cx="-600.838" cy="250.077" rx="2" ry="2.074"/>
    <ellipse cx="-810.465" cy="282.744" rx="2" ry="2.074"/>
    <ellipse cx="-494.347" cy="274.577" rx="2" ry="2.074"/>
    <ellipse cx="-850.713" cy="248.91" rx="2" ry="2.074"/>
    <ellipse cx="-734.999" cy="246.577" rx="2" ry="2.074"/>
    <ellipse cx="-614.254" cy="293.244" rx="2" ry="2.074"/>
    <ellipse cx="-842.328" cy="311.91" rx="2" ry="2.074"/>
    <ellipse cx="-833.105" cy="265.244" rx="2" ry="2.074"/>
    <ellipse cx="-507.763" cy="205.744" rx="2" ry="2.074"/>
    <ellipse cx="-779.44" cy="307.244" rx="2" ry="2.074"/>
    <ellipse cx="-750.931" cy="265.244" rx="2" ry="2.074"/>
    <ellipse cx="-764.347" cy="311.91" rx="2" ry="2.074"/>
    <ellipse cx="-760.993" cy="220.91" rx="2" ry="2.074"/>
    <ellipse cx="-830.589" cy="269.91" rx="2" ry="2.074"/>
    <ellipse cx="-801.241" cy="288.577" rx="2" ry="2.074"/>
    <ellipse cx="-816.335" cy="315.41" rx="2" ry="2.074"/>
    <ellipse cx="-750.092" cy="251.244" rx="2" ry="2.074"/>
    <ellipse cx="-882.577" cy="302.577" rx="2" ry="2.074"/>
    <ellipse cx="-872.515" cy="320.077" rx="2" ry="2.074"/>
    <ellipse cx="-885.931" cy="279.244" rx="2" ry="2.074"/>
    <ellipse cx="-856.583" cy="322.41" rx="2" ry="2.074"/>
    <ellipse cx="-532.08" cy="149.744" rx="2" ry="2.074"/>
    <ellipse cx="-539.626" cy="104.244" rx="2" ry="2.074"/>
    <ellipse cx="-832.266" cy="295.577" rx="2" ry="2.074"/>
    <ellipse cx="-832.266" cy="269.91" rx="2" ry="2.074"/>
    <ellipse cx="-791.179" cy="254.744" rx="2" ry="2.074"/>
    <ellipse cx="-912.763" cy="288.577" rx="2" ry="2.074"/>
    <ellipse cx="-912.763" cy="294.41" rx="2" ry="2.074"/>
    <ellipse cx="-912.763" cy="336.41" rx="2" ry="2.074"/>
    <ellipse cx="-912.763" cy="336.41" rx="2" ry="2.074"/>
    <ellipse cx="-912.763" cy="317.744" rx="2" ry="2.074"/>
    <ellipse cx="-791.179" cy="310.744" rx="2" ry="2.074"/>
    <ellipse cx="-685.527" cy="215.077" rx="2" ry="2.074"/>
    <ellipse cx="-409.658" cy="78.577" rx="2" ry="2.074"/>
    <ellipse cx="-813.819" cy="299.077" rx="2" ry="2.074"/>
    <ellipse cx="-667.918" cy="230.244" rx="2" ry="2.074"/>
    <ellipse cx="-579.875" cy="205.744" rx="2" ry="2.074"/>
    <ellipse cx="-846.521" cy="287.41" rx="2" ry="2.074"/>
    <ellipse cx="-496.024" cy="77.41" rx="2" ry="2.074"/>
    <ellipse cx="-605.03" cy="234.91" rx="2" ry="2.074"/>
    <ellipse cx="-621.8" cy="222.077" rx="2" ry="2.074"/>
    <ellipse cx="-711.521" cy="156.744" rx="2" ry="2.074"/>
    <ellipse cx="-710.682" cy="231.41" rx="2" ry="2.074"/>
    <ellipse cx="-859.937" cy="309.577" rx="2" ry="2.074"/>
    <ellipse cx="-755.962" cy="297.91" rx="2" ry="2.074"/>
    <ellipse cx="-579.875" cy="154.41" rx="2" ry="2.074"/>
    <ellipse cx="-631.024" cy="133.41" rx="2" ry="2.074"/>
    <ellipse cx="-516.148" cy="164.91" rx="2" ry="2.074"/>
    <ellipse cx="-715.713" cy="182.41" rx="2" ry="2.074"/>
    <ellipse cx="-758.477" cy="208.077" rx="2" ry="2.074"/>
    <ellipse cx="-758.477" cy="208.077" rx="2" ry="2.074"/>
    <ellipse cx="-785.31" cy="229.077" rx="2" ry="2.074"/>
    <ellipse cx="-751.769" cy="282.744" rx="2" ry="2.074"/>
    <ellipse cx="-829.751" cy="300.244" rx="2" ry="2.074"/>
    <ellipse cx="-879.223" cy="306.077" rx="2" ry="2.074"/>
    <ellipse cx="-864.968" cy="317.744" rx="2" ry="2.074"/>
    <ellipse cx="-742.546" cy="327.077" rx="2" ry="2.074"/>
    <ellipse cx="-629.347" cy="148.577" rx="2" ry="2.074"/>
    <ellipse cx="-706.49" cy="152.077" rx="2" ry="2.074"/>
    <ellipse cx="-487.639" cy="97.244" rx="2" ry="2.074"/>
    <ellipse cx="-749.254" cy="275.744" rx="2" ry="2.074"/>
    <ellipse cx="-848.198" cy="323.577" rx="2" ry="2.074"/>
    <ellipse cx="-865.807" cy="272.244" rx="2" ry="2.074"/>
    <ellipse cx="-838.136" cy="275.744" rx="2" ry="2.074"/>
    <ellipse cx="-700.62" cy="76.244" rx="2" ry="2.074"/>
    <ellipse cx="-700.62" cy="281.577" rx="2" ry="2.074"/>
    <ellipse cx="-577.359" cy="135.744" rx="2" ry="2.074"/>
    <ellipse cx="-770.217" cy="297.91" rx="2" ry="2.074"/>
    <ellipse cx="-553.043" cy="104.244" rx="2" ry="2.074"/>
    <ellipse cx="-667.918" cy="175.41" rx="2" ry="2.074"/>
    <ellipse cx="-493.508" cy="164.91" rx="2" ry="2.074"/>
    <ellipse cx="-818.012" cy="292.077" rx="2" ry="2.074"/>
    <ellipse cx="-841.49" cy="240.744" rx="2" ry="2.074"/>
    <ellipse cx="-518.664" cy="223.244" rx="2" ry="2.074"/>
    <ellipse cx="-804.595" cy="268.744" rx="2" ry="2.074"/>
    <ellipse cx="-630.185" cy="283.91" rx="2" ry="2.074"/>
    <ellipse cx="-611.738" cy="72.744" rx="2" ry="2.074"/>
    <ellipse cx="-822.204" cy="275.744" rx="2" ry="2.074"/>
    <ellipse cx="-746.738" cy="213.91" rx="2" ry="2.074"/>
    <ellipse cx="-820.527" cy="285.077" rx="2" ry="2.074"/>
    <ellipse cx="-587.421" cy="138.077" rx="2" ry="2.074"/>
    <ellipse cx="-704.813" cy="150.91" rx="2" ry="2.074"/>
    <ellipse cx="-407.142" cy="112.41" rx="2" ry="2.074"/>
    <ellipse cx="-677.981" cy="269.91" rx="2" ry="2.074"/>
    <ellipse cx="-719.067" cy="209.244" rx="2" ry="2.074"/>
    <ellipse cx="-559.751" cy="219.744" rx="2" ry="2.074"/>
    <ellipse cx="-493.508" cy="164.91" rx="2" ry="2.074"/>
    <ellipse cx="-405.465" cy="149.744" rx="2" ry="2.074"/>
    <ellipse cx="-733.322" cy="183.577" rx="2" ry="2.074"/>
    <ellipse cx="-712.359" cy="181.244" rx="2" ry="2.074"/>
    <ellipse cx="-695.589" cy="236.077" rx="2" ry="2.074"/>
    <ellipse cx="-792.856" cy="233.744" rx="2" ry="2.074"/>
    <ellipse cx="-567.297" cy="122.91" rx="2" ry="2.074"/>
    <ellipse cx="-766.862" cy="210.41" rx="2" ry="2.074"/>
    <ellipse cx="-723.26" cy="141.577" rx="2" ry="2.074"/>
    <ellipse cx="-727.453" cy="253.577" rx="2" ry="2.074"/>
    <ellipse cx="-640.248" cy="261.744" rx="2" ry="2.074"/>
    <ellipse cx="-534.595" cy="175.41" rx="2" ry="2.074"/>
    <ellipse cx="-776.925" cy="215.077" rx="2" ry="2.074"/>
    <ellipse cx="-739.192" cy="212.744" rx="2" ry="2.074"/>
    <ellipse cx="-833.943" cy="223.244" rx="2" ry="2.074"/>
    <ellipse cx="-752.608" cy="254.744" rx="2" ry="2.074"/>
    <ellipse cx="-811.303" cy="180.077" rx="2" ry="2.074"/>
    <ellipse cx="-811.303" cy="247.744" rx="2" ry="2.074"/>
    <ellipse cx="-811.303" cy="241.91" rx="2" ry="2.074"/>
    <ellipse cx="-811.303" cy="203.41" rx="2" ry="2.074"/>
    <ellipse cx="-811.303" cy="216.244" rx="2" ry="2.074"/>
    <ellipse cx="-811.303" cy="251.244" rx="2" ry="2.074"/>
    <ellipse cx="-811.303" cy="252.41" rx="2" ry="2.074"/>
    <ellipse cx="-811.303" cy="223.244" rx="2" ry="2.074"/>
    <ellipse cx="-811.303" cy="269.91" rx="2" ry="2.074"/>
    <ellipse cx="-811.303" cy="266.41" rx="2" ry="2.074"/>
    <ellipse cx="-811.303" cy="189.41" rx="2" ry="2.074"/>
    <ellipse cx="-811.303" cy="146.244" rx="2" ry="2.074"/>
    <ellipse cx="-862.453" cy="287.41" rx="2" ry="2.074"/>
    <ellipse cx="-785.31" cy="261.744" rx="2" ry="2.074"/>
    <circle cx="-792.856" cy="365.577" r="2"/>
    <circle cx="-792.856" cy="350.41" r="2"/>
    <circle cx="-748.415" cy="336.41" r="2"/>
    <circle cx="-886.769" cy="296.744" r="2"/>
    <circle cx="-893.477" cy="356.244" r="2"/>
    <circle cx="-746.738" cy="455.41" r="2"/>
    <circle cx="-746.738" cy="282.744" r="2"/>
    <circle cx="-893.477" cy="366.744" r="2"/>
    <circle cx="-746.738" cy="351.577" r="2"/>
    <circle cx="-785.31" cy="322.41" r="2"/>
    <circle cx="-729.968" cy="325.91" r="2"/>
    <circle cx="-792.856" cy="380.744" r="2"/>
    <circle cx="-837.297" cy="349.244" r="2"/>
    <circle cx="-626.831" cy="299.077" r="2"/>
    <circle cx="-616.769" cy="272.244" r="2"/>
    <circle cx="-726.614" cy="416.91" r="2"/>
    <circle cx="-843.167" cy="348.077" r="2"/>
    <circle cx="-705.651" cy="302.577" r="2"/>
    <circle cx="-555.558" cy="303.744" r="2"/>
    <circle cx="-646.117" cy="383.077" r="2"/>
    <circle cx="-646.956" cy="216.244" r="2"/>
    <circle cx="-845.682" cy="339.91" r="2"/>
    <circle cx="-761.831" cy="314.244" r="2"/>
    <circle cx="-772.732" cy="294.41" r="2"/>
    <circle cx="-844.844" cy="363.244" r="2"/>
    <circle cx="-754.285" cy="356.244" r="2"/>
    <circle cx="-854.906" cy="296.744" r="2"/>
    <circle cx="-856.583" cy="316.577" r="2"/>
    <circle cx="-755.123" cy="321.244" r="2"/>
    <circle cx="-754.285" cy="359.744" r="2"/>
    <circle cx="-879.223" cy="335.244" r="2"/>
    <circle cx="-848.198" cy="348.077" r="2"/>
    <circle cx="-816.335" cy="322.41" r="2"/>
    <circle cx="-726.614" cy="309.577" r="2"/>
    <circle cx="-723.26" cy="343.41" r="2"/>
    <circle cx="-868.322" cy="345.744" r="2"/>
    <circle cx="-846.521" cy="322.41" r="2"/>
    <circle cx="-855.744" cy="331.744" r="2"/>
    <circle cx="-819.689" cy="379.577" r="2"/>
    <circle cx="-800.403" cy="259.41" r="2"/>
    <circle cx="-744.223" cy="342.244" r="2"/>
    <circle cx="-790.341" cy="390.077" r="2"/>
    <circle cx="-754.285" cy="358.577" r="2"/>
    <circle cx="-752.608" cy="419.244" r="2"/>
    <circle cx="-846.521" cy="313.077" r="2"/>
    <circle cx="-650.31" cy="316.577" r="2"/>
    <circle cx="-681.335" cy="492.744" r="2"/>
    <circle cx="-851.552" cy="362.077" r="2"/>
    <circle cx="-753.446" cy="265.244" r="2"/>
    <circle cx="-750.931" cy="357.41" r="2"/>
    <circle cx="-683.85" cy="313.077" r="2"/>
    <circle cx="-839.813" cy="331.744" r="2"/>
    <circle cx="-594.13" cy="185.91" r="2"/>
    <circle cx="-866.645" cy="356.244" r="2"/>
    <circle cx="-866.645" cy="341.077" r="2"/>
    <circle cx="-551.366" cy="279.244" r="2"/>
    <circle cx="-741.707" cy="345.744" r="2"/>
    <circle cx="-470.03" cy="307.244" r="2"/>
    <circle cx="-724.099" cy="310.744" r="2"/>
    <circle cx="-794.533" cy="357.41" r="2"/>
    <circle cx="-781.956" cy="281.577" r="2"/>
    <circle cx="-781.956" cy="314.244" r="2"/>
    <circle cx="-859.937" cy="345.744" r="2"/>
    <circle cx="-864.13" cy="337.577" r="2"/>
    <circle cx="-526.21" cy="351.577" r="2"/>
    <circle cx="-526.21" cy="339.91" r="2"/>
    <circle cx="-449.067" cy="450.744" r="2"/>
    <circle cx="-604.192" cy="450.744" r="2"/>
    <circle cx="-700.62" cy="306.077" r="2"/>
    <circle cx="-877.546" cy="363.244" r="2"/>
    <circle cx="-775.248" cy="339.91" r="2"/>
    <circle cx="-775.248" cy="384.244" r="2"/>
    <circle cx="-813.819" cy="362.077" r="2"/>
    <circle cx="-813.819" cy="330.577" r="2"/>
    <circle cx="-750.092" cy="405.244" r="2"/>
    <circle cx="-829.751" cy="513.744" r="2"/>
    <circle cx="-837.297" cy="418.077" r="2"/>
    <circle cx="-802.918" cy="311.91" r="2"/>
    <circle cx="-772.732" cy="323.577" r="2"/>
    <circle cx="-837.297" cy="330.577" r="2"/>
    <circle cx="-910.248" cy="338.744" r="2"/>
    <circle cx="-910.248" cy="335.244" r="2"/>
    <circle cx="-837.297" cy="331.744" r="2"/>
    <circle cx="-910.248" cy="339.91" r="2"/>
    <circle cx="-837.297" cy="348.077" r="2"/>
    <circle cx="-837.297" cy="342.244" r="2"/>
    <circle cx="-837.297" cy="346.91" r="2"/>
    <circle cx="-837.297" cy="380.744" r="2"/>
    <circle cx="-837.297" cy="367.91" r="2"/>
    <circle cx="-837.297" cy="373.744" r="2"/>
    <circle cx="-913.602" cy="418.077" r="2"/>
    <circle cx="-895.993" cy="394.744" r="2"/>
    <circle cx="-895.993" cy="338.744" r="2"/>
    <circle cx="-913.602" cy="477.577" r="2"/>
    <circle cx="-895.993" cy="442.577" r="2"/>
    <circle cx="-895.993" cy="334.077" r="2"/>
    <circle cx="-913.602" cy="342.244" r="2"/>
    <circle cx="-895.993" cy="339.91" r="2"/>
    <circle cx="-895.993" cy="336.41" r="2"/>
    <circle cx="-913.602" cy="451.91" r="2"/>
    <circle cx="-885.092" cy="336.41" r="2"/>
    <circle cx="-895.993" cy="437.91" r="2"/>
    <circle cx="-912.763" cy="369.077" r="2"/>
    <circle cx="-889.285" cy="323.577" r="2"/>
    <circle cx="-877.546" cy="343.41" r="2"/>
    <circle cx="-641.086" cy="453.077" r="2"/>
    <circle cx="-842.328" cy="453.077" r="2"/>
    <circle cx="-803.757" cy="343.41" r="2"/>
    <circle cx="-835.62" cy="350.41" r="2"/>
    <circle cx="-868.322" cy="342.244" r="2"/>
    <circle cx="-873.353" cy="335.244" r="2"/>
    <circle cx="-818.012" cy="342.244" r="2"/>
    <circle cx="-833.105" cy="334.077" r="2"/>
    <circle cx="-861.614" cy="332.91" r="2"/>
    <circle cx="-741.707" cy="343.41" r="2"/>
    <circle cx="-833.105" cy="345.744" r="2"/>
    <circle cx="-829.751" cy="342.244" r="2"/>
    <circle cx="-825.558" cy="348.077" r="2"/>
    <circle cx="-863.291" cy="346.91" r="2"/>
    <circle cx="-866.645" cy="327.077" r="2"/>
    <circle cx="-876.707" cy="349.244" r="2"/>
    <circle cx="-854.906" cy="356.244" r="2"/>
    <circle cx="-823.881" cy="339.91" r="2"/>
    <circle cx="-737.515" cy="338.744" r="2"/>
    <circle cx="-772.732" cy="329.41" r="2"/>
    <circle cx="-727.453" cy="314.244" r="2"/>
    <circle cx="-849.875" cy="341.077" r="2"/>
    <circle cx="-879.223" cy="344.577" r="2"/>
    <circle cx="-828.074" cy="316.577" r="2"/>
    <circle cx="-885.092" cy="345.744" r="2"/>
    <circle cx="-715.713" cy="545.244" r="2"/>
    <circle cx="-882.577" cy="336.41" r="2"/>
    <circle cx="-848.198" cy="331.744" r="2"/>
    <circle cx="-848.198" cy="330.577" r="2"/>
    <circle cx="-899.347" cy="357.41" r="2"/>
    <circle cx="-862.453" cy="338.744" r="2"/>
    <circle cx="-785.31" cy="370.244" r="2"/>
    <circle cx="-743.384" cy="329.41" r="2"/>
    <circle cx="-815.496" cy="323.577" r="2"/>
    <circle cx="-884.254" cy="364.41" r="2"/>
    <circle cx="-746.738" cy="348.077" r="2"/>
    <circle cx="-912.763" cy="339.91" r="2"/>
    <circle cx="-912.763" cy="343.41" r="2"/>
    <circle cx="-845.682" cy="327.077" r="2"/>
    <circle cx="-856.583" cy="336.41" r="2"/>
    <circle cx="-818.85" cy="325.91" r="2"/>
    <circle cx="-807.111" cy="358.577" r="2"/>
    <circle cx="-818.85" cy="355.077" r="2"/>
    <circle cx="-748.415" cy="362.077" r="2"/>
    <circle cx="-509.44" cy="378.41" r="2"/>
    <circle cx="-895.154" cy="338.744" r="2"/>
    <circle cx="-819.689" cy="351.577" r="2"/>
    <circle cx="-760.993" cy="330.577" r="2"/>
    <circle cx="-890.123" cy="339.91" r="2"/>
    <circle cx="-821.366" cy="342.244" r="2"/>
    <circle cx="-839.813" cy="344.577" r="2"/>
    <circle cx="-709.844" cy="346.91" r="2"/>
    <circle cx="-921.987" cy="352.744" r="2"/>
    <circle cx="-887.608" cy="351.577" r="2"/>
    <circle cx="-816.335" cy="352.744" r="2"/>
    <circle cx="-772.732" cy="359.744" r="2"/>
    <circle cx="-875.869" cy="367.91" r="2"/>
    <circle cx="-795.372" cy="342.244" r="2"/>
    <circle cx="-807.111" cy="346.91" r="2"/>
    <circle cx="-695.589" cy="330.577" r="2"/>
    <circle cx="-670.434" cy="355.077" r="2"/>
    <circle cx="-837.297" cy="329.41" r="2"/>
    <circle cx="-829.751" cy="327.077" r="2"/>
    <circle cx="-741.707" cy="307.244" r="2"/>
    <circle cx="-628.508" cy="336.41" r="2"/>
    <circle cx="-714.036" cy="329.41" r="2"/>
    <circle cx="-714.036" cy="177.744" r="2"/>
    <circle cx="-700.62" cy="444.91" r="2"/>
    <circle cx="-879.223" cy="320.077" r="2"/>
    <circle cx="-413.012" cy="366.744" r="2"/>
    <circle cx="-692.235" cy="351.577" r="2"/>
    <circle cx="-793.695" cy="359.744" r="2"/>
    <circle cx="-776.086" cy="357.41" r="2"/>
    <circle cx="-684.689" cy="304.91" r="2"/>
    <circle cx="-668.757" cy="310.744" r="2"/>
    <circle cx="-766.024" cy="328.244" r="2"/>
    <circle cx="-682.173" cy="369.077" r="2"/>
    <circle cx="-806.272" cy="330.577" r="2"/>
    <circle cx="-858.26" cy="335.244" r="2"/>
    <circle cx="-801.241" cy="301.41" r="2"/>
    <circle cx="-822.204" cy="345.744" r="2"/>
    <circle cx="-833.105" cy="328.244" r="2"/>
    <circle cx="-789.502" cy="327.077" r="2"/>
    <circle cx="-594.13" cy="287.41" r="2"/>
    <circle cx="-843.167" cy="322.41" r="2"/>
    <circle cx="-624.316" cy="311.91" r="2"/>
    <circle cx="-659.533" cy="318.91" r="2"/>
    <circle cx="-752.608" cy="254.744" r="2"/>
    <circle cx="-849.036" cy="325.91" r="2"/>
    <circle cx="-773.571" cy="353.91" r="2"/>
    <circle cx="-848.198" cy="350.41" r="2"/>
    <circle cx="-858.26" cy="377.244" r="2"/>
    <circle cx="-858.26" cy="360.91" r="2"/>
    <circle cx="-848.198" cy="176.577" r="2"/>
    <circle cx="-771.894" cy="329.41" r="2"/>
    <circle cx="-722.421" cy="385.41" r="2"/>
    <circle cx="-785.31" cy="345.744" r="2"/>
    <circle cx="-786.148" cy="421.577" r="2"/>
    <circle cx="-900.185" cy="337.577" r="2"/>
    <circle cx="-857.421" cy="303.744" r="2"/>
    <circle cx="-818.012" cy="289.744" r="2"/>
    <circle cx="-846.521" cy="314.244" r="2"/>
    <circle cx="-833.105" cy="316.577" r="2"/>
    <circle cx="-697.266" cy="324.744" r="2"/>
    <circle cx="-742.546" cy="220.91" r="2"/>
    <circle cx="-803.757" cy="237.244" r="2"/>
    <circle cx="-803.757" cy="323.577" r="2"/>
    <circle cx="-826.397" cy="287.41" r="2"/>
    <circle cx="-844.844" cy="356.244" r="2"/>
    <circle cx="-827.235" cy="307.244" r="2"/>
    <circle cx="-855.744" cy="323.577" r="2"/>
    <circle cx="-873.353" cy="315.41" r="2"/>
  </g>
<style>
#g-fred_scatter-medium-interactions-img rect, #g-fred_scatter-medium-interactions-img circle, #g-fred_scatter-medium-interactions-img path, #g-fred_scatter-medium-interactions-img line, #g-fred_scatter-medium-interactions-img polyline, #g-fred_scatter-medium-interactions-img polygon { vector-effect: non-scaling-stroke; }
</style>
</svg>
